<?xml version="1.0" encoding="utf-8"?>
<svg xmlns="http://www.w3.org/2000/svg" viewBox="0 0 53.33 13.8"><path d="M4.18,2.64,5.34.71H5.5l2.68,10h-2Z"/><path d="M10,4.5H12l-.25,1.2c.62-1.07,1.24-1.33,1.91-1.33a1.79,1.79,0,0,1,.94.25l-.73,1.76a1.53,1.53,0,0,0-.8-.2c-.85,0-1.43.35-1.68,1.77l-.48,2.76H9Z"/><path d="M14.84,6.09l.28-1.59H16l.57-3.23H18.5L17.93,4.5h1.5l-.27,1.59h-1.5l-.41,2.34c-.12.63.06.78.36.78A1.26,1.26,0,0,0,18.28,9l.61,1.35a2.38,2.38,0,0,1-1.61.5c-1.23,0-2.28-.56-1.94-2.46l.41-2.29Z"/><path d="M20.54,4.5h1.92l-.2.9a2.16,2.16,0,0,1,1.82-1c1.4,0,2.5,1.15,2.5,3,0,2.16-1.38,3.5-2.94,3.5a2.19,2.19,0,0,1-2.08-1.21l-.73,4.17H18.91Zm4,2.94a1.23,1.23,0,0,0-1.26-1.39,1.5,1.5,0,0,0-1.45,1.69,1.26,1.26,0,0,0,1.27,1.44C24,9.18,24.57,8.49,24.57,7.44Z"/><path d="M28.09,4.5H30l-.25,1.2c.62-1.07,1.24-1.33,1.91-1.33a1.72,1.72,0,0,1,.93.25l-.72,1.76a1.55,1.55,0,0,0-.81-.2c-.84,0-1.42.35-1.67,1.77l-.48,2.76H27Z"/><path d="M32.44,7.69a3.27,3.27,0,0,1,3.45-3.32,3.13,3.13,0,0,1,3.28,3.16,3.26,3.26,0,0,1-3.45,3.31A3.15,3.15,0,0,1,32.44,7.69Zm4.75-.17A1.33,1.33,0,0,0,35.84,6c-.88,0-1.42.69-1.42,1.69a1.34,1.34,0,0,0,1.36,1.49C36.65,9.21,37.19,8.52,37.19,7.52Z"/><path d="M39.64,7.69a3.27,3.27,0,0,1,3.45-3.32,3.13,3.13,0,0,1,3.28,3.16,3.26,3.26,0,0,1-3.45,3.31A3.15,3.15,0,0,1,39.64,7.69Zm4.75-.17A1.33,1.33,0,0,0,43,6c-.87,0-1.41.69-1.41,1.69A1.33,1.33,0,0,0,43,9.21C43.85,9.21,44.39,8.52,44.39,7.52Z"/><path d="M47.07,6.09l.28-1.59h1l.39-2.21C49,.82,49.75,0,51.22,0a2.25,2.25,0,0,1,1.83.79L51.92,2.05a.67.67,0,0,0-.61-.33c-.32,0-.55.14-.64.61L50.29,4.5h1.6l-.27,1.59H50l-1.06,6c-.26,1.52-.84,1.68-2.14,1.68h-1l.28-1.45h.58c.22,0,.34,0,.4-.36l1-5.9Z"/><path d="M51.06,9.63a1.14,1.14,0,1,1,1.13,1.16A1.13,1.13,0,0,1,51.06,9.63Z"/><path d="M0,9.63A1.13,1.13,0,0,1,1.14,8.48a1.16,1.16,0,0,1,0,2.31A1.13,1.13,0,0,1,0,9.63Z"/></svg>