<?xml version="1.0" encoding="utf-8"?>
<svg xmlns="http://www.w3.org/2000/svg" viewBox="0 0 22.69 24.11"><path d="M13.73,0H6.65c-.48,0-2.74,2.48-3.2,1.86C3.87,1.34,4.91.63,5.14,0H0V7.79A22.39,22.39,0,0,0,3.81,4.84C5,3.81,6.59,2.08,8,1.64c1-.31.34.54-.14,1.19A12.18,12.18,0,0,1,6.59,4.26c-.66.65-1.16,1.2-1.84,1.83-.26.23-.49.5-.91.89s-.64.66-1,1S1.7,9.41,1.17,9.89a3.55,3.55,0,0,0-.57.68c-.13.25.2.8-.6.58v4.66a15.07,15.07,0,0,0,2.42-1.76c.65-.52,1.41-.92,2-1.37,1.23-1,2.43-2.12,3.73-3.17C9,8.83,9.87,8.38,10.68,7.82c.58-.4,1.14-1.17,1.86-1.21,0,1.1-2.92,3.06-3.63,3.77A27.09,27.09,0,0,0,6.47,13C5.9,13.73,5,14,4.1,14.83c-.34.34-.78.63-1.23,1s-1,.86-.24.69c.26.64-.39.32-.83.62-.17.11,0,.34-.14.47A5.07,5.07,0,0,0,0,18.54v4.91c.06,0,.6-.33.6-.34a19.52,19.52,0,0,1,3.5-3.24c.72-.6,1.72-1.39,2.43-1.9S8.16,16.86,9,16.33c.62-.39,1.44-1.31,2.21-1.43-.11.53-.91,1-1.1,1.5-1,1-1.86,1.94-3,3-.77.71-1.84,1.8-2.52,2.41-.49.45-2.42,1.68-2.6,2.33h4.8c-.21-.12-.08-.7-.1-.8.74.07,1.6-.8,2.24-1.28s1.36-.88,1.94-1.34a22.87,22.87,0,0,1,3.39-2.31c.33-.17,1-.45,1-.12,0,.7-1.74,1.73-2.19,2.14-.64.58-1.64,1.57-1.57,2.15a1.76,1.76,0,0,0,2.15,1.37c1-.44,1.64-2,2.59-2.37.45-.19,1.05-.35,1.21.11,0,0-.3.6-.33.73.79,0,.06.81,1.16.64a2.75,2.75,0,0,0,1.51-.89H20c.38-.88,1.66-1.46,2.19-2.39a1.84,1.84,0,0,0,.23-2.06A1.49,1.49,0,0,0,21.18,17c-.24,0-1,.4-1.23.2s.2-.73.2-.93a2.31,2.31,0,0,0-.8-1.47c-1.29-1.13-2.52.16-3.73.78a12.55,12.55,0,0,1-1.68,1c-1.26.32-.46-.37,0-.76,1.66-1.37,4-3.1,5.07-5a1.62,1.62,0,0,0,.88-2.07c-.57-1.17-1.42-.94-2.3-.56a35.91,35.91,0,0,0-4.21,2.3,24,24,0,0,0-2.8,2.1c-.41.34-1.58,1.95-1.81,1.26s1.84-2.35,2.44-2.9c1.07-1,2.09-1.74,3.34-2.88A23.9,23.9,0,0,0,17.3,5.42c.91-1.16.69-1.44.42-2.61a3,3,0,0,0-3.16,0c-1.06.56-2.5,1-3.11,2.1A15,15,0,0,0,8.58,7c-.73.49-1.91,1.55-2.88,1.52A18.52,18.52,0,0,1,8.19,5.62C9.93,3.78,12.13,1.93,13.73,0" style="fill-rule:evenodd"/></svg>