<?xml version="1.0" encoding="utf-8"?>
<svg xmlns="http://www.w3.org/2000/svg" viewBox="0 0 41.94 12.37"><path d="M36.52,11.63a1.4,1.4,0,0,1-1.24.74H32.4a1.4,1.4,0,0,1-1.23-.73l-3.9-7.91a2,2,0,0,0-1.85-1H18.34a1,1,0,0,0-1,1,1,1,0,0,0,1,1h4.87A3.54,3.54,0,0,1,27,8.59a3.54,3.54,0,0,1-3.79,3.78H17a1,1,0,0,1-1-1V10a.32.32,0,0,1,.34-.35h5.57a1,1,0,0,0,1-1,1,1,0,0,0-1-1H16.61A4.14,4.14,0,0,1,14.37,7c-.29,3.36-2.69,5.42-6.2,5.42H.35A.32.32,0,0,1,0,12V5.16a.32.32,0,0,1,.34-.35H3.09a1,1,0,0,1,1.07,1V9.28h0a.31.31,0,0,0,.34.34H6.89a3.21,3.21,0,0,0,3.44-3.43A3.21,3.21,0,0,0,6.89,2.75H.34A.32.32,0,0,1,0,2.41V1A1,1,0,0,1,1.05,0H8.21a6.13,6.13,0,0,1,4.91,2.12A3.55,3.55,0,0,1,16.64,0H26.89a3.64,3.64,0,0,1,3.43,1.88l3.31,7a.2.2,0,0,0,.19.11A.17.17,0,0,0,34,8.83S38.1.22,38.13.17a.3.3,0,0,1,.3-.17h3.16a.32.32,0,0,1,.35.34.43.43,0,0,1,0,.17Z" style="fill:#231f20"/></svg>