<?xml version="1.0" encoding="utf-8"?>
<svg id="Layer_1" data-name="Layer 1" xmlns="http://www.w3.org/2000/svg" viewBox="0 0 134.91 41.8"><title>ECADC</title><polygon points="15.08 22.49 12.29 22.49 10.09 31.2 10.01 31.2 10.01 22.49 7.13 22.49 7.13 41.8 10.01 41.8 10.01 32.01 10.09 32.01 12.18 41.8 15.14 41.8 12.88 31.3 15.08 22.49"/><polygon points="23.84 22.49 21.05 22.49 18.85 31.2 18.77 31.2 18.77 22.49 15.9 22.49 15.9 41.8 18.77 41.8 18.77 32.01 18.85 32.01 20.94 41.8 23.9 41.8 21.65 31.3 23.84 22.49"/><polygon points="2.88 32.5 6.27 32.5 6.27 29.97 2.88 29.97 2.88 25.01 6.4 25.01 6.4 22.49 0 22.49 0 41.8 6.46 41.8 6.46 39.28 2.88 39.28 2.88 32.5"/><path d="M26.58,22.49,24.38,41.8H27l.62-5.24h2l.54,5.24h2.9l-2.2-19.31ZM27.88,34l.71-8h.19l.6,8Z"/><polygon points="41.64 22.49 38.84 22.49 36.65 31.2 36.56 31.2 36.56 22.49 33.69 22.49 33.69 41.8 36.56 41.8 36.56 32.01 36.65 32.01 38.73 41.8 41.69 41.8 39.44 31.3 41.64 22.49"/><polygon points="2.88 10.39 6.27 10.39 6.27 7.87 2.88 7.87 2.88 2.9 6.4 2.9 6.4 0.38 0 0.38 0 19.69 6.46 19.69 6.46 17.17 2.88 17.17 2.88 10.39"/><path d="M36.81,20.07c1.79,0,3.77-.73,3.77-3.25V12.4H37.7v4.17c0,1-.3,1.2-.87,1.2s-.89-.22-.89-1.2V3.5c0-1,.3-1.2.89-1.2s.87.22.87,1.2V7.43h2.88V3.26C40.58.73,38.6,0,36.81,0s-3.75.73-3.75,3.26V16.82C33.06,19.34,35,20.07,36.81,20.07Z"/><path d="M10.93,20.07c1.79,0,3.77-.73,3.77-3.25V12.4H11.83v4.17c0,1-.3,1.2-.87,1.2s-.9-.22-.9-1.2V3.5c0-1,.3-1.2.9-1.2s.87.22.87,1.2V7.43H14.7V3.26C14.7.73,12.72,0,10.93,0S7.19.73,7.19,3.26V16.82C7.19,19.34,9.17,20.07,10.93,20.07Z"/><path d="M32.22,16.19V4.75c0-3.39-1.19-4.37-4-4.37H24.71V19.69h4.1A3.3,3.3,0,0,0,32.22,16.19Zm-4.63,1.2V2.68h.67c.74,0,1.09.2,1.09,1.44V16c0,1.25-.35,1.44-1.09,1.44Z"/><path d="M17.41.38,15.22,19.69h2.6l.63-5.23h2L21,19.69h2.9L21.73.38Zm1.31,11.55.7-8h.19l.6,8Z"/><path d="M75.75,11.49a1.74,1.74,0,0,0,.53-1.42,1.64,1.64,0,0,0-.37-1.14A1.15,1.15,0,0,0,75,8.54a1,1,0,0,0-.61.17,1.26,1.26,0,0,0-.34.32V8.62h-.5v4.25h.52V11.32a1.58,1.58,0,0,0,.3.29,1.06,1.06,0,0,0,.58.15A1.19,1.19,0,0,0,75.75,11.49Zm-1.57-.65a1.51,1.51,0,0,1-.1-.6,2.12,2.12,0,0,1,.1-.72A.73.73,0,0,1,74.91,9a.72.72,0,0,1,.73.51,1.64,1.64,0,0,1,.11.62,1.42,1.42,0,0,1-.24.9.74.74,0,0,1-.6.3A.72.72,0,0,1,74.18,10.84Z"/><path d="M66.82,9.63a1.29,1.29,0,0,0-.2-.54,1.21,1.21,0,0,0-.46-.4,1.42,1.42,0,0,0-.63-.15,1.27,1.27,0,0,0-1,.46,1.71,1.71,0,0,0-.4,1.19,1.61,1.61,0,0,0,.39,1.16,1.27,1.27,0,0,0,1,.42,1.79,1.79,0,0,0,.42,0,1.18,1.18,0,0,0,.57-.31,1.24,1.24,0,0,0,.25-.33,1,1,0,0,0,.13-.38h-.5a.89.89,0,0,1-.19.36.79.79,0,0,1-.63.26.71.71,0,0,1-.63-.28,1.25,1.25,0,0,1-.22-.74h2.22A3.42,3.42,0,0,0,66.82,9.63Zm-2.16.26a1,1,0,0,1,.25-.65A.78.78,0,0,1,65.5,9a.74.74,0,0,1,.7.37,1.4,1.4,0,0,1,.14.53Z"/><path d="M55.5,10.71a2.79,2.79,0,0,0,.25-1.21,2.27,2.27,0,0,0-.42-1.41A1.55,1.55,0,0,0,54,7.48H52.34v4.18H54A1.53,1.53,0,0,0,55.5,10.71Zm-2.59.46V8h1a1.13,1.13,0,0,1,1,.43,2.1,2.1,0,0,1,.3,1.21,2.39,2.39,0,0,1,0,.44,1.84,1.84,0,0,1-.24.65,1,1,0,0,1-.53.42,1.47,1.47,0,0,1-.46.06Z"/><path d="M90.38,11.05a.77.77,0,0,0,.13.47.54.54,0,0,0,.48.19l.21,0,.18,0v-.41H91.2a.49.49,0,0,1-.2,0,.22.22,0,0,1-.1-.21V9h.48V8.61H90.9V7.76h-.52v.85H90V9h.41Z"/><rect x="68.08" y="7.48" width="0.51" height="4.18"/><path d="M111.57,11.08a1.14,1.14,0,0,0,.13-.38h-.5a.89.89,0,0,1-.19.36.8.8,0,0,1-.64.26.73.73,0,0,1-.63-.28,1.25,1.25,0,0,1-.21-.74h2.21a3.62,3.62,0,0,0,0-.67,1.3,1.3,0,0,0-.21-.54,1.14,1.14,0,0,0-.46-.4,1.38,1.38,0,0,0-.62-.15,1.3,1.3,0,0,0-1,.46,1.76,1.76,0,0,0-.39,1.19,1.61,1.61,0,0,0,.39,1.16,1.26,1.26,0,0,0,1,.42,1.7,1.7,0,0,0,.41,0,1.21,1.21,0,0,0,.58-.31A1.5,1.5,0,0,0,111.57,11.08Zm-1.78-1.84a.76.76,0,0,1,.58-.25.73.73,0,0,1,.7.37,1.23,1.23,0,0,1,.15.53h-1.68A1,1,0,0,1,109.79,9.24Z"/><path d="M114.28,8.54a.73.73,0,0,0-.54.22,1.06,1.06,0,0,0-.29.38V8.61H113v3.05h.51V9.9a.87.87,0,0,1,.21-.57.72.72,0,0,1,.59-.25h.09l.08,0V8.56l-.11,0Z"/><path d="M101.55,11.41a1.24,1.24,0,0,0,.25-.33,1.19,1.19,0,0,0,.14-.38h-.51a.89.89,0,0,1-.19.36.78.78,0,0,1-.63.26A.71.71,0,0,1,100,11a1.25,1.25,0,0,1-.22-.74H102a3.42,3.42,0,0,0,0-.67,1.29,1.29,0,0,0-.2-.54,1.21,1.21,0,0,0-.46-.4,1.39,1.39,0,0,0-.63-.15,1.28,1.28,0,0,0-1,.46,1.71,1.71,0,0,0-.4,1.19,1.61,1.61,0,0,0,.39,1.16,1.29,1.29,0,0,0,1,.42,1.73,1.73,0,0,0,.42,0A1.14,1.14,0,0,0,101.55,11.41ZM100,9.24a.78.78,0,0,1,.59-.25.73.73,0,0,1,.7.37,1.4,1.4,0,0,1,.14.53H99.77A1,1,0,0,1,100,9.24Z"/><path d="M98.17,10.12h-.55a1.8,1.8,0,0,1-.26.67,1,1,0,0,1-.93.48,1.16,1.16,0,0,1-1-.46,2,2,0,0,1-.34-1.19,2,2,0,0,1,.38-1.33,1.23,1.23,0,0,1,1-.44,1.13,1.13,0,0,1,.77.24,1.24,1.24,0,0,1,.37.64h.55a1.48,1.48,0,0,0-.48-1,1.69,1.69,0,0,0-1.22-.42A1.76,1.76,0,0,0,95,8a2.27,2.27,0,0,0-.49,1.51,2.32,2.32,0,0,0,.65,1.81,1.75,1.75,0,0,0,1.21.44,1.69,1.69,0,0,0,1.32-.54A1.89,1.89,0,0,0,98.17,10.12Z"/><polygon points="60.46 8.61 61.59 11.66 62.13 11.66 63.28 8.61 62.72 8.61 61.87 11.09 61.06 8.61 60.46 8.61"/><path d="M104.66,8.54a1.18,1.18,0,0,0-.53.12,1.25,1.25,0,0,0-.46.38V8.61h-.49v3.05h.51v-1.6a2.52,2.52,0,0,1,0-.46.74.74,0,0,1,.17-.31.7.7,0,0,1,.37-.25.87.87,0,0,1,.3,0,.49.49,0,0,1,.49.29,1,1,0,0,1,.08.45v1.92h.53v-2a1.66,1.66,0,0,0-.13-.71A.88.88,0,0,0,104.66,8.54Z"/><path d="M79.21,9.67v2h.52V9.88A.86.86,0,0,1,80,9.21a.71.71,0,0,1,.52-.2.65.65,0,0,1,.37.11.51.51,0,0,1,.15.42v2.12h.53v-2A1.48,1.48,0,0,0,81.4,9a.85.85,0,0,0-.83-.44,1.08,1.08,0,0,0-.52.12,1.06,1.06,0,0,0-.4.36,1.07,1.07,0,0,0-.23-.3.9.9,0,0,0-.59-.18,1,1,0,0,0-.57.17,1.7,1.7,0,0,0-.33.33V8.61h-.51v3.05h.51V10a1.09,1.09,0,0,1,.24-.81A.77.77,0,0,1,78.7,9a.43.43,0,0,1,.43.22A1,1,0,0,1,79.21,9.67Z"/><path d="M71,11.77a1.28,1.28,0,0,0,1.11-.49,2,2,0,0,0,.35-1.21A1.54,1.54,0,0,0,72,8.91a1.37,1.37,0,0,0-1-.39A1.28,1.28,0,0,0,70,9a1.81,1.81,0,0,0-.39,1.22A1.65,1.65,0,0,0,70,11.34,1.26,1.26,0,0,0,71,11.77Zm-.62-2.44A.73.73,0,0,1,71,9a.75.75,0,0,1,.73.42,1.54,1.54,0,0,1,.14.69,1.87,1.87,0,0,1-.19.86.68.68,0,0,1-.69.38.73.73,0,0,1-.67-.32,1.48,1.48,0,0,1-.21-.81A1.64,1.64,0,0,1,70.36,9.33Z"/><path d="M85.23,9.63a1.29,1.29,0,0,0-.2-.54,1.21,1.21,0,0,0-.46-.4,1.39,1.39,0,0,0-.63-.15,1.28,1.28,0,0,0-1,.46,1.71,1.71,0,0,0-.4,1.19,1.61,1.61,0,0,0,.39,1.16,1.29,1.29,0,0,0,1,.42,1.73,1.73,0,0,0,.42,0,1.14,1.14,0,0,0,.57-.31,1.24,1.24,0,0,0,.25-.33,1,1,0,0,0,.13-.38h-.5a.89.89,0,0,1-.19.36.79.79,0,0,1-.63.26.71.71,0,0,1-.63-.28,1.25,1.25,0,0,1-.22-.74h2.22A3.42,3.42,0,0,0,85.23,9.63Zm-2.16.26a1,1,0,0,1,.25-.65A.78.78,0,0,1,83.91,9a.73.73,0,0,1,.7.37,1.4,1.4,0,0,1,.14.53Z"/><path d="M88,8.54a1.18,1.18,0,0,0-.53.12A1.25,1.25,0,0,0,87,9V8.61h-.49v3.05H87v-1.6a2.52,2.52,0,0,1,0-.46.74.74,0,0,1,.17-.31A.7.7,0,0,1,87.57,9a.84.84,0,0,1,.3,0,.49.49,0,0,1,.49.29,1,1,0,0,1,.08.45v1.92H89v-2A1.68,1.68,0,0,0,88.84,9,.88.88,0,0,0,88,8.54Z"/><path d="M107.08,11.05a.77.77,0,0,0,.13.47.54.54,0,0,0,.48.19l.21,0,.18,0v-.41h-.18a.41.41,0,0,1-.19,0,.21.21,0,0,1-.11-.21V9h.48V8.61h-.48V7.76h-.52v.85h-.41V9h.41Z"/><path d="M58.19,11.77a1.7,1.7,0,0,0,.41,0,1.21,1.21,0,0,0,.58-.31,1.5,1.5,0,0,0,.25-.33,1.14,1.14,0,0,0,.13-.38h-.5a.89.89,0,0,1-.19.36.8.8,0,0,1-.64.26A.73.73,0,0,1,57.6,11a1.25,1.25,0,0,1-.21-.74H59.6a3.62,3.62,0,0,0,0-.67,1.3,1.3,0,0,0-.21-.54,1.14,1.14,0,0,0-.46-.4,1.38,1.38,0,0,0-.62-.15,1.3,1.3,0,0,0-1,.46,1.76,1.76,0,0,0-.39,1.19,1.61,1.61,0,0,0,.39,1.16A1.26,1.26,0,0,0,58.19,11.77Zm-.54-2.53A.76.76,0,0,1,58.23,9a.73.73,0,0,1,.7.37,1.23,1.23,0,0,1,.15.53H57.4A1,1,0,0,1,57.65,9.24Z"/><path d="M117.63,4c-.07,0-.11,0-.13,0a.2.2,0,0,1,0-.13V2.09a.7.7,0,0,0-.33-.64,1.7,1.7,0,0,0-.87-.2,1.5,1.5,0,0,0-.82.22.9.9,0,0,0-.36.79h.48a.66.66,0,0,1,.12-.36.66.66,0,0,1,.57-.22,1,1,0,0,1,.53.12.43.43,0,0,1,.18.38.53.53,0,0,1,0,.2.3.3,0,0,1-.24.15l-.81.1a1.28,1.28,0,0,0-.7.29.83.83,0,0,0-.26.65.86.86,0,0,0,.27.65,1,1,0,0,0,.69.25,1.41,1.41,0,0,0,.65-.15A1.5,1.5,0,0,0,117,4a.66.66,0,0,0,.08.28.44.44,0,0,0,.39.19h.17l.18,0V4h-.17ZM117,3.23a.69.69,0,0,1-.43.68A1.08,1.08,0,0,1,116,4a.55.55,0,0,1-.38-.13.41.41,0,0,1-.17-.35.44.44,0,0,1,.24-.42,1,1,0,0,1,.42-.12l.31,0,.29-.06a.67.67,0,0,0,.24-.1Z"/><path d="M128.09.19l-1.57,4.18h.58l.45-1.25h1.64l.44,1.25h.62L128.73.19Zm-.37,2.47.67-1.85L129,2.66Z"/><path d="M122.56,3.81l-.81-2.49h-.58l1.12,3.14a3,3,0,0,1-.12.31l-.11.24a.38.38,0,0,1-.11.11.36.36,0,0,1-.21,0h-.1l-.2,0v.47l.15,0h.16a.7.7,0,0,0,.63-.26A8.83,8.83,0,0,0,123,3.94c.12-.33.28-.75.46-1.28L124,1.32h-.56Z"/><path d="M58.74,4.19a1,1,0,0,0,.31-.7.69.69,0,0,0-.3-.62A2.91,2.91,0,0,0,58,2.61l-.35-.08a1.83,1.83,0,0,1-.34-.12.35.35,0,0,1-.2-.32.34.34,0,0,1,.15-.29.71.71,0,0,1,.45-.12.8.8,0,0,1,.63.21.56.56,0,0,1,.12.31H59a.88.88,0,0,0-.19-.55,1.19,1.19,0,0,0-1-.41,1.27,1.27,0,0,0-.85.27.87.87,0,0,0-.31.7.65.65,0,0,0,.33.58,2,2,0,0,0,.59.21l.41.1a2.83,2.83,0,0,1,.45.15.34.34,0,0,1,.17.3.4.4,0,0,1-.22.38,1.07,1.07,0,0,1-.51.13.86.86,0,0,1-.69-.25A.78.78,0,0,1,57,3.42H56.5a1.16,1.16,0,0,0,.31.76,1.25,1.25,0,0,0,1,.31A1.35,1.35,0,0,0,58.74,4.19Z"/><path d="M73.32,2.53l-.82.1a1.28,1.28,0,0,0-.7.29.83.83,0,0,0-.26.65.86.86,0,0,0,.27.65,1,1,0,0,0,.69.25,1.41,1.41,0,0,0,.65-.15A1.5,1.5,0,0,0,73.6,4a.55.55,0,0,0,.09.28.42.42,0,0,0,.38.19h.17l.18,0V4h-.16c-.07,0-.12,0-.14,0a.28.28,0,0,1,0-.13V2.09a.7.7,0,0,0-.33-.64,1.7,1.7,0,0,0-.87-.2,1.5,1.5,0,0,0-.82.22.9.9,0,0,0-.36.79h.48a.76.76,0,0,1,.12-.36.66.66,0,0,1,.57-.22,1,1,0,0,1,.53.12.43.43,0,0,1,.19.38.37.37,0,0,1,0,.2A.3.3,0,0,1,73.32,2.53Zm.25.7a.69.69,0,0,1-.42.68,1.12,1.12,0,0,1-.53.13.57.57,0,0,1-.38-.13.41.41,0,0,1-.16-.35.43.43,0,0,1,.23-.42A1.05,1.05,0,0,1,72.73,3L73,3a1.5,1.5,0,0,0,.29-.06.67.67,0,0,0,.24-.1Z"/><rect x="69.75" y="0.19" width="0.52" height="0.58"/><rect x="69.75" y="1.34" width="0.52" height="3.03"/><path d="M119.38,2.62a.88.88,0,0,1,.21-.58.75.75,0,0,1,.6-.24h.16V1.27h-.16a.78.78,0,0,0-.54.23,1,1,0,0,0-.29.37V1.32h-.49V4.37h.51Z"/><path d="M109.89,4.48A1.3,1.3,0,0,0,111,4a2,2,0,0,0,.35-1.22,1.52,1.52,0,0,0-.4-1.15,1.37,1.37,0,0,0-1-.39,1.31,1.31,0,0,0-1,.45,1.81,1.81,0,0,0-.39,1.22,1.7,1.7,0,0,0,.37,1.14A1.24,1.24,0,0,0,109.89,4.48ZM109.27,2a.73.73,0,0,1,.68-.36.74.74,0,0,1,.73.42,1.55,1.55,0,0,1,.14.7,1.83,1.83,0,0,1-.19.85.69.69,0,0,1-.69.39.73.73,0,0,1-.67-.33,1.43,1.43,0,0,1-.21-.81A1.69,1.69,0,0,1,109.27,2Z"/><polygon points="55.45 3.87 52.92 3.87 52.92 2.46 55.22 2.46 55.22 1.97 52.92 1.97 52.92 0.7 55.4 0.7 55.4 0.19 52.37 0.19 52.37 4.37 55.45 4.37 55.45 3.87"/><path d="M100.25,2.75a1.09,1.09,0,0,1,.24-.81.74.74,0,0,1,.53-.22.44.44,0,0,1,.43.21,1,1,0,0,1,.08.45v2h.52V2.6a.88.88,0,0,1,.22-.68.73.73,0,0,1,.52-.2.59.59,0,0,1,.37.12.48.48,0,0,1,.15.41V4.37h.53v-2a1.43,1.43,0,0,0-.12-.64.84.84,0,0,0-.83-.45,1.08,1.08,0,0,0-.52.12,1,1,0,0,0-.4.37,1,1,0,0,0-.23-.31.92.92,0,0,0-.59-.18,1,1,0,0,0-.57.18,1.7,1.7,0,0,0-.33.33V1.32h-.51V4.37h.51Z"/><path d="M107.62,2.78a1.61,1.61,0,0,0-.36-1.13,1.17,1.17,0,0,0-1.49-.23,1.44,1.44,0,0,0-.34.32v-.4h-.5V5.59h.51V4a1.31,1.31,0,0,0,.31.29,1.06,1.06,0,0,0,.58.15,1.19,1.19,0,0,0,.77-.27A1.73,1.73,0,0,0,107.62,2.78Zm-.76,1a.74.74,0,0,1-.6.3.73.73,0,0,1-.73-.48,1.5,1.5,0,0,1-.11-.6,2.1,2.1,0,0,1,.11-.72.73.73,0,0,1,.73-.53.72.72,0,0,1,.73.5,1.73,1.73,0,0,1,.11.63A1.42,1.42,0,0,1,106.86,3.73Z"/><path d="M134.91,1.74V1.32h-.49V.47h-.52v.85h-.41v.42h.41v2a.8.8,0,0,0,.13.48.56.56,0,0,0,.49.18h.2l.19,0V4h-.18a.33.33,0,0,1-.2,0,.21.21,0,0,1-.11-.21v-2Z"/><path d="M64.59,4a2,2,0,0,0,.35-1.22,1.52,1.52,0,0,0-.4-1.15,1.37,1.37,0,0,0-1-.39,1.3,1.3,0,0,0-1,.45,1.81,1.81,0,0,0-.39,1.22,1.65,1.65,0,0,0,.37,1.14,1.23,1.23,0,0,0,1,.43A1.3,1.3,0,0,0,64.59,4ZM63.53,4a.73.73,0,0,1-.67-.33,1.43,1.43,0,0,1-.21-.81A1.69,1.69,0,0,1,62.86,2a.73.73,0,0,1,.68-.36.75.75,0,0,1,.73.42,1.55,1.55,0,0,1,.14.7,1.83,1.83,0,0,1-.19.85A.69.69,0,0,1,63.53,4Z"/><path d="M60.26,3.76a.8.8,0,0,0,.13.48.55.55,0,0,0,.48.18h.21l.18,0V4h-.18a.32.32,0,0,1-.19,0c-.08,0-.11-.1-.11-.21v-2h.48V1.32h-.48V.47h-.52v.85h-.41v.42h.41Z"/><path d="M113.06,2.62a.88.88,0,0,1,.21-.58.75.75,0,0,1,.6-.24H114V1.27h-.16a.78.78,0,0,0-.54.23,1.17,1.17,0,0,0-.29.37V1.32h-.49V4.37h.51Z"/><path d="M91.49,1.25a1.19,1.19,0,0,0-.54.12,1.47,1.47,0,0,0-.46.39V1.32H90V4.37h.51V2.77a1.77,1.77,0,0,1,0-.45A.74.74,0,0,1,90.72,2a.81.81,0,0,1,.37-.25,1.26,1.26,0,0,1,.3,0,.5.5,0,0,1,.5.28,1.1,1.1,0,0,1,.08.45V4.37h.52V2.42a1.5,1.5,0,0,0-.13-.71A.88.88,0,0,0,91.49,1.25Z"/><path d="M87.36,4.48A1.3,1.3,0,0,0,88.47,4a2,2,0,0,0,.35-1.22,1.52,1.52,0,0,0-.4-1.15,1.37,1.37,0,0,0-1-.39,1.3,1.3,0,0,0-1,.45A1.81,1.81,0,0,0,86,2.91a1.65,1.65,0,0,0,.37,1.14A1.23,1.23,0,0,0,87.36,4.48ZM86.74,2a.73.73,0,0,1,.68-.36.75.75,0,0,1,.73.42,1.55,1.55,0,0,1,.14.7,1.83,1.83,0,0,1-.19.85.69.69,0,0,1-.69.39.73.73,0,0,1-.67-.33,1.43,1.43,0,0,1-.21-.81A1.69,1.69,0,0,1,86.74,2Z"/><path d="M84.51,3.94A1.88,1.88,0,0,0,85,2.84h-.55a2,2,0,0,1-.25.66,1.07,1.07,0,0,1-.94.48,1.19,1.19,0,0,1-1-.45,2,2,0,0,1-.33-1.19A2,2,0,0,1,82.28,1a1.23,1.23,0,0,1,1-.43A1.13,1.13,0,0,1,84,.81a1.09,1.09,0,0,1,.37.64H85A1.44,1.44,0,0,0,84.47.5,1.67,1.67,0,0,0,83.25.08a1.75,1.75,0,0,0-1.44.64,2.34,2.34,0,0,0-.48,1.52A2.31,2.31,0,0,0,82,4a1.9,1.9,0,0,0,2.54-.1Z"/><path d="M76,2.77a1.77,1.77,0,0,1,0-.45A.67.67,0,0,1,76.2,2a.72.72,0,0,1,.37-.25,1.12,1.12,0,0,1,.29,0,.5.5,0,0,1,.5.28,1.1,1.1,0,0,1,.08.45V4.37H78V2.42a1.65,1.65,0,0,0-.12-.71A.9.9,0,0,0,77,1.25a1.19,1.19,0,0,0-.54.12,1.47,1.47,0,0,0-.46.39V1.32h-.48V4.37H76Z"/><path d="M68,2a1.1,1.1,0,0,1,.08.45V4.37h.52V2.42a1.65,1.65,0,0,0-.12-.71.91.91,0,0,0-.88-.46,1.19,1.19,0,0,0-.54.12,1.47,1.47,0,0,0-.46.39V1.32h-.48V4.37h.51V2.77a1.77,1.77,0,0,1,0-.45A.74.74,0,0,1,66.84,2a.81.81,0,0,1,.37-.25,1.26,1.26,0,0,1,.3,0A.5.5,0,0,1,68,2Z"/><path d="M97.15,4.48a1.73,1.73,0,0,0,.42-.05,1.12,1.12,0,0,0,.57-.3,1.3,1.3,0,0,0,.25-.34.92.92,0,0,0,.13-.37H98a.92.92,0,0,1-.19.35A.8.8,0,0,1,97.2,4a.73.73,0,0,1-.63-.28A1.31,1.31,0,0,1,96.35,3h2.22a3.42,3.42,0,0,0,0-.67,1.35,1.35,0,0,0-.2-.54,1.18,1.18,0,0,0-.46-.39,1.4,1.4,0,0,0-.63-.16,1.31,1.31,0,0,0-1,.46,1.76,1.76,0,0,0-.4,1.2,1.64,1.64,0,0,0,.39,1.16A1.32,1.32,0,0,0,97.15,4.48ZM96.61,2a.79.79,0,0,1,.59-.26.76.76,0,0,1,.7.37A1.4,1.4,0,0,1,98,2.6H96.36A.94.94,0,0,1,96.61,2Z"/><path d="M132.4,1.25a.74.74,0,0,0-.53.23,1.09,1.09,0,0,0-.3.37V1.32h-.48V4.37h.51V2.62a.88.88,0,0,1,.21-.58.72.72,0,0,1,.59-.24h.17V1.27h-.17Z"/><path d="M93.9,3.76a.88.88,0,0,0,.13.48.57.57,0,0,0,.49.18h.2l.19,0V4h-.18a.35.35,0,0,1-.2,0,.21.21,0,0,1-.11-.21v-2h.49V1.32h-.49V.47H93.9v.85h-.41v.42h.41Z"/><path d="M65.57,31a1.19,1.19,0,0,0-.54.12,1.31,1.31,0,0,0-.46.38V31.1h-.48v3h.51V32.55a1.86,1.86,0,0,1,0-.46.71.71,0,0,1,.16-.31.74.74,0,0,1,.37-.25.87.87,0,0,1,.3,0,.5.5,0,0,1,.5.28,1.17,1.17,0,0,1,.08.45v1.92h.52v-2a1.68,1.68,0,0,0-.12-.71A.9.9,0,0,0,65.57,31Z"/><path d="M87.51,32.39l-.34-.09a1.09,1.09,0,0,1-.35-.12.37.37,0,0,1-.2-.32.33.33,0,0,1,.16-.29.71.71,0,0,1,.45-.11.82.82,0,0,1,.62.2A.53.53,0,0,1,88,32h.48a.84.84,0,0,0-.19-.55,1.17,1.17,0,0,0-1-.4,1.31,1.31,0,0,0-.85.26.89.89,0,0,0-.32.7.64.64,0,0,0,.34.58,2.13,2.13,0,0,0,.58.22l.42.1a1.87,1.87,0,0,1,.44.14.33.33,0,0,1,.18.3.43.43,0,0,1-.22.39,1.07,1.07,0,0,1-.51.12.82.82,0,0,1-.69-.25.69.69,0,0,1-.13-.39H86a1.13,1.13,0,0,0,.3.76,1.3,1.3,0,0,0,1,.31,1.37,1.37,0,0,0,1-.29,1,1,0,0,0,.31-.71.72.72,0,0,0-.29-.62A3,3,0,0,0,87.51,32.39Z"/><polygon points="81.39 31.1 80.73 31.1 79.42 32.39 79.42 29.96 78.93 29.96 78.93 34.15 79.42 34.15 79.42 33 79.84 32.59 80.8 34.15 81.46 34.15 80.22 32.23 81.39 31.1"/><path d="M85,32.11a1.42,1.42,0,0,0-.21-.54,1.12,1.12,0,0,0-.46-.39,1.38,1.38,0,0,0-.62-.15,1.3,1.3,0,0,0-1,.46,1.76,1.76,0,0,0-.39,1.19,1.63,1.63,0,0,0,.39,1.16,1.28,1.28,0,0,0,1,.41,1.73,1.73,0,0,0,.41,0,1.3,1.3,0,0,0,.58-.31,1.58,1.58,0,0,0,.25-.34,1,1,0,0,0,.13-.37h-.5a1,1,0,0,1-.19.36.84.84,0,0,1-.64.26.73.73,0,0,1-.63-.28,1.31,1.31,0,0,1-.21-.75H85A3.69,3.69,0,0,0,85,32.11Zm-2.16.27a1,1,0,0,1,.25-.65.76.76,0,0,1,.58-.25.73.73,0,0,1,.7.37,1.39,1.39,0,0,1,.15.53Z"/><polygon points="92.12 31.1 91.47 31.1 90.15 32.39 90.15 29.96 89.66 29.96 89.66 34.15 90.15 34.15 90.15 33 90.57 32.59 91.53 34.15 92.19 34.15 90.95 32.23 92.12 31.1"/><path d="M95,32.59a2,2,0,0,1-.1.71.69.69,0,0,1-.71.47.49.49,0,0,1-.49-.27.82.82,0,0,1-.08-.38v-2h-.52v2.07a1.22,1.22,0,0,0,.13.62.89.89,0,0,0,.87.44,1.08,1.08,0,0,0,.7-.24,1.37,1.37,0,0,0,.24-.29v.44h.49v-3H95Z"/><path d="M54.64,30l-1.57,4.18h.58l.45-1.25h1.64l.44,1.25h.62L55.28,30Zm-.37,2.47.67-1.85.64,1.85Z"/><path d="M62.84,32.11a1.42,1.42,0,0,0-.21-.54,1.06,1.06,0,0,0-.46-.39,1.38,1.38,0,0,0-.62-.15,1.3,1.3,0,0,0-1,.46,1.76,1.76,0,0,0-.39,1.19,1.63,1.63,0,0,0,.39,1.16,1.28,1.28,0,0,0,1,.41,1.73,1.73,0,0,0,.41,0,1.3,1.3,0,0,0,.58-.31,1.58,1.58,0,0,0,.25-.34,1,1,0,0,0,.13-.37h-.5a1,1,0,0,1-.19.36.84.84,0,0,1-.64.26.73.73,0,0,1-.63-.28,1.39,1.39,0,0,1-.21-.75h2.21A3.69,3.69,0,0,0,62.84,32.11Zm-2.16.27a1,1,0,0,1,.25-.65.76.76,0,0,1,.59-.25.73.73,0,0,1,.69.37,1.23,1.23,0,0,1,.15.53Z"/><path d="M98.24,32.39l-.34-.09a.94.94,0,0,1-.34-.12.35.35,0,0,1-.2-.32.34.34,0,0,1,.15-.29.71.71,0,0,1,.45-.11.81.81,0,0,1,.62.2.53.53,0,0,1,.13.31h.48a.83.83,0,0,0-.18-.55,1.2,1.2,0,0,0-1-.4,1.31,1.31,0,0,0-.85.26.89.89,0,0,0-.32.7.66.66,0,0,0,.34.58,2.28,2.28,0,0,0,.58.22l.42.1a1.87,1.87,0,0,1,.44.14.33.33,0,0,1,.18.3.41.41,0,0,1-.22.39,1.07,1.07,0,0,1-.51.12.82.82,0,0,1-.69-.25.78.78,0,0,1-.13-.39h-.49a1.09,1.09,0,0,0,.31.76,1.25,1.25,0,0,0,1,.31A1.35,1.35,0,0,0,99,34a1,1,0,0,0,.32-.71.7.7,0,0,0-.3-.62A3,3,0,0,0,98.24,32.39Z"/><path d="M59.13,31a.76.76,0,0,0-.54.22,1.13,1.13,0,0,0-.29.37V31.1h-.49v3h.51V32.39a.86.86,0,0,1,.21-.57.73.73,0,0,1,.6-.25h.16V31h-.16Z"/><path d="M76.78,32.39l-.35-.09a1,1,0,0,1-.34-.12.37.37,0,0,1-.2-.32.34.34,0,0,1,.15-.29.75.75,0,0,1,.45-.11.83.83,0,0,1,.63.2.61.61,0,0,1,.13.31h.48a.9.9,0,0,0-.19-.55,1.17,1.17,0,0,0-1-.4,1.31,1.31,0,0,0-.85.26.89.89,0,0,0-.32.7.64.64,0,0,0,.34.58,2.13,2.13,0,0,0,.58.22l.41.1a2,2,0,0,1,.45.14.33.33,0,0,1,.18.3.42.42,0,0,1-.23.39,1,1,0,0,1-.51.12.81.81,0,0,1-.68-.25.69.69,0,0,1-.13-.39h-.49a1.13,1.13,0,0,0,.3.76,1.28,1.28,0,0,0,1,.31,1.38,1.38,0,0,0,1-.29,1,1,0,0,0,.31-.71.7.7,0,0,0-.3-.62A2.85,2.85,0,0,0,76.78,32.39Z"/><path d="M69.87,31.49a1.67,1.67,0,0,0-.31-.3A1.08,1.08,0,0,0,69,31a1.13,1.13,0,0,0-1,.49,2,2,0,0,0-.33,1.15A1.65,1.65,0,0,0,68,33.82a1.11,1.11,0,0,0,.88.43,1.2,1.2,0,0,0,.55-.12,1.12,1.12,0,0,0,.43-.41v.42h.46V30h-.49Zm-.21,2a.71.71,0,0,1-.58.31.73.73,0,0,1-.67-.33,1.61,1.61,0,0,1-.2-.82,1.33,1.33,0,0,1,.24-.87.75.75,0,0,1,.62-.3.72.72,0,0,1,.58.28,1.27,1.27,0,0,1,.24.85A1.46,1.46,0,0,1,69.66,33.5Z"/><path d="M73.57,32.59a2,2,0,0,1-.1.71.7.7,0,0,1-.71.47.51.51,0,0,1-.5-.27.83.83,0,0,1-.07-.38v-2h-.52v2.07a1.34,1.34,0,0,0,.12.62.91.91,0,0,0,.87.44,1,1,0,0,0,.7-.24,1,1,0,0,0,.24-.29v.44h.48v-3h-.51Z"/><rect x="124.26" y="22.68" width="0.52" height="0.58"/><path d="M113.07,25.31a1.86,1.86,0,0,1-.11.7.7.7,0,0,1-.71.48.5.5,0,0,1-.49-.27.88.88,0,0,1-.07-.39v-2h-.53v2.07a1.28,1.28,0,0,0,.13.63.88.88,0,0,0,.87.43,1.06,1.06,0,0,0,.7-.24,1.16,1.16,0,0,0,.24-.29v.45h.49V23.81h-.51Z"/><path d="M84.25,26.42a1.07,1.07,0,0,1-.51.12.85.85,0,0,1-.69-.24.76.76,0,0,1-.13-.4h-.49a1.15,1.15,0,0,0,.3.77,1.68,1.68,0,0,0,1.93,0A.93.93,0,0,0,85,26a.7.7,0,0,0-.29-.62,2.87,2.87,0,0,0-.76-.26L83.58,25a1.36,1.36,0,0,1-.35-.13.36.36,0,0,1-.2-.31.34.34,0,0,1,.16-.3.78.78,0,0,1,.45-.11.82.82,0,0,1,.62.2.56.56,0,0,1,.13.32h.48a.82.82,0,0,0-.19-.55,1.17,1.17,0,0,0-1-.41,1.26,1.26,0,0,0-.85.27.88.88,0,0,0-.32.7.63.63,0,0,0,.34.57,1.85,1.85,0,0,0,.58.22l.42.1a2.31,2.31,0,0,1,.44.15.33.33,0,0,1,.18.3A.42.42,0,0,1,84.25,26.42Z"/><path d="M81.57,26.51c-.07,0-.12,0-.14-.05a.21.21,0,0,1,0-.12V24.58a.69.69,0,0,0-.34-.64,1.7,1.7,0,0,0-.87-.2,1.45,1.45,0,0,0-.81.22.87.87,0,0,0-.37.78h.48a.76.76,0,0,1,.12-.35.66.66,0,0,1,.57-.22,1,1,0,0,1,.53.12.4.4,0,0,1,.19.38.37.37,0,0,1,0,.2.26.26,0,0,1-.23.14l-.82.11a1.21,1.21,0,0,0-.69.28.92.92,0,0,0,0,1.3.93.93,0,0,0,.69.26,1.41,1.41,0,0,0,.65-.15,1.28,1.28,0,0,0,.45-.35.84.84,0,0,0,.09.28.43.43,0,0,0,.38.18h.17a1,1,0,0,0,.18-.05V26.5h-.16Zm-.69-.79a.7.7,0,0,1-.42.68,1.25,1.25,0,0,1-.53.13.65.65,0,0,1-.38-.13.42.42,0,0,1-.16-.35.46.46,0,0,1,.23-.43,1.27,1.27,0,0,1,.42-.11l.31,0a1.5,1.5,0,0,0,.29-.06.91.91,0,0,0,.24-.1Z"/><polygon points="74.17 22.68 73.38 22.68 71.29 24.72 71.29 22.68 70.74 22.68 70.74 26.86 71.29 26.86 71.29 25.4 71.97 24.76 73.47 26.86 74.21 26.86 72.39 24.36 74.17 22.68"/><polygon points="110.24 22.68 109.44 22.68 107.35 24.72 107.35 22.68 106.8 22.68 106.8 26.86 107.35 26.86 107.35 25.4 108.03 24.76 109.53 26.86 110.27 26.86 108.45 24.36 110.24 22.68"/><path d="M88.6,26.51c-.07,0-.12,0-.14-.05a.21.21,0,0,1,0-.12V24.58a.69.69,0,0,0-.34-.64,1.7,1.7,0,0,0-.87-.2,1.45,1.45,0,0,0-.81.22.87.87,0,0,0-.37.78h.48a.76.76,0,0,1,.12-.35.66.66,0,0,1,.57-.22,1,1,0,0,1,.53.12.4.4,0,0,1,.19.38.37.37,0,0,1,0,.2.26.26,0,0,1-.23.14l-.82.11a1.21,1.21,0,0,0-.69.28.92.92,0,0,0,0,1.3.93.93,0,0,0,.69.26,1.41,1.41,0,0,0,.65-.15,1.28,1.28,0,0,0,.45-.35.84.84,0,0,0,.09.28.43.43,0,0,0,.38.18h.17l.19-.05V26.5H88.6Zm-.69-.79a.7.7,0,0,1-.42.68,1.25,1.25,0,0,1-.53.13.65.65,0,0,1-.38-.13.42.42,0,0,1-.16-.35.45.45,0,0,1,.24-.43,1.14,1.14,0,0,1,.41-.11l.31,0a1.5,1.5,0,0,0,.29-.06.91.91,0,0,0,.24-.1Z"/><path d="M77.68,26.51c-.07,0-.11,0-.13-.05a.16.16,0,0,1,0-.12V24.58a.7.7,0,0,0-.33-.64,1.7,1.7,0,0,0-.87-.2,1.5,1.5,0,0,0-.82.22.89.89,0,0,0-.36.78h.48a.76.76,0,0,1,.12-.35.66.66,0,0,1,.57-.22,1,1,0,0,1,.53.12.42.42,0,0,1,.19.38.5.5,0,0,1,0,.2.27.27,0,0,1-.24.14l-.81.11a1.27,1.27,0,0,0-.7.28.87.87,0,0,0-.26.66.84.84,0,0,0,.27.64.93.93,0,0,0,.69.26,1.41,1.41,0,0,0,.65-.15,1.5,1.5,0,0,0,.45-.35.66.66,0,0,0,.08.28.43.43,0,0,0,.39.18h.17l.18-.05V26.5h-.17ZM77,25.72a.7.7,0,0,1-.43.68,1.18,1.18,0,0,1-.52.13.6.6,0,0,1-.38-.13.43.43,0,0,1-.17-.35.45.45,0,0,1,.24-.43,1.2,1.2,0,0,1,.42-.11l.31,0,.29-.06a.91.91,0,0,0,.24-.1Z"/><path d="M95.49,24.22a1.61,1.61,0,0,0-.3-.29,1.13,1.13,0,0,0-.62-.17,1.14,1.14,0,0,0-.9.43,1.73,1.73,0,0,0-.37,1.19,1.56,1.56,0,0,0,.37,1.17,1.21,1.21,0,0,0,.86.35,1.15,1.15,0,0,0,.57-.12,1,1,0,0,0,.37-.34,2.52,2.52,0,0,1-.1.87.74.74,0,0,1-.77.41.72.72,0,0,1-.54-.17.64.64,0,0,1-.15-.31h-.52a.87.87,0,0,0,.38.69,1.41,1.41,0,0,0,.82.22,1.22,1.22,0,0,0,1.2-.62,2.13,2.13,0,0,0,.17-.92V23.84h-.47ZM95.36,26a.78.78,0,0,1-.77.5.68.68,0,0,1-.56-.27,1.25,1.25,0,0,1-.21-.78,2,2,0,0,1,.11-.71.73.73,0,0,1,.73-.51.77.77,0,0,1,.6.27,1.33,1.33,0,0,1,.23.84A1.53,1.53,0,0,1,95.36,26Z"/><path d="M103.31,24.83a1.29,1.29,0,0,0-.2-.54,1.18,1.18,0,0,0-.46-.39,1.36,1.36,0,0,0-1.66.3,1.73,1.73,0,0,0-.4,1.19,1.61,1.61,0,0,0,.39,1.16,1.26,1.26,0,0,0,1,.42,1.79,1.79,0,0,0,.42,0,1.26,1.26,0,0,0,.82-.64.91.91,0,0,0,.13-.38h-.5a.89.89,0,0,1-.19.36.8.8,0,0,1-.63.27.73.73,0,0,1-.63-.28,1.31,1.31,0,0,1-.22-.75h2.22A3.42,3.42,0,0,0,103.31,24.83Zm-2.16.26a1,1,0,0,1,.25-.65.76.76,0,0,1,.59-.25.74.74,0,0,1,.7.37,1.4,1.4,0,0,1,.14.53Z"/><path d="M98.6,25.1,98.26,25a1.36,1.36,0,0,1-.35-.13.36.36,0,0,1-.2-.31.34.34,0,0,1,.16-.3.78.78,0,0,1,.45-.11.82.82,0,0,1,.62.2.56.56,0,0,1,.13.32h.48a.82.82,0,0,0-.19-.55,1.17,1.17,0,0,0-1-.41,1.26,1.26,0,0,0-.85.27.88.88,0,0,0-.32.7.63.63,0,0,0,.34.57,1.85,1.85,0,0,0,.58.22l.42.1a2.31,2.31,0,0,1,.44.15.33.33,0,0,1,.18.3.42.42,0,0,1-.22.38,1.07,1.07,0,0,1-.51.12.85.85,0,0,1-.69-.24.76.76,0,0,1-.13-.4h-.49a1.15,1.15,0,0,0,.3.77,1.68,1.68,0,0,0,1.93,0,.93.93,0,0,0,.31-.7.7.7,0,0,0-.29-.62A2.87,2.87,0,0,0,98.6,25.1Z"/><path d="M92.37,24.83a1.3,1.3,0,0,0-.21-.54,1.12,1.12,0,0,0-.46-.39,1.27,1.27,0,0,0-.62-.16,1.33,1.33,0,0,0-1,.46,1.78,1.78,0,0,0-.39,1.19A1.61,1.61,0,0,0,90,26.55,1.26,1.26,0,0,0,91,27a1.7,1.7,0,0,0,.41,0,1.13,1.13,0,0,0,.58-.31,1.29,1.29,0,0,0,.25-.33,1.07,1.07,0,0,0,.13-.38h-.5a.89.89,0,0,1-.19.36.81.81,0,0,1-.64.27.76.76,0,0,1-.63-.28,1.39,1.39,0,0,1-.21-.75h2.21A3.62,3.62,0,0,0,92.37,24.83Zm-2.16.26a1,1,0,0,1,.25-.65.76.76,0,0,1,.59-.25.73.73,0,0,1,.69.37,1.23,1.23,0,0,1,.15.53Z"/><rect x="66.65" y="22.68" width="0.52" height="0.58"/><path d="M122.71,23h-.52v.85h-.41v.42h.41v2a.77.77,0,0,0,.13.47.52.52,0,0,0,.48.19H123l.18,0v-.41H123a.41.41,0,0,1-.19,0c-.08,0-.11-.1-.11-.21v-2h.48v-.42h-.48Z"/><rect x="124.26" y="23.83" width="0.52" height="3.03"/><polygon points="56.13 23.19 56.13 22.68 53.1 22.68 53.1 26.86 56.17 26.86 56.17 26.36 53.65 26.36 53.65 24.94 55.94 24.94 55.94 24.46 53.65 24.46 53.65 23.19 56.13 23.19"/><path d="M65.58,24.23v-.42h-.49V23h-.51v.85h-.42v.42h.42v2a.84.84,0,0,0,.12.47.55.55,0,0,0,.49.19h.21l.18,0v-.41H65.4a.49.49,0,0,1-.2,0,.21.21,0,0,1-.11-.21v-2Z"/><path d="M120,25.1l-.34-.08a1.15,1.15,0,0,1-.34-.13.34.34,0,0,1-.2-.31.36.36,0,0,1,.15-.3.78.78,0,0,1,.45-.11.81.81,0,0,1,.62.2.56.56,0,0,1,.13.32h.48a.86.86,0,0,0-.18-.55,1.21,1.21,0,0,0-1-.41,1.26,1.26,0,0,0-.85.27.88.88,0,0,0-.32.7.64.64,0,0,0,.34.57,2,2,0,0,0,.58.22l.42.1a2.31,2.31,0,0,1,.44.15.33.33,0,0,1,.18.3.4.4,0,0,1-.22.38,1.07,1.07,0,0,1-.51.12.85.85,0,0,1-.69-.24.86.86,0,0,1-.13-.4h-.49a1.11,1.11,0,0,0,.31.77,1.29,1.29,0,0,0,1,.31,1.32,1.32,0,0,0,1-.3A.94.94,0,0,0,121,26a.69.69,0,0,0-.3-.62A2.87,2.87,0,0,0,120,25.1Z"/><path d="M62.4,25.1,62.06,25a1.23,1.23,0,0,1-.35-.13.36.36,0,0,1-.05-.61.84.84,0,0,1,.46-.11.82.82,0,0,1,.62.2.56.56,0,0,1,.13.32h.48a.88.88,0,0,0-.19-.55,1.17,1.17,0,0,0-1-.41,1.26,1.26,0,0,0-.85.27.88.88,0,0,0-.32.7.63.63,0,0,0,.34.57,1.85,1.85,0,0,0,.58.22l.41.1a2.5,2.5,0,0,1,.45.15A.33.33,0,0,1,63,26a.42.42,0,0,1-.22.38,1.08,1.08,0,0,1-.52.12.84.84,0,0,1-.68-.24.76.76,0,0,1-.13-.4h-.49a1.15,1.15,0,0,0,.3.77,1.32,1.32,0,0,0,1,.31,1.34,1.34,0,0,0,1-.3.93.93,0,0,0,.31-.7.69.69,0,0,0-.3-.62A2.64,2.64,0,0,0,62.4,25.1Z"/><rect x="66.65" y="23.83" width="0.52" height="3.03"/><path d="M59.9,24.83a1.29,1.29,0,0,0-.2-.54,1.18,1.18,0,0,0-.46-.39,1.28,1.28,0,0,0-.63-.16,1.31,1.31,0,0,0-1,.46,1.73,1.73,0,0,0-.4,1.19,1.57,1.57,0,0,0,.4,1.16,1.25,1.25,0,0,0,1,.42,1.73,1.73,0,0,0,.42,0,1.07,1.07,0,0,0,.57-.31,1,1,0,0,0,.25-.33,1.11,1.11,0,0,0,.14-.38H59.4a.82.82,0,0,1-.82.63.76.76,0,0,1-.63-.28,1.31,1.31,0,0,1-.22-.75H60A3.42,3.42,0,0,0,59.9,24.83Zm-2.16.26a1,1,0,0,1,.25-.65.78.78,0,0,1,.59-.25.73.73,0,0,1,.7.37,1.4,1.4,0,0,1,.14.53Z"/><path d="M116.36,23.74a1.18,1.18,0,0,0-.53.12,1.36,1.36,0,0,0-.46.38v-.43h-.49v3.05h.51v-1.6a2.52,2.52,0,0,1,0-.46.8.8,0,0,1,.17-.31.77.77,0,0,1,.37-.25,1.21,1.21,0,0,1,.3,0,.49.49,0,0,1,.49.29,1,1,0,0,1,.08.45v1.92h.53v-2a1.61,1.61,0,0,0-.13-.7A.88.88,0,0,0,116.36,23.74Z"/></svg>