<?xml version="1.0" encoding="utf-8"?>
<!-- Generator: Adobe Illustrator 24.0.1, SVG Export Plug-In . SVG Version: 6.00 Build 0)  -->
<svg version="1.2" baseProfile="tiny" id="Livello_1"
	 xmlns="http://www.w3.org/2000/svg" xmlns:xlink="http://www.w3.org/1999/xlink" x="0px" y="0px" viewBox="0 0 72.528 149.738"
	 xml:space="preserve">
<g>
	<polygon fill-rule="evenodd" points="6.323,116.908 3.374,116.908 3.374,115.525 5.438,115.525 5.438,112.723 3.374,112.723 
		3.374,111.35 6.323,111.35 6.323,108.529 0.009,108.529 0.009,119.719 6.323,119.719 	"/>
	<polygon fill-rule="evenodd" points="23.512,116.908 20.563,116.908 20.563,115.525 22.618,115.525 22.618,112.723 20.563,112.723 
		20.563,111.35 23.512,111.35 23.512,108.529 17.199,108.529 17.199,119.719 23.512,119.719 	"/>
	<path fill-rule="evenodd" d="M40.435,109.101c-0.83-0.47-1.678-0.765-2.71-0.765c-2.415,0-3.65,1.29-3.65,3.797
		c0,1.401,0.507,2.314,1.677,3.033l0.802,0.497c0.341,0.212,0.489,0.461,0.489,0.811c0,0.378-0.221,0.489-0.562,0.489
		c-0.646,0-1.07-0.249-2.323-1.217l0.028,3.309c1.142,0.59,1.751,0.839,3.041,0.839c2.452,0,3.669-1.254,3.669-3.779
		c0-0.885-0.231-1.604-0.664-2.166c-0.313-0.405-0.756-0.746-1.576-1.217c-1.051-0.599-1.208-0.746-1.208-1.198
		c0-0.35,0.249-0.571,0.59-0.571c0.691,0,1.825,0.046,2.314,1.097L40.435,109.101z"/>
	<polygon fill-rule="evenodd" points="52.813,119.719 56.177,119.719 56.177,111.488 57.873,111.488 57.873,108.529 51.117,108.529 
		51.117,111.488 52.813,111.488 	"/>
	<rect x="68.675" y="108.529" fill-rule="evenodd" width="3.364" height="11.19"/>
	<path fill-rule="evenodd" d="M3.392,123.544H0.028v11.18h3.364v-4.083c1.069,0.046,1.668,1.401,1.77,3.963v0.12h3.64v-0.129
		c-0.138-2.498-0.71-4.332-1.714-5.484c1.023-1.152,1.484-2.82,1.502-5.42v-0.147H5.152v0.129c-0.064,1.309-0.11,1.687-0.359,2.341
		c-0.286,0.756-0.83,1.254-1.401,1.263V123.544z"/>
	<path fill-rule="evenodd" d="M18.056,123.544h-3.383v6.267c0,1.429-0.497,1.742-0.857,1.742c-0.286,0-0.82-0.313-0.82-1.272v-6.737
		H9.632v4.184c0,2.811,0.166,3.917,0.811,5.18c0.599,1.189,2.24,2,3.419,2c1.226,0,2.895-0.931,3.53-2.332
		c0.221-0.525,0.388-1.078,0.498-1.659c0.129-0.801,0.166-1.262,0.166-3.216V123.544z"/>
	<polygon fill-rule="evenodd" points="19.476,134.724 22.858,134.724 22.858,131.332 22.886,131.332 24.489,134.816 27.042,134.816 
		27.042,123.544 23.669,123.544 23.669,127.277 23.632,127.277 21.89,123.544 19.476,123.544 	"/>
	<path fill-rule="evenodd" d="M34.545,124.115c-0.83-0.47-1.594-0.774-2.627-0.774c-2.415,0-3.65,1.3-3.65,3.807
		c0,1.392,0.517,2.304,1.687,3.032l0.793,0.489c0.341,0.211,0.497,0.47,0.497,0.811c0,0.377-0.23,0.488-0.571,0.488
		c-0.645,0-1.134-0.129-2.323-1.217l0.028,3.319c1.143,0.58,1.751,0.838,3.042,0.838c2.451,0,3.668-1.262,3.668-3.788
		c0-0.885-0.231-1.604-0.664-2.157c-0.313-0.405-0.746-0.755-1.576-1.216c-1.051-0.599-1.198-0.756-1.198-1.208
		c0-0.341,0.239-0.562,0.58-0.562c0.692,0,1.825,0.046,2.323,1.097L34.545,124.115z"/>
	<polygon fill-rule="evenodd" points="36.794,134.724 40.158,134.724 40.158,126.503 41.854,126.503 41.854,123.544 35.098,123.544 
		35.098,126.503 36.794,126.503 	"/>
	<polygon fill-rule="evenodd" points="42.416,134.724 45.79,134.724 45.79,131.332 45.827,131.332 47.43,134.816 49.983,134.816 
		49.983,123.544 46.601,123.544 46.601,127.277 46.573,127.277 44.831,123.544 42.416,123.544 	"/>
	<rect x="51.541" y="123.544" fill-rule="evenodd" width="3.364" height="11.18"/>
	<path fill-rule="evenodd" d="M59.855,123.544H56.49v11.18h3.365v-4.083c1.069,0.046,1.668,1.401,1.778,3.963v0.12h3.632v-0.129
		c-0.138-2.498-0.71-4.332-1.714-5.484c1.023-1.152,1.484-2.82,1.502-5.42v-0.147h-3.438v0.129
		c-0.064,1.309-0.111,1.687-0.359,2.341c-0.286,0.756-0.83,1.254-1.401,1.263V123.544z"/>
	<polygon fill-rule="evenodd" points="72.528,131.922 69.578,131.922 69.578,130.539 71.643,130.539 71.643,127.728 69.578,127.728 
		69.578,126.364 72.528,126.364 72.528,123.544 66.214,123.544 66.214,134.724 72.528,134.724 	"/>
	<polygon fill-rule="evenodd" points="0,149.738 6.323,149.738 6.323,146.927 3.364,146.927 3.364,138.549 0,138.549 	"/>
	<rect x="22.71" y="138.549" fill-rule="evenodd" width="3.356" height="11.189"/>
	<rect x="45.393" y="138.549" fill-rule="evenodd" width="3.355" height="11.189"/>
	<polygon fill-rule="evenodd" points="67.367,149.738 70.731,149.738 70.731,141.508 72.427,141.508 72.427,138.549 65.661,138.549 
		65.661,141.508 67.367,141.508 	"/>
	<path fill-rule="evenodd" d="M0.009,0h15.356v8.406c4.534,1.456,8.064,3.65,9.124,4.277c7.798,4.682,8.655,6.802,10.803,8.922
		L56.647,6.968V0h15.365v33.126H56.647v-7.198c0,0-12.249,8.811-14.636,10.313c0.884,2.867,1.631,6.047,1.576,9.872
		c-0.01,1.032,0.018,1.013,0,1.649h28.425v57.127H56.647V63.127H43.688v34.564H28.324V63.127H15.365v41.762H0.009V47.762h28.075
		v-1.677c-0.811-6.977-0.553-15.144-12.719-20.397v7.438H0.009V0z"/>
</g>
</svg>
