<?xml version="1.0" encoding="utf-8"?>
<!-- Generator: Adobe Illustrator 24.0.1, SVG Export Plug-In . SVG Version: 6.00 Build 0)  -->
<svg version="1.2" baseProfile="tiny" id="Layer_1" xmlns="http://www.w3.org/2000/svg" xmlns:xlink="http://www.w3.org/1999/xlink"
	 x="0px" y="0px" viewBox="0 0 314.523 159.778" xml:space="preserve">
<g>
	<path d="M39.021,33.077c-2.247-3.652-5.993-9.833,1.124-16.294c6.93-6.274,10.863-12.174,2.809-15.358
		c-3.465-1.405-9.364-2.528-16.294,0.468c-6.742,2.903-9.645,4.963-14.14,17.605C7.556,33.452,7.275,31.766,3.248,34.856
		c-3.09,2.435-4.495,6.555-1.873,9.271c2.716,2.716,10.769,8.522,10.769,20.883v77.631c0,0-0.187,8.896,1.498,12.642
		c1.686,3.746,4.495,4.495,6.836,4.495s6.742-0.468,8.709-4.776c1.967-4.308,1.498-13.204,1.498-13.204V65.01
		c0,0-0.094-12.923,9.645-18.916C50.164,40.1,41.268,36.729,39.021,33.077z"/>
	<path d="M220.222,99.003c-3.09-5.15-13.017-18.448-12.455-26.876c0.468-8.428,1.03-9.739,6.649-16.388
		c5.619-6.649,9.739-10.488,9.739-12.829c0-2.341,0-4.589-5.338-4.308c-5.338,0.281-14.047,8.147-19.384,14.047
		s-10.769,8.709-15.545,8.428c-4.87-0.281-10.956-4.12-11.986-19.197c-1.03-15.077-0.094-28.374-0.094-28.374
		s-0.375-8.428-7.304-8.428c-6.836,0-7.679,8.428-7.679,8.428v100.668c0,0-0.656,8.99,7.492,8.99c8.147,0,7.304-9.177,7.304-9.177
		s0-15.826,8.709-20.695c8.709-4.87,16.856-2.809,24.535,8.147s10.114,20.227,16.95,21.725c6.836,1.498,10.395,0.749,9.552-3.839
		C230.43,114.829,223.313,104.06,220.222,99.003z"/>
	<path d="M307.124,35.886c-7.585,0-6.93,6.368-6.93,7.398v48.321c0,0-0.094,10.769-7.117,18.354
		c-7.866,8.522-17.98,8.896-17.98,8.896s-12.642,1.311-19.572-8.147c-6.93-9.458-5.9-15.826-5.9-18.916V44.783
		c0,0,0.281-8.896-6.93-8.896c-7.117,0-7.117,8.428-7.117,8.428v64.334c0,0-0.562,8.241,6.742,14.609
		c7.304,6.368,16.294,4.308,18.823,4.308c6.461,0,18.823-3.652,22.194-3.652c13.578,0,19.291,3.839,24.628,1.592
		c5.338-2.247,6.555-5.525,6.555-10.488V44.221C314.522,44.314,314.71,35.886,307.124,35.886z"/>
	<path d="M97.736,24.368c0,0-27.438-1.592-42.702,15.826C39.77,57.612,42.205,81.117,44.827,94.882
		c2.622,13.766,18.729,40.454,58.996,36.053c38.207-4.12,42.889-29.873,44.762-35.21c1.779-5.338,7.398-37.551-9.926-55.157
		S97.736,24.368,97.736,24.368z M109.722,118.668c-17.605,5.338-28.842,0.749-36.896-7.492s-15.17-23.224-12.08-45.698
		c3.09-22.475,25.471-29.03,25.471-29.03c21.726-4.963,42.983,4.776,46.073,30.06C135.287,91.886,127.327,113.33,109.722,118.668z"
		/>
</g>
</svg>
