<?xml version="1.0" encoding="utf-8"?>
<!-- Generator: Adobe Illustrator 24.0.1, SVG Export Plug-In . SVG Version: 6.00 Build 0)  -->
<svg version="1.2" baseProfile="tiny" id="Layer_1" xmlns="http://www.w3.org/2000/svg" xmlns:xlink="http://www.w3.org/1999/xlink"
	 x="0px" y="0px" viewBox="0 0 210.36 44.09" xml:space="preserve">
<g>
	<g>
		<path d="M3.1,15.04l4.17,0.47L5.76,28.99l5.51,0.62l-0.41,3.68l-9.68-1.08L3.1,15.06V15.04z"/>
		<path d="M16.63,16.56l5.93,0.67l2.24,17.62l-4.46-0.5l-0.54-5.37l-3.09-0.35l-1.74,5.11l-4.12-0.46l5.77-16.72L16.63,16.56z
			 M17.63,25.38l2.01,0.23l-0.34-5.4h-0.1C19.2,20.21,17.63,25.38,17.63,25.38z"/>
		<path d="M25.9,28.71l4.02,0.03c0,0.07,0,0.22-0.02,0.4c-0.18,2.06,0.11,3.26,1.21,3.38c0.96,0.11,1.52-0.72,1.61-1.56
			c0.14-1.27-0.81-2.25-1.85-2.96l-1.5-1.04c-1.86-1.3-2.37-3.19-2.19-4.81c0.31-2.79,2.41-4.44,5.64-4.08
			c3.11,0.35,4.95,2.52,4.65,5.26l-0.04,0.34h-3.6c0-0.08-0.01-0.13,0-0.21c0.17-1.32-0.59-2.03-1.25-2.1
			c-0.73-0.08-1.35,0.3-1.43,1.01c-0.08,0.69,0.27,1.1,1.2,1.72l1.68,1.13c2.17,1.46,3.05,3.54,2.8,5.8
			c-0.35,3.11-2.61,5.17-6.05,4.78c-3.75-0.42-5.34-3.06-4.89-7.1L25.9,28.71z"/>
		<path d="M40.04,19.19l4.29,0.48l3.16,9.46l1.01-8.99l4.17,0.47l-1.92,17.15l-4.29-0.48l-3.17-9.36l-1,8.89l-4.17-0.47L40.04,19.19
			z"/>
		<path d="M57.85,21.18l5.93,0.66l2.24,17.62l-4.46-0.5l-0.54-5.37l-3.09-0.35l-1.74,5.11l-4.12-0.46l5.77-16.72L57.85,21.18z
			 M58.85,30l2.01,0.23l-0.34-5.4h-0.1C60.42,24.83,58.85,30,58.85,30z"/>
		<path d="M69.29,22.47l4.26,0.48l2.23,4.89l3.28-4.27l4.26,0.48L81.4,41.2l-4.17-0.47l1.18-10.49l-2.21,2.93l-2.01-0.23l-1.49-3.32
			l-1.17,10.46l-4.17-0.47l1.92-17.15L69.29,22.47z"/>
		<path d="M88.52,24.62l5.93,0.66l2.24,17.62l-4.46-0.5l-0.54-5.37l-3.09-0.35l-1.74,5.11l-4.12-0.46l5.77-16.72L88.52,24.62z
			 M88.49,19.75l2.94,0.33l-0.34,3.01l-2.94-0.33L88.49,19.75z M89.51,33.44l2.01,0.23l-0.34-5.4h-0.1
			C91.08,28.27,89.51,33.44,89.51,33.44z M92.63,20.22l2.94,0.33l-0.34,3.01l-2.94-0.33L92.63,20.22z"/>
		<path d="M99.47,25.85l9.43,1.06l-0.41,3.68L103.22,30l-0.24,2.13l5.02,0.56l-0.41,3.68l-5.02-0.56l-0.45,3.99l5.41,0.61
			l-0.41,3.68l-9.58-1.07l1.92-17.15L99.47,25.85z"/>
	</g>
	<g>
		<path d="M116.31,16.2h6.16c2.27,0,5.18,1.63,5.18,4.83c0,0.81-0.15,2.1-1.21,3.28c-0.99,1.13-2.54,1.68-3.97,1.68h-1.97v7.47
			h-4.19L116.31,16.2L116.31,16.2z M120.5,22.29h1.48c0.91,0,1.33-0.54,1.33-1.23c0-0.64-0.57-1.16-1.36-1.16h-1.46v2.39H120.5z"/>
		<path d="M130.26,16.2h5.97l4.19,17.26h-4.49l-1.13-5.28h-3.11l-1.16,5.28h-4.14L130.26,16.2L130.26,16.2z M132.23,24.85h2.02
			l-0.94-5.33h-0.1l-0.99,5.33H132.23z"/>
		<path d="M139.11,16.2h4.41l2.15,10.63l0.22,1.6h0.07l0.2-1.6l2.17-10.63h4.32l-4.04,17.26h-5.45l-4.04-17.26L139.11,16.2z"/>
		<path d="M154,16.2h4.19v17.26H154C154,33.46,154,16.2,154,16.2z"/>
		<path d="M160.9,16.2h4.19v13.56h5.55v3.7h-9.74C160.9,33.46,160.9,16.2,160.9,16.2z"/>
		<path d="M170.64,28.48l4.04-0.52c0.1,1.11,0.35,2.27,1.31,2.27c0.69,0,1.01-0.67,1.01-2.37V16.2h4.19v11.44
			c0,4.29-2.12,6.07-5.28,6.07s-4.96-1.75-5.28-5.23H170.64z"/>
		<path d="M182.79,24.53c0-5.82,2.69-8.63,6.51-8.63s6.51,2.81,6.51,8.63c0,6.31-2.64,9.22-6.51,9.22S182.79,30.79,182.79,24.53z
			 M191.47,24.53c0-3.33-0.86-4.68-2.17-4.68s-2.17,1.36-2.17,4.68c0,4.07,0.91,5.28,2.17,5.28S191.47,28.63,191.47,24.53z"/>
		<path d="M197.66,16.2h4.32l4.19,9.05V16.2h4.19v17.26h-4.32l-4.19-8.95v8.95h-4.19C197.66,33.46,197.66,16.2,197.66,16.2z"/>
	</g>
</g>
<path d="M94.24,6.65h-3.41v-1.5h3.29c2.87,0,4.34-1.72,4.34-4.25V0.17h-1.64v0.56c0,1.88-0.9,2.95-2.62,2.95h-3.37V0.17h-1.64v11.46
	h1.64V8.12h3.49c1.72,0,2.62,1.07,2.62,2.95v0.56h1.64v-0.72c0-2.54-1.47-4.25-4.34-4.25 M108.68,7.55V0.18h-1.63v7.2
	c0,1.88-0.9,2.95-2.62,2.95h-0.16c-1.72,0-2.62-1.06-2.62-2.95v-7.2h-1.64v7.37c0,2.53,1.39,4.25,4.34,4.25s4.34-1.72,4.34-4.25
	 M147.18,11.64h1.63V0.18h-1.63V11.64z M195.24,9.68l-5.32-9.49h-2.29v11.46h1.64V2.16l5.32,9.49h2.29V0.19h-1.63v9.49L195.24,9.68z
	 M200,10.17V6.49h9.21V5.02H200V1.67h10.19V0.2h-11.83v11.46h11.99v-1.47h-10.36L200,10.17z M184.4,3.69h-18.01V1.65h18.01
	C184.4,1.65,184.4,3.69,184.4,3.69z M186.03,0.18h-21.28v4.98h21.28V0.18z M184.4,10.16h-18.01V8.13h18.01V10.16z M186.03,6.66
	h-21.28v4.98h21.28V6.66z M163.1,11.64V0.18h-1.64v4.99h-9.29V0.18h-1.64v11.46h1.64V6.65h9.29v4.99H163.1z M119.53,11.64V0.18
	h-1.64v9.49l-5.32-9.49h-2.29v11.46h1.64V2.15l5.32,9.49H119.53z M139.01,1.66h6.33V0.19h-14.46v1.47h6.49v9.98h1.64V1.66z
	 M125.74,10.33h-0.16c-1.72,0-2.93-0.82-2.93-2.37h-1.63c0.08,2.45,1.8,3.85,4.58,3.85c2.55,0,4.16-1.25,4.16-3.26
	c0-1.87-1.14-2.91-3.12-3.31l-1.84-0.36c-0.96-0.2-1.57-0.72-1.57-1.6c0-1.02,0.95-1.78,2.37-1.78h0.17c1.39,0,2.45,0.82,2.53,2.13
	h1.64c-0.08-2.21-1.72-3.6-4.25-3.6c-2.47,0-4.09,1.47-4.09,3.28s1.06,2.85,2.9,3.22l1.83,0.37c1.21,0.25,1.8,0.79,1.8,1.72
	s-0.83,1.72-2.37,1.72 M48.66,0.03h-1.64v11.46h1.64V0.03z M8.13,11.46V1.48h6.33V0.01H0v1.47h6.49v9.98
	C6.49,11.46,8.13,11.46,8.13,11.46z M45.41,3.51H26.93V0h-1.64v4.98h20.12C45.41,4.98,45.41,3.51,45.41,3.51z M62.22,0h-2.18v9.49
	L52.4,0h-2.18v11.46h1.64V1.97l7.64,9.49h2.19V1.97l7.64,9.49h2.17V0h-1.64v9.49C69.86,9.49,62.22,0,62.22,0z M18.53,1.51l2.16,5.53
	h-4.32L18.53,1.51z M15.8,8.51h5.47l1.14,2.95h1.7L19.61,0h-2.09l-4.53,11.46h1.67l1.15-2.95H15.8z M45.4,9.99H26.92V6.48h-1.63
	v4.98h20.12V9.99H45.4z M78.37,1.51l2.16,5.53h-4.32C76.21,7.04,78.37,1.51,78.37,1.51z M75.64,8.51h5.47l1.15,2.95h1.7L79.46,0
	h-2.09l-4.53,11.46h1.67l1.14-2.95H75.64z"/>
</svg>
