<?xml version="1.0" encoding="utf-8"?>
<svg xmlns="http://www.w3.org/2000/svg" viewBox="0 0 56.2 19.07"><polygon points="16.2 11 16.2 7.56 10.79 7.56 10.79 6.38 16.2 6.38 16.2 3.78 8.65 3.78 8.65 11 16.2 11"/><path d="M19,.06H0v19H19ZM5.11,1.24V15.3H6.3V1.24H17.82V6.38h-7V7.56h7V17.89H1.18V1.24Z" style="fill-rule:evenodd"/><polygon points="24.1 5.47 24.1 1.24 24.81 1.24 24.81 3.14 26.25 1.24 27.16 1.24 25.87 2.88 27.19 5.47 26.36 5.47 25.38 3.47 24.81 4.19 24.81 5.47 24.1 5.47"/><path d="M30.8,3.39c0,1.1-.46,2.15-1.71,2.15s-1.71-1-1.71-2.15c0-1.53.7-2.22,1.71-2.22s1.71.69,1.71,2.22m-2.69,0c0,.62.2,1.5,1,1.5s1-.88,1-1.5c0-1-.4-1.51-1-1.51s-1,.48-1,1.51m.05-3.1a.55.55,0,0,1,.45-.19c.29,0,.59.15.87.15A.6.6,0,0,0,30,0h0V.62a.48.48,0,0,1-.44.2c-.29,0-.62-.13-.91-.13a.53.53,0,0,0-.45.19h-.05Z"/><path d="M32.23,5.47h-.71V1.24h1.33c.86,0,1.35.43,1.35,1.26a1.18,1.18,0,0,1-.7,1.18l1.1,1.79h-.85l-.93-1.68h-.59Zm.57-3.56h-.57V3.12h.57c.44,0,.66-.16.66-.62s-.2-.59-.66-.59"/><path d="M37.31,2.43c0-.29-.26-.58-.73-.58s-1,.47-1,1.43c0,.68.18,1.58,1,1.58a.94.94,0,0,0,.73-.29V3.89h-.81V3.23h1.53V4.84a1.79,1.79,0,0,1-1.45.7c-1.07,0-1.74-.83-1.74-2.18h0c0-1.1.42-2.18,1.73-2.18a1.29,1.29,0,0,1,1.46,1.26Z"/><polygon points="38.91 5.47 38.91 1.24 41.26 1.24 41.26 1.91 39.62 1.91 39.62 2.92 41.13 2.92 41.13 3.58 39.62 3.58 39.62 4.81 41.33 4.81 41.33 5.47 38.91 5.47"/><path d="M42.74,5.47H42V1.24h1.18l.62,2.65c0,.2.1.45.12.59h0c0-.15.07-.39.12-.59l.63-2.65H45.9V5.47h-.7V2.66a5.62,5.62,0,0,1,0-.62h0v0c0,.08-.05.29-.12.6l-.7,2.81h-.85l-.69-2.81c-.07-.31-.11-.54-.12-.64h0c0,.1,0,.33,0,.64Z"/><polygon points="24.1 11.68 24.1 7.44 24.81 7.44 24.81 9.35 26.25 7.44 27.16 7.44 25.87 9.08 27.19 11.68 26.36 11.68 25.38 9.67 24.81 10.39 24.81 11.68 24.1 11.68"/><path d="M27.51,10.07V7.44h.71v2.63c0,.73.26,1,.7,1s.69-.27.69-1V7.44h.71v2.63c0,1.16-.42,1.68-1.4,1.68s-1.41-.52-1.41-1.68"/><path d="M33.11,9.85c.08.15.16.32.2.41h0c0-.1,0-.28,0-.46V7.44H34v4.24h-.69L32,9.27c-.07-.15-.16-.33-.19-.41h0c0,.1,0,.28,0,.46v2.36h-.66V7.44h.7Z"/><path d="M36.71,8.61A.56.56,0,0,0,36.08,8c-.36,0-.59.19-.59.46,0,.84,2,.32,2,1.95a1.24,1.24,0,0,1-1.38,1.31,1.34,1.34,0,0,1-1.47-1.42h.7a.72.72,0,0,0,.77.75.6.6,0,0,0,.65-.59c0-.94-2-.48-2-1.91a1.2,1.2,0,0,1,1.35-1.21,1.17,1.17,0,0,1,1.32,1.24Z"/><polygon points="38.76 11.68 38.76 8.11 37.71 8.11 37.71 7.44 40.51 7.44 40.51 8.11 39.47 8.11 39.47 11.68 38.76 11.68"/><polygon points="41.02 7.44 41.73 7.44 41.73 9.46 41.73 11.68 41.02 11.68 41.02 7.44"/><polygon points="42.59 11.68 42.59 7.44 43.3 7.44 43.3 9.35 44.74 7.44 45.65 7.44 44.36 9.08 45.68 11.68 44.85 11.68 43.87 9.67 43.3 10.39 43.3 11.68 42.59 11.68"/><path d="M49.29,9.59c0,1.1-.46,2.16-1.71,2.16s-1.71-1.06-1.71-2.16c0-1.52.7-2.22,1.71-2.22s1.71.7,1.71,2.22m-2.69,0c0,.62.2,1.51,1,1.51s1-.89,1-1.51c0-1-.4-1.51-1-1.51s-1,.48-1,1.51"/><path d="M53.28,9.59c0,1.1-.46,2.16-1.71,2.16s-1.71-1.06-1.71-2.16c0-1.52.7-2.22,1.71-2.22s1.71.7,1.71,2.22m-2.68,0c0,.62.2,1.51,1,1.51s1-.89,1-1.51c0-1-.4-1.51-1-1.51s-1,.48-1,1.51"/><polygon points="54.02 11.68 54.02 7.44 54.73 7.44 54.73 11.02 56.2 11.02 56.2 11.68 54.02 11.68"/><path d="M24.8,17.88h-.71V13.64h1.36a1.19,1.19,0,0,1,1.34,1.29,1.22,1.22,0,0,1-1.34,1.33H24.8Zm0-3.57v1.28h.6c.44,0,.66-.19.66-.65s-.2-.63-.67-.63Z"/><path d="M29.19,17H27.74l-.26.89h-.75l1.35-4.24h.76l1.4,4.24h-.77Zm-1.25-.66h1l-.44-1.41a2.91,2.91,0,0,1-.09-.39h0c0,.16-.07.31-.09.39Z"/><polygon points="30.72 17.88 30.72 13.64 31.43 13.64 31.43 17.22 32.9 17.22 32.9 17.88 30.72 17.88"/><polygon points="33.51 17.88 33.51 13.64 34.22 13.64 34.22 17.22 35.69 17.22 35.69 17.88 33.51 17.88"/><path d="M38.39,17H37l-.27.89h-.75l1.36-4.24h.76l1.39,4.24h-.77Zm-1.25-.66h1l-.44-1.41c0-.08-.06-.23-.09-.39h0a1.89,1.89,0,0,1-.09.39Z"/><path d="M41.82,14.82a.56.56,0,0,0-.63-.59c-.37,0-.59.2-.59.47,0,.83,2,.31,2,1.94A1.25,1.25,0,0,1,41.26,18a1.36,1.36,0,0,1-1.48-1.42h.71a.72.72,0,0,0,.77.74.59.59,0,0,0,.65-.59c0-.94-2-.47-2-1.91a1.2,1.2,0,0,1,1.35-1.21,1.18,1.18,0,0,1,1.32,1.25Z"/></svg>