<?xml version="1.0" encoding="utf-8"?>
<!-- Generator: Adobe Illustrator 24.0.1, SVG Export Plug-In . SVG Version: 6.00 Build 0)  -->
<svg version="1.2" baseProfile="tiny" id="Livello_1"
	 xmlns="http://www.w3.org/2000/svg" xmlns:xlink="http://www.w3.org/1999/xlink" x="0px" y="0px" viewBox="0 0 1015.014 231.399"
	 xml:space="preserve">
<path fill="#010202" d="M69.904,46.445c35.998,0,50.158,25.079,50.158,50.858c0,25.783-18.573,50.862-51.32,50.862H36.926v58.291H0
	V46.445H69.904z M36.926,115.187h27.172c13.701,0,19.276-8.13,19.276-17.884c0-9.753-5.109-17.876-19.276-17.876H36.926V115.187z"/>
<path fill="#010202" d="M200.863,208.08c-33.209,0-62.701-17.184-62.701-52.255V95.679c0-35.067,32.513-50.854,62.701-50.854
	c30.658,0,62.709,16.949,62.709,52.016v58.984C263.571,190.896,234.54,208.08,200.863,208.08 M178.57,0
	c9.985,0,18.115,7.899,18.115,17.884c0,9.984-8.13,18.114-18.115,18.114c-9.981,0-17.88-8.13-17.88-18.114
	C160.689,7.899,168.589,0,178.57,0 M226.411,103.809c0-18.349-13.474-25.083-25.548-25.083s-25.775,6.734-25.775,25.083v45.286
	c0,18.346,13.701,25.079,25.775,25.079s25.548-6.733,25.548-25.079V103.809z M224.784,0c9.988,0,17.887,7.899,17.887,17.884
	c0,9.984-7.899,18.114-17.887,18.114c-9.985,0-18.111-8.13-18.111-18.114C206.673,7.899,214.799,0,224.784,0"/>
<polygon fill="#010202" points="321.5,111.008 385.359,111.008 385.359,143.751 321.5,143.751 321.5,206.46 284.574,206.46 
	284.574,46.445 396.278,46.445 396.278,79.423 321.5,79.423 "/>
<polygon fill="#010202" points="450.828,111.221 514.687,111.221 514.687,143.964 450.828,143.964 450.828,206.673 413.902,206.673 
	413.902,46.658 525.606,46.658 525.606,79.636 450.828,79.636 "/>
<path fill="#010202" d="M615.774,139.078c-10.835,8.947-33.205,21.901-36.504,36.504h67.594v31.09H543.235V184.06
	c0-26.849,16.249-45.924,33.443-59.112c17.191-12.958,34.62-22.612,34.62-35.097c0-7.532-5.886-13.657-18.84-13.657
	c-9.655,0-20.959,3.295-29.91,11.308l-18.137-28.03c12.72-11.304,31.798-16.722,50.873-16.722c25.2,0,52.522,11.07,52.522,47.101
	C647.806,111.99,629.67,127.539,615.774,139.078"/>
<polygon fill="#010202" points="717.299,206.777 680.606,206.777 733.555,77.424 702.668,77.424 702.668,100.416 670.622,100.416 
	670.622,46.771 772.569,46.771 772.569,75.105 "/>
<path fill="#010202" d="M871.273,217.872c-0.605-2.296-1.328-4.554-1.943-6.854c-0.595-2.234-1.406-4.385-1.583-6.746
	c-0.135-1.805,0.262-3.357,1.382-4.687c0.618-0.739,1.261-1.451,1.838-2.222c2.343-3.11,2.866-6.925,3.327-10.725
	c0.186-1.542,0.047-3.132,0.047-4.703c0-0.345,0.139-0.817-0.29-0.934c-0.318-0.088-0.508,0.267-0.7,0.543
	c-0.64,0.914-1.302,1.809-2.065,2.616c-1.858,1.968-3.677,3.981-5.506,5.985c-1.438,1.574-2.86,3.152-4.484,4.525
	c-1.432,1.21-2.804,2.543-3.794,4.244c-1.375,2.359-2.724,4.74-4.106,7.095c-1.378,2.345-2.112,4.824-2.216,7.68
	c-0.079,2.189,0.006,4.268,0.495,6.375c0.088,0.397,0.208,0.784,0.321,1.171c7.07,3.845,14.843,6.675,23.2,8.36
	c-0.628-1.727-1.249-3.454-1.839-5.198C872.626,222.237,871.859,220.097,871.273,217.872"/>
<path fill="#010202" d="M926.664,212.123c-0.523-2.371-0.836-4.788-1.186-7.169c-0.529-3.614-1.081-7.251-1.321-10.914
	c-0.252-3.857-0.911-7.676-1.05-11.544c-0.063-1.812-0.445-3.578-0.536-5.387c-0.085-1.59-0.681-2.013-1.782-1.564
	c-2.037,0.836-4.219,0.995-6.307,1.597c-0.977,0.286-2.03,0.247-2.992,0.524c-2.756,0.793-5.585,0.78-8.385,1.057
	c-2.289,0.228-4.604,0.15-6.909,0.185c-0.539,0.01-0.943,0.095-1.104,0.771c-0.618,2.638-2.286,4.57-3.847,6.542
	c-1.176,1.483-2.343,2.983-3.475,4.498c-1.769,2.362-3.355,4.883-4.944,7.394c-1.208,1.906-2.608,3.689-3.277,5.966
	c-0.302,1.028-0.447,2.075-0.7,3.1c-0.476,1.964-0.444,3.848,0.098,5.813c0.36,1.307,0.811,2.592,1.097,3.916
	c0.565,2.612,1.643,5.029,2.325,7.592c0.078,0.296,0.274,0.579,0.532,0.664c0.858,0.266,1.596,0.816,2.425,1.161
	c1.527,0.637,2.879,1.61,3.684,3.253c0.296,0.614,0.328,1.246,0.17,1.727c0.053,0.003,0.104,0.006,0.154,0.01
	c12.92,0.546,25.789-1.578,38.103-5.875c-0.054-2.784-0.123-5.562-0.231-8.343C927.143,215.431,927.02,213.736,926.664,212.123"/>
<path fill="#010202" d="M933.367,11.966C877.423,9.64,822.233,56.875,810.073,117.429c-8.4,41.968,6.02,79.262,34.227,99.03
	c-0.085-0.898-0.183-1.799-0.341-2.69c-0.507-2.843-0.435-5.794-0.498-8.708c-0.019-0.774,0.167-1.467,0.442-2.202
	c0.542-1.441,1.334-2.694,2.087-3.979c0.984-1.685,1.88-3.435,2.964-5.035c1.517-2.238,2.592-4.713,3.491-7.277
	c0.587-1.668,1-3.412,1.425-5.149c0.508-2.059,0.814-4.108,0.593-6.229c-0.208-2.007-0.328-4.027-0.618-6.027
	c0,0-1.359-6.584-1.353-15.286c-1.034,2.164-2.112,6.044-3.143,10.501c-2.138,9.27-4.049,20.967-4.844,24.584
	c-1.454,6.467-1.287,6.467-2.762,6.724c-0.618,0.094-1.161-0.693-1.47-1.994c-0.911-4.651-9.447-16.101,0.58-41.5
	c9.971-25.476,25.199-35.013,43.832-37.394c18.659-2.401,38.762,0.104,42.959-7.53c3.541-6.373,8.429-15.133,10.507-18.668
	c0.369-0.527-0.019-1.604-0.246-2.437c-2.268-7.953,1.179-19.54,2.485-19.325c1.274,0.218,8.23,10.679,8.788,9.824
	c0.284-0.453,4.128-1.005,8.054-1.005c3.815,0,7.744,0.552,8.025,1.005c0.533,0.855,7.489-9.606,8.792-9.824
	c1.277-0.215,4.682,11.372,2.447,19.325c-0.183,0.833-0.344,1.578-0.344,2.31c0,1.447,0.344,2.761,0.785,4.049
	c0.675,1.949,3.065,13.428,1.706,25.021c-1.305,11.574-6.42,17.435-6.985,18.75c-0.526,1.216-0.51,9.713-4.184,17.22
	c-0.057,0.322-0.11,0.647-0.177,0.969c-0.52,2.388-1.201,4.743-2.204,6.949c-0.479,1.05-0.741,2.185-1.227,3.22
	c-0.618,1.33-1.248,2.651-1.939,3.942c-1.365,2.547-3.033,4.824-4.809,7.03c-1.466,1.818-2.961,3.62-3.519,6.073
	c-0.079,0.348-0.199,0.758-0.429,0.985c-0.965,0.95-1.195,2.228-1.331,3.517c-0.189,1.798-0.63,3.542-1.065,5.263
	c-0.511,1.994-0.637,4.066-1.208,6.03c-0.312,1.061-0.186,2.212-0.476,3.263c-0.669,2.443-0.826,4.996-1.035,7.485
	c-0.214,2.612-0.391,5.247-0.375,7.891c31.859-18.369,57.184-51.606,64.957-90.302C1024.764,65.234,989.295,14.272,933.367,11.966"
	/>
<path fill="#010202" d="M938.024,214.807c-0.047-3.985,0.142-7.96,0.164-11.941c0.013-2.375,0.467-4.674,0.631-7.02
	c0.183-2.583,0.668-5.136,0.968-7.709c0.091-0.807,0.548-1.49,0.526-2.323c-0.034-1.07,0.341-2.081,0.599-3.067
	c0.54-2.039,0.978-4.118,1.688-6.109c0.258-0.719,0.469-1.551,0.375-2.595c-0.413,0.735-0.716,1.304-1.044,1.857
	c-0.905,1.555-1.574,3.24-2.173,4.941c-0.646,1.835-1.229,3.718-1.602,5.634c-0.46,2.371-0.722,4.791-0.993,7.198
	c-0.233,2.014-0.495,4.047-0.561,6.054c-0.126,3.871-0.416,7.725-0.618,11.59c-0.189,3.604-0.445,7.214-0.041,10.786
	c0.681-0.299,1.353-0.621,2.024-0.933c-0.192-0.879-0.334-1.773-0.366-2.704C937.564,217.204,938.037,216.017,938.024,214.807"/>
</svg>
