<?xml version="1.0" encoding="utf-8"?>
<!-- Generator: Adobe Illustrator 24.0.1, SVG Export Plug-In . SVG Version: 6.00 Build 0)  -->
<svg version="1.2" baseProfile="tiny" id="Layer_1" xmlns="http://www.w3.org/2000/svg" xmlns:xlink="http://www.w3.org/1999/xlink"
	 x="0px" y="0px" viewBox="0 0 549.596 291.601" xml:space="preserve">
<g>
	<path d="M298.801,175.771c-0.729-0.228-1.555-0.455-2.404-0.332c-0.703,0.104-1.521,0.517-2.123,0.9
		c0.115,0.551,0.408,1.194,0.321,1.718c-0.403,2.53-0.53,5.176-0.213,7.839c1.591,1.146,4.561,0.769,5.729-0.552
		c1.737-0.475,2.901-2.098,2.888-4.403C303.802,177.848,300.988,176.45,298.801,175.771z"/>
	<path d="M221.509,177c-2.726-1.345-6.31-0.511-8.233,1.145c-2.106,0.698-3.403,2.442-4.638,4.04
		c-0.215,1.362-0.751,2.33-1.195,3.487v0.143c-0.219,1.688-0.42,3.113,0.036,4.627c0.393,1.268,0.408,2.906,1.584,3.637
		c1.07,1.657,2.285,3.702,4.481,4.236c2.215,0.547,4.23,2.205,6.816,1.122c4.647-1.085,7.668-3.863,8.976-8.266
		c0.641-2.164,0.914-5.455-0.102-7.54C227.717,180.489,225.323,177.86,221.509,177z"/>
	<path d="M268.47,97.27c-0.13,0.051-0.18,0.204-0.233,0.337c-0.09,0.203,0.117,0.352,0.242,0.419
		c0.149,0.11,0.263-0.067,0.247-0.205C268.695,97.667,268.988,97.008,268.47,97.27z"/>
	<path d="M265.861,176.682c-1.76-0.342-3.108-0.999-5.358-0.655c0.004,0-0.067,0.073-0.137,0.096
		c-0.463,0.159-0.872,0.689-0.823,1.231c0.148,1.617-0.458,3.342-0.095,5.045c0.315,1.486-0.539,3.314,0.476,4.288
		c2.762,0.072,4.724,0.058,6.769-0.672c1.813-0.662,2.584-3.298,1.975-5.652C268.689,178.394,267.564,177.028,265.861,176.682z"/>
	<path d="M262.047,97.983c-0.114,0.043-0.06,0.232-0.049,0.35c0.021,0.157,0.275,0.176,0.289-0.003
		C262.304,98.163,262.221,97.919,262.047,97.983z"/>
	<path d="M236.825,124.457c-0.054,0.002-0.138,0.062-0.168,0.08c-0.158,0.189-0.32,0.447-0.285,0.713
		c0.064,0.368,0.567,0.243,0.811,0.066c0.196-0.151,0.127-0.435,0.068-0.631C237.183,124.516,236.94,124.429,236.825,124.457z"/>
	<path d="M251.919,79.636c-0.08-0.098-0.351-0.059-0.204,0.129C251.795,79.849,252.008,79.706,251.919,79.636z"/>
	<path d="M240.565,124.896c-0.045,0.016-0.159,0.143-0.18,0.181c-0.073,0.138,0.1,0.22,0.215,0.297
		c0.097,0.064,0.176-0.102,0.23-0.212C240.894,125.039,240.696,124.864,240.565,124.896z"/>
	<path d="M244.795,102.193c-0.246,0.021-0.584,0.302-0.451,0.611c0.099,0.247,0.529,0.644,0.451,1.215
		c-0.016,0.118,0.117,0.312,0.258,0.209c0.405-0.31,0.81-1.152,0.44-1.733C245.323,102.251,245.053,102.163,244.795,102.193z"/>
	<path d="M259.986,144.965c-0.138-0.043-0.254,0.059-0.183,0.221c0.045,0.073,0.103,0.145,0.197,0.115
		C260.159,145.259,260.159,145.016,259.986,144.965z"/>
	<path d="M279.26,93.916c-0.068,0.039-0.146,0.162-0.035,0.232C279.492,94.294,279.438,93.828,279.26,93.916z"/>
	<path d="M283.78,87.558c-0.026,0.005-0.065,0.055-0.065,0.067c-0.174,0.421-0.404,0.876-0.44,1.387
		c-0.024,0.227,0.055,0.664,0.229,0.56c0.582-0.312,0.793-1.036,0.631-1.831C284.105,87.621,283.947,87.435,283.78,87.558z"/>
	<path d="M280.605,85.692c-0.064,0.079-0.103,0.185-0.064,0.288c0.059,0.19,0.299,0.216,0.461,0.156
		c0.094-0.036,0.252-0.171,0.161-0.31C281.023,85.623,280.729,85.578,280.605,85.692z"/>
	<path d="M284.852,86.08c0.061-0.128-0.014-0.388-0.211-0.342c-0.174,0.053-0.051,0.206-0.051,0.31
		C284.604,86.165,284.818,86.213,284.852,86.08z"/>
	<path d="M276.111,99.97c-0.038,0.118-0.137,0.209-0.109,0.33c0.055,0.366,0.584,0.196,0.732,0.154
		C276.655,100.172,276.348,99.967,276.111,99.97z"/>
	<path d="M271.877,79.745c-0.007,0-0.102,0.066-0.121,0.082c0,0.199,0.164,0.453,0.372,0.439
		C272.211,80.026,272.083,79.8,271.877,79.745z"/>
	<path d="M269.242,96.551c-0.135,0.071-0.403,0.206-0.268,0.37c0.114,0.171,0.405,0.136,0.502-0.039
		C269.587,96.688,269.344,96.498,269.242,96.551z"/>
	<path d="M276.51,95.939c-0.103,0.052-0.205,0.205-0.088,0.268C276.557,96.264,276.551,95.984,276.51,95.939z"/>
	<path d="M182.438,168.771c0.117-0.242-0.371-0.419-0.568-0.231c-0.036,0.025-0.112,0.103-0.112,0.174
		C181.73,169.079,182.364,168.975,182.438,168.771z"/>
	<path d="M157.808,114.447c0.135,0.097,0.228-0.262,0.126-0.212C157.808,114.274,157.735,114.389,157.808,114.447z"/>
	<path d="M155.644,134.36c0.053,0.125,0.367,0.099,0.24-0.099C155.833,134.186,155.562,134.15,155.644,134.36z"/>
	<path d="M202.533,138.131c0.048-0.083,0.118-0.392-0.139-0.262c-0.039,0.014-0.173,0.072-0.216,0.098
		c-0.13,0.059-0.175,0.27-0.076,0.361C202.3,138.518,202.482,138.259,202.533,138.131z"/>
	<path d="M155.585,121.54c-0.119,0.045-0.211,0.18-0.229,0.304c-0.024,0.178,0.144,0.348,0.302,0.301
		c0.208-0.067,0.332-0.308,0.258-0.513C155.866,121.478,155.684,121.508,155.585,121.54z"/>
	<path d="M207.013,85.24c0.349-0.114,0.893-0.56,0.675-0.821c-0.267-0.313-0.726-0.563-1.115-0.778
		c-0.041,0.065-0.14,0.139-0.156,0.173c-0.053,0.361,0.091,0.731,0.156,1.127C206.606,85.077,206.779,85.309,207.013,85.24z"/>
	<path d="M132.739,185.486c-0.251-0.04-0.423,0.029-0.582,0.072c-0.419,0.141-0.281,0.803,0.088,0.661
		C132.446,186.173,133.208,185.555,132.739,185.486z"/>
	<path d="M138.04,185.165c0.198,0.128,0.353,0.343,0.509,0.272c0.264-0.126,0.078-0.457-0.067-0.567
		C138.253,184.68,137.804,185.009,138.04,185.165z"/>
	<path d="M284.846,89.995c-0.068,0.023-0.191,0.045-0.176,0.152c0.014,0.156,0.207,0.211,0.295,0.123
		C285.123,90.124,284.985,89.956,284.846,89.995z"/>
	<path d="M204.678,135.933c0.327,0.144,0.453-0.287,0.415-0.507c-0.035-0.2-0.202-0.368-0.454-0.251c0,0-0.115,0.1-0.119,0.125
		C204.438,135.519,204.438,135.823,204.678,135.933z"/>
	<path d="M213.157,154.211c0.141,0.266,0.656,0.077,0.766-0.233C213.661,153.847,212.988,153.87,213.157,154.211z"/>
	<path d="M189.131,99.184c0.024,0.041,0.227,0.068,0.184-0.068C189.284,99.037,188.929,98.993,189.131,99.184z"/>
	<path d="M197.357,118.134c-0.069,0.079-0.114,0.271,0.01,0.322c0.158,0.072,0.179-0.147,0.208-0.228
		C197.613,118.092,197.437,118.045,197.357,118.134z"/>
	<path d="M206.99,202.543c-0.179,0.299,0.322,0.49,0.453,0.219C207.548,202.517,207.105,202.347,206.99,202.543z"/>
	<path d="M187.926,94.714c-0.116,0.026-0.164,0.124-0.135,0.215c0.05,0.129,0.243,0.116,0.282,0.023
		C188.144,94.822,187.979,94.702,187.926,94.714z"/>
	<path d="M167.167,126.542c-0.042-0.362,0-0.86-0.107-1.305c-0.054-0.226-0.357-0.137-0.509-0.091c-0.016,0-0.051,0.044-0.071,0.076
		c-0.122,0.427,0.02,0.864,0.199,1.204C166.762,126.573,167.167,126.863,167.167,126.542z"/>
	<path d="M172.946,122.103c0.083-0.026,0.178-0.17,0.083-0.234C172.852,121.711,172.965,122.037,172.946,122.103z"/>
	<path d="M166.954,127.512c-0.034,0.012-0.112,0.069-0.128,0.088c-0.162,0.148-0.33,0.317-0.32,0.552
		c0.028,0.647,0.271,1.315,0.43,1.856c0.069,0.234,0.524,0.073,0.716-0.15c-0.327-0.523-0.069-1.316-0.277-1.968
		C167.325,127.717,167.167,127.418,166.954,127.512z"/>
	<path d="M172.096,118.914c-0.138-0.19-0.218-0.537-0.539-0.521c-0.292,0.03-0.479,0.33-0.474,0.548l0.062,1.465
		c0.021,0.359,0.134,0.715,0.393,0.94c0.137,0.111,0.27,0.42,0.473,0.203c0.287-0.321-0.232-0.826-0.038-1.118
		C172.2,120.076,172.471,119.429,172.096,118.914z"/>
	<path d="M279.899,100.858c-0.224,0.099-0.198,0.368-0.224,0.561c-0.039,0.131-0.01,0.417,0.189,0.299
		c0.213-0.134,0.242-0.462,0.311-0.736C280.205,100.881,280.026,100.811,279.899,100.858z"/>
	<path d="M306.905,124.459c-0.078,0.146-0.095,0.307-0.12,0.438c-0.045,0.12,0.1,0.269,0.213,0.181
		c0.125-0.107,0.125-0.312,0.083-0.503C307.078,124.537,307.028,124.237,306.905,124.459z"/>
	<path d="M311.372,86.688c-0.216,0.246,0.026,0.495,0.102,0.726c0.054,0.149,0.112,0.417,0.336,0.352
		c0-0.363,0.088-0.756-0.044-1.005C311.665,86.582,311.474,86.6,311.372,86.688z"/>
	<path d="M319.912,92.817c-0.064,0.039-0.218,0.042-0.236,0.111c-0.397,0.791-0.734,1.773-0.815,2.875
		c0.422-0.071,0.931-0.254,1.02-0.641c0.069-0.443-0.168-1.092-0.019-1.623C319.93,93.308,320.089,92.95,319.912,92.817z"/>
	<path d="M309.988,107.762c0.086,0.112,0.204-0.068,0.143-0.129C310.099,107.608,309.854,107.601,309.988,107.762z"/>
	<path d="M314.878,98.153c-0.014,0.019-0.054,0.062-0.054,0.062c-0.049,0.243,0.07,0.542,0.293,0.581
		C315.182,98.55,315.15,98.219,314.878,98.153z"/>
	<path d="M308.071,114.776c0.12-0.315-0.37-0.62-0.746-0.591c0.019,0-0.065,0.05-0.084,0.058c-0.366,0.123-0.198,0.567,0,0.704
		C307.504,115.15,307.952,115.107,308.071,114.776z"/>
	<path d="M308.66,118.796c-0.012,0-0.071,0.068-0.106,0.089c-0.483,0.278-0.775,0.794-1.004,1.344
		c0.229,0.234,0.481-0.167,0.649-0.156c0.59,0.083,0.91-0.631,0.815-1.168C308.977,118.749,308.803,118.788,308.66,118.796z"/>
	<path d="M307.952,124.864c-0.044,0.05-0.089,0.146-0.099,0.171c-0.152,0.572-0.152,1.277-0.356,1.804
		c0.342-0.221,0.683-0.459,0.94-0.752c0.252-0.265,0.158-0.771-0.118-1.052C308.229,124.938,308.071,124.719,307.952,124.864z"/>
	<path d="M312.19,95.877c-0.112,0.135-0.178,0.403,0,0.504c0.198,0.115,0.381-0.127,0.366-0.297
		C312.524,95.923,312.328,95.732,312.19,95.877z"/>
	<path d="M373.839,100.713c-0.236-0.966,0.02-2.193-0.583-2.909c0.118-0.915-0.149-1.646-0.697-2.116
		c-0.523-0.072-1.118-0.222-1.412-0.71c-0.026-0.786-0.432-1.273-0.857-1.719c-0.212-0.218-0.612-0.139-0.781,0.049
		c-0.368,0.412-0.986,0.21-1.305-0.09c-0.942-0.162-1.541-0.738-1.883-1.361l-1.463-0.484c-0.476-0.258-1.162-0.35-1.745-0.131
		c-0.549,0.205-1.133,0.092-1.541-0.102c-0.737,0.055-1.406-0.126-1.956,0.029l-1.832,0.625c-0.569,0.502-1.488,0.51-2.091,1.019
		c-0.505,0.42-0.866,1.017-1.41,1.517c-0.177,0.168-0.715-0.028-0.928,0.317c-0.658,1.041-1.184,2.344-2.261,3.119
		c-0.39,0.79-0.815,1.604-1.496,2.163c-0.079,0.631-0.153,1.328-0.383,1.874c-0.459,0.474-1.003,1.043-0.873,2.116
		c-0.481,0.512-0.702,1.521-0.831,2.205c-0.51,0.423-0.528,0.974-0.321,1.613c-0.638,0.996-0.975,2.893-0.453,4.33
		c-0.634,1.026-1.045,2.241-1.011,3.698c0.021,0.973,0.007,1.757,0.065,2.875c0.291,0.679,0.537,1.523,0.73,2.336
		c0.524,2.148,1.106,4.229,2.377,5.62c0.862,0.47,1.025,1.658,2.289,1.972c0.227,0.483,1.312,1.068,2.16,0.515
		c0.204-0.121,0.386,0.334,0.659,0.384c0.775,0.17,1.553,0.35,2.462,0.481c0.444-0.141,1.022-0.335,1.795-0.25
		c1.056-0.278,2.03-0.76,3.014-1.064c1.562-0.523,3.007-0.989,4.035-1.841c0.429-0.646,0.751-1.3,1.537-1.643
		c1.013-1.718,2.422-3.25,3.47-5.106c1.578-2.818,2.547-6.093,3.377-9.681c0.124-1.771,0.212-3.409,0.285-5.161
		C374.053,103.676,373.73,102.203,373.839,100.713z"/>
	<path d="M340.092,100.058c-0.424,0.094-0.535,0.541-0.67,0.89c-0.033,0.097-0.043,0.261,0.135,0.287
		c0.214,0.023,0.415-0.176,0.657-0.239c0.184-0.039,0.37,0.009,0.548,0.04c0.272,0.048,0.252-0.272,0.203-0.426
		C340.871,100.239,340.485,99.97,340.092,100.058z"/>
	<path d="M320.094,91.99c-0.056,0.045-0.084,0.12-0.094,0.153c0,0.076,0,0.697,0.158,0.202
		C320.178,92.269,320.271,91.882,320.094,91.99z"/>
	<path d="M286.359,95.251c-0.064,0.086-0.114,0.188-0.064,0.286c0.051,0.131,0.227,0.024,0.303-0.077
		C286.66,95.356,286.519,95.058,286.359,95.251z"/>
	<path d="M329.995,128.639c0-0.185-0.043-0.534-0.306-0.492c-0.198,0.023-0.132,0.385,0.024,0.569
		C329.787,128.827,329.995,128.792,329.995,128.639z"/>
	<path d="M334.049,104.495c-0.103,0.083,0,0.281,0.05,0.414c0.06,0.12,0.183,0.242,0.346,0.184c0.178-0.093,0.109-0.368,0-0.517
		C334.357,104.451,334.203,104.388,334.049,104.495z"/>
	<path d="M330.302,128.975c-0.188-0.116-0.224,0.108-0.233,0.183c-0.008,0.26-0.074,0.445-0.122,0.659
		c-0.035,0.109,0.079,0.314,0.231,0.264c0.253-0.119,0.307-0.426,0.387-0.66C330.629,129.215,330.445,129.07,330.302,128.975z"/>
	<path d="M273.481,0L0,144.934l275.518,146.667l274.078-146.667L273.481,0z M399.545,68.532c0.109-0.288,0.41-0.119,0.594-0.315
		v0.803c-0.084,0.065-0.184,0.069-0.261,0.065h-0.065l-0.1,0.126C399.462,69.073,399.462,68.759,399.545,68.532z M398.438,74.106
		c0.221-0.711,0.538-1.251,0.797-1.911c-0.259-0.438-0.357-1.047-0.05-1.514c0.206-0.308,0.583-0.496,0.953-0.396v6.84
		c-0.193,0.036-0.453-0.021-0.495-0.199c-0.123-0.355,0.308-0.818,0.208-1.032c-0.197-0.414-0.522-0.764-1.058-0.881
		c-0.242-0.056-0.558,0.331-0.919,0.316c-0.233-0.024-0.589-0.304-0.495-0.443C397.613,74.545,398.197,74.433,398.438,74.106z
		 M399.566,130.13c-0.237-0.493-0.564-1.224-0.331-1.979c0.191-0.609,0.255-1.496-0.05-2.004c-0.071-0.094,0.029-0.334,0.196-0.253
		c0.304,0.162,0.47,0.532,0.757,0.67v3.648C399.955,130.321,399.654,130.303,399.566,130.13z M400.139,148.293v1.454
		c-0.034-0.013-0.153-0.079-0.207-0.088c-0.307-0.093-0.543-0.411-0.521-0.743C399.436,148.551,399.812,148.335,400.139,148.293z
		 M397.488,76.376c0.041-0.077,0.238-0.294,0.302-0.333c0.269-0.148,0.613,0,0.786,0.209c0.133,0.169,0.197,0.388,0.133,0.602
		c-0.191,0.52-0.133,1.079-0.37,1.556c-0.142,0.278-0.567,0.138-0.75-0.035c-0.303-0.29-0.115-0.737-0.115-1.045
		C397.474,76.988,397.326,76.666,397.488,76.376z M398.003,80.957c0.194-0.062,0.4,0.044,0.44,0.207
		c0.108,0.38,0.282,0.768,0.216,1.106c-0.038,0.191-0.201,0.249-0.354,0.231c-0.43-0.107-0.831-0.533-0.816-1.031
		C397.494,81.209,397.763,81.022,398.003,80.957z M398.197,83.265c0.048-0.107,0.188-0.114,0.206-0.123
		c0.282-0.082,0.391,0.256,0.455,0.452c0.069,0.262,0.108,0.529,0.055,0.79c-0.01,0.148-0.254,0.203-0.303,0.092
		C398.418,84.146,397.963,83.668,398.197,83.265z M399.031,124.039c0.199,0.327,0.111,0.788-0.15,1.038
		c-0.38-0.139-0.523-0.587-0.512-0.949c0-0.078,0.033-0.171,0.103-0.219C398.659,123.778,398.913,123.851,399.031,124.039z
		 M394.788,77.193c0,0,0.13-0.121,0.17-0.182c0.219,0.123,0.227,0.452,0.172,0.681c-0.112,0.414-0.306,0.787-0.543,1.095
		c-0.128,0.173-0.564,0.094-0.503-0.048C394.286,78.289,394.765,77.913,394.788,77.193z M363.922,67.019
		c-0.068,0.15-0.227,0.229-0.389,0.256c-0.085,0-0.219-0.111-0.215-0.256H363.922z M242.723,73.311
		c0.144-0.03,0.406,0.132,0.387,0.425c-0.031,0.188-0.213,0.268-0.347,0.321c-0.208,0.104-0.345-0.128-0.366-0.277
		C242.362,73.57,242.53,73.35,242.723,73.311z M240.193,70.963c0.133-0.104,0.305,0.079,0.305,0.203
		c-0.014,0.103-0.045,0.259-0.172,0.306c-0.149,0.049-0.306-0.047-0.347-0.209C239.929,71.092,240.093,71.019,240.193,70.963z
		 M230.671,85.035c0.137-0.056,0.184,0.241,0.187,0.391c0.015,0.197-0.083,0.39-0.246,0.479c-0.144,0.09-0.292-0.078-0.338-0.227
		C230.232,85.426,230.385,85.141,230.671,85.035z M226.764,100.627c0.021-0.018,0.055-0.085,0.076-0.085
		c0.203-0.023,0.218,0.221,0.257,0.383c0.015,0.11,0,0.389-0.192,0.275C226.727,101.091,226.646,100.827,226.764,100.627z
		 M225.303,70.567c0.241-0.065,0.553,0.193,0.533,0.531c0,0.237,0.02,0.684-0.365,0.712c-0.217,0.02-0.302-0.24-0.41-0.41
		C224.898,71.11,224.962,70.674,225.303,70.567z M225.169,72.598c0.243-0.036,0.75,0.412,0.624,0.785
		c-0.135,0.319-0.381,0.909-0.732,1.369l-0.08-1.94C224.967,72.753,225.012,72.615,225.169,72.598z M205.868,69.319
		c0.422,0.098,0.764,0.531,0.772,1.028c0,0.199-0.226,0.527-0.46,0.39c-0.37-0.217-0.696-0.492-1.033-0.777
		C205.28,69.689,205.583,69.246,205.868,69.319z M204.471,69.766c0.142,0.028,0.406,0.126,0.286,0.308
		c-0.098,0.155-0.355,0.155-0.435,0c-0.034-0.028-0.068-0.113-0.079-0.153C204.155,69.725,204.366,69.731,204.471,69.766z
		 M192.487,81.221c0.021-0.054,0.174-0.209,0.218-0.235c0.174-0.059,0.342,0.026,0.416,0.179c0.123,0.273-0.115,0.506-0.323,0.652
		c-0.118,0.106-0.27-0.035-0.324-0.176C192.453,81.582,192.462,81.302,192.487,81.221z M145.42,104.565
		c0.025,0.011,0.13,0,0.199,0.056c0.203,0.141,0.291,0.509,0.51,0.743c0.345,0.389,0.884,0.076,1.215-0.057
		c0.441,0.224,0.633,0.626,0.846,0.984c0.099,0.192,0.128,0.448-0.066,0.57c-0.593,0.381-1.108,0.879-1.457,1.24
		c-0.341,0.357-0.866,0.339-1.247,0.322V104.565z M137.236,208.147c-0.846,0.6-1.936,0.512-2.334-0.201
		c-0.928-0.598-2.173-0.896-2.702-1.747c-0.184,0.148-0.462,0.575-0.751,0.325c-0.582-0.53-0.561-1.524-0.054-2.185
		c2.152-2.802,4.215-5.743,6.881-7.966c0.551-1.366-0.472-2.573-1.393-2.895c-1.435-2.1-3.011-4.233-4.609-5.933
		c-0.117-0.149,0.03-0.396-0.029-0.517v-0.06l-0.088-0.007c-0.127,0.096-0.304,0.35-0.487,0.151l-0.116,0.016
		c-0.37-0.624-0.489-2.037,0.102-2.212c1.407-0.401,2.783-1.236,3.858-2.059c0.213-0.149,0.678,0.047,0.967-0.049
		c-0.186-0.28,0-0.725,0.353-0.725c0.463,0,0.603,0.646,0.853,1.074c0.53,0.831,1.36,1.545,1.972,2.399
		c0.385,0.522,1.21,1.079,1.126,1.922c-0.343,0.038-0.6-0.257-0.918,0.052c0.685,0.283,1.091,1.132,1.825,1.477l0.073-0.03
		c1.062,2.01,2.791,3.461,3.873,5.604c0.173,0.381-0.278,1.131-0.446,1.377c-1.8,2.903-3.427,6.125-5.246,8.73
		C138.82,205.606,138.444,207.286,137.236,208.147z M159.108,195.824c-2.79,4.192-5.301,8.879-8.783,12.629
		c-0.406,0.437-1.128,0.078-1.526-0.205c-1.245-0.887-2.681-1.534-3.74-2.637c-0.355-0.345-0.077-0.921,0.205-1.284
		c1.886-2.476,4.241-4.733,5.951-7.402c0.683-1.083,0.748-2.534-0.287-3.281c-1.565-2.415-3.243-4.77-5.311-6.675
		c-0.406-0.357-0.942-1.296-0.226-1.825c1.206-0.938,2.899-1.488,3.71-2.684c0.182-0.274,0.949-0.13,1.31,0.04
		c0.029,0.007,0.036,0.079,0.036,0.091v0.07h0.083c0.043,0.244,0.353,0.244,0.448,0.416l-0.024,0.089l0.063,0.099
		c0.586,0.759,0.846,1.454,1.14,2.422c0.052,0.19,0.293,0.311,0.441,0.42h0.088h0.06h0.088l0.071-0.072
		c-0.008-0.016-0.018-0.031-0.026-0.048l0.028,0.045l-0.003,0.003c0.696,1.443,2.016,2.451,2.888,3.813
		c1.238,0.94,1.605,2.812,2.712,3.889C158.872,194.121,159.454,195.308,159.108,195.824z M191.637,200.017
		c0.018,1.818-1.122,2.958-1.851,4.244c-2.216,3.883-6.156,6.016-11.635,6.536c-2.732,0.279-5.382-0.014-7.8-0.612
		c-1.679-0.414-3.687-0.804-5.18-1.604c-0.871-0.918-2.271-1.295-3.25-2.104c-0.427-0.336-0.135-1.026,0.126-1.436
		c1.169-2.007,2.716-3.826,3.461-6.177c0.14-0.456,1.03-0.547,1.442-0.023c0.17,0.213,0.451,0.213,0.656,0.381l0.257-0.132
		c0.995,1.507,2.998,2.535,5.133,2.934c0.921,0.748,2.592,0.576,3.83,0.141c0.324-0.114,0.383,0.81,1.154,0.567
		c0.06-0.821,0.752-1.395,1.157-1.784c0.899-0.853,1.431-1.795,1.766-2.693c-0.299-3.589-3.037-4.702-6.087-5.206
		c-3.034-0.511-5.516-0.936-7.712-1.998c-0.5-1.11-1.399-1.434-2.084-2.053c-0.155-0.132-0.014-0.794,0-0.767
		c-1.685-1.638-1.812-3.945-2.045-6.715c-0.075-0.803-0.089-1.623,0.14-2.47c0.05-0.207,0.449-0.341,0.396-0.733
		c-0.303-2.58,1.193-3.901,2.218-5.335c1.038-1.428,2.428-2.589,4.071-3.483c4.448-2.422,12.797-2.264,16.988,0.184
		c0.25,0.162,0.825,0.248,1.022,0.66l0.022,0.056h0.069v-0.056c0.456-0.247,0.949,0.066,1.059,0.49c0.032,0.104,0.074,0.165,0,0.217
		l-0.064,0.071v0.068h0.169c0.175,2.615-1.113,4.042-2.189,5.696c-0.389,0.582-1.028,1.755-1.832,1.356
		c-2.283-1.157-4.867-1.98-8.242-1.451l-2.427,1.792c-0.369,1.159,0.197,2.238,0.374,3.66c1.214,1.489,3.675,1.896,5.89,2.53
		c1.556,0.445,3.072,0.725,4.546,1.251c0.167,0.08,0.336,0.27,0.427,0.445l0.014,0.084c-0.183,0.266,0.181,0.494,0.399,0.531
		l0.088,0.023l0.064-0.074l0.147-0.317c1.736,0.777,3.218,2.52,4.39,4.006c0.14,1.772,0.757,3.019,1.465,4.433
		C191.899,196.677,191.598,198.216,191.637,200.017z M191.227,140.365c-0.538-0.365-0.706-1.023-0.809-1.505
		c-0.706-0.782-1.113-1.603-1.329-2.648c-0.663-0.226-0.975-0.996-0.944-1.809c-0.841-1.024-1.405-2.331-1.821-3.73
		c-1.128-1.734-2.03-3.653-2.685-5.688c-1.052-0.738-1.473-1.862-1.828-3.188c-0.223-0.852-0.327-1.902-0.889-2.506
		c-0.16-0.145-0.402-0.136-0.526,0.015c-0.425,0.502-1.231,0.569-1.517,1.234c-0.351,0-0.525-0.416-0.805-0.405
		c-0.495,0.029-0.905,0.095-1.345,0.2c-0.424,0.47-0.836,0.969-1.394,1.447c-0.524,0.19-0.99,0.558-1.296,1.029
		c-1.009,0.264-1.724,1.406-1.413,2.545c0.158,0.641-0.138,1.191-0.327,1.664c-0.384,0.962-0.642,2.063-1.043,2.949
		c0.242,0.716-0.039,1.329-0.331,1.804l-1.264,7.225c-0.075,0.393,0.201,0.785,0.132,1.173c-0.123,0.766-0.475,1.386-0.852,2.123
		c0.239,1.815-0.803,3.101-2.243,3.588c-1.674,0.572-3.816,0.733-5.962,0.804c-0.687,0.025-1.096,0.445-1.79,0.388l-2.197-0.018
		c-0.744-0.38-1.914-0.334-2.676-0.108c-1.122-0.344-2.303-0.515-3.634-0.619c-1.251-0.922-1.765-3.631-1.022-5.513
		c-0.272-1.308,0.223-2.331,0.484-3.213c0.326-1.126,0.315-2.458,0.345-3.879c0.034-0.837,0.178-1.676,0.407-2.322
		c0.557-1.663,0.695-3.647,1.135-5.347c0.066-1.893,0.327-3.538,0.772-5.095c-0.267-0.93-0.015-1.824,0.267-2.575
		c0-0.453,0.024-0.852,0.124-1.304c0.292-0.456,0.57-1.066,0.51-1.914c0.676-2.327,1.11-4.856,1.407-7.456
		c1.087-2.603,1.544-5.732,1.947-8.913c0.497-0.85,0.194-2.04,0.102-2.977c1.027-1.904,1.68-3.889,1.837-6.488
		c0.084-1.711,0.788-2.918,1.236-4.246c0.144-2.353,0.45-4.5,1.447-5.923c0.204-0.309,0.492-0.663,0.935-0.703
		c0.204-0.019,0.827,0.04,1.004-0.019c0.431-0.147,0.872-0.341,1.361-0.388l3.178-0.158c0.642,0.211,1.087,0.173,1.635,0.116
		c1.989-0.243,4.178-0.276,6.191,0.072c0.632-0.232,1.36-0.329,2.233-0.292l2.063,0.071c0.696,0.117,1.26,0.519,1.551,1.22
		c-0.05,0.662-0.019,1.529,0.163,2.115c-0.421,0.258-0.638,0.734-0.622,1.319l-1.369,5.332c0.057,0.686,0,1.382-0.114,1.908
		c-0.218,0.965-0.489,1.825-0.732,2.943c-0.525,0.681-0.894,1.798-1.148,2.841c-0.073,0.335,0.37,0.554,0.677,0.596
		c0.223,0.052,0.397-0.117,0.443-0.311c0.064-0.308,0.32-0.604,0.701-0.623c0.623-0.041,1.096-0.416,1.402-0.769
		c0.852-0.316,1.479-0.865,1.909-1.452c0.504-0.17,0.842-0.439,1.096-0.782c0.778-1.006,1.514-2.053,2.766-2.552
		c0.366-0.599,0.899-0.983,1.404-1.177c0.597-0.437,0.805-1.021,1.057-1.386c0.924-0.519,1.601-1.134,1.849-2.157
		c0.055-0.282,0.742,0.203,0.855-0.064c0.262-0.662,0.9-1.224,1.399-1.455c1.187-1.441,2.55-2.424,3.674-3.51
		c0.133-0.648,0.73-0.805,1.176-0.947c0.37-0.511,0.861-0.868,1.41-1.136c0.63-0.299,1.343-0.585,1.901-0.973
		c0.791,0.496,1.826,0.21,2.77,0.262c1.614-0.282,3.302-0.261,5.008-0.435c1.428,0.183,2.832,0.068,4.28,0.267
		c1.044-0.093,2.026-0.236,3.208-0.214c0.573,0.349,1.305,0.058,1.74-0.193c0.183-0.109,0.614,0.525,1.038,0.451
		c0.352-0.055,0.58-0.425,0.881-0.29c1.236,0.582,2.872,0.038,3.871-0.354c0.182-0.074,0.439-0.085,0.533-0.261
		c0.113-0.21-0.003-0.462,0.311-0.646c0.362,0.63,0.782,1.329,1.341,1.744c0.44,1.454-0.361,2.509-1.28,3.236
		c-1.03-0.144-1.421,0.591-1.989,1.103c-0.88,0.799-1.883,1.498-2.906,2.167c-0.493,0.554-0.786,1.387-1.186,1.763
		c-1.137,0.552-1.875,1.283-2.744,1.856c-2.108,1.423-3.985,3.163-6.095,4.583c-0.827,0.552-1.602,1.251-2.101,1.967
		c-1.053,0.452-1.558,1.359-1.927,2.074c-1.172,0.667-2.077,1.414-2.731,2.158c-1.259,0.409-1.962,1.247-2.461,2.185
		c-0.248,0.457-0.732,0.738-1.445,0.907c-0.671,0.562-1.631,1.078-2.406,1.767c-1.038,0.935-1.255,3.216-0.311,4.57
		c0.029,0.701,0.498,1.135,0.775,1.651c0.376,0.665,0.61,1.368,0.708,2.223c0.573,0.442,0.875,1.074,1.161,1.73
		c0.382,0.877,0.712,1.864,1.053,2.823c0.528,0.446,0.722,1.143,0.999,1.837c0.424,1.022,0.815,2.066,1.684,2.689
		c0.407,0.283,0.505,0.884,0.753,1.363c1.73,2.995,3.213,6.174,4.72,9.343c0.555,1.163,1.043,2.298,1.706,3.334
		c1.473,2.361,2.808,4.815,3.921,7.557c0.545,0.846,0.86,1.916,1.018,3.125c0.114,0.938-0.351,1.515-0.795,2.079
		c-0.273-0.298-0.822-0.337-1.341-0.256c-1.927,0.267-3.688-0.229-5.507-0.176c-1.324,0.056-2.891-0.021-4.255-0.046
		c-0.431-0.008-0.689,0.344-1.019,0.562c-0.658-0.57-1.884-0.497-2.881-0.489c-1.97,0.048-4.08-0.119-5.454-1.074
		C193.206,143.929,192.107,142.216,191.227,140.365z M226.142,83.723c-0.018,0.074-0.202,0.25-0.24,0.074
		c-0.03-0.117-0.021-0.467,0-0.589c0-0.011,0.053-0.058,0.078-0.086C226.162,83.221,226.192,83.504,226.142,83.723z
		 M230.986,157.746c1.398-0.186,2.629,0.596,3.948,0.795c1.214,0.199,2.835-0.242,3.496,0.645c0.169,0.21,0.458,0.525,0.222,0.634
		c-3.093,1.411-6.024,3.258-9.566,4.102l-5.5,0.165c-3.386-1.634-7.128-2.768-11.208-3.847c-3.74-0.987-8.519-0.27-10.981,1.593
		c-0.36,0.279-1.128-0.491-1.64,0.112c-0.192,0.214-0.766-0.16-0.654-0.567c0.139-0.524-0.694-0.973-0.51-1.264
		c0.942-1.44,2.752-1.924,4.138-2.956c2.077-0.733,3.514-2.128,4.905-3.287c1.2-0.184,1.973-0.698,2.871-0.949
		c1.916,0.083,3.373-0.665,4.845,0.274c1.148,0.706,2.769,0.562,4.139,0.937c0.273,0.079,0.502,0.272,0.544,0.281
		C223.636,155.693,227.247,156.958,230.986,157.746z M222.336,154.632c0.114-0.067,0.251,0.272,0.114,0.313
		C222.316,154.993,222.144,154.737,222.336,154.632z M218.955,120.644c0.218,0.218,0.089,0.658-0.118,0.957
		c-0.094-0.17-0.005-0.527-0.074-0.754c-0.005-0.01,0.04-0.037,0.04-0.065C218.803,120.707,218.777,120.472,218.955,120.644z
		 M219.421,134.186c-0.164-0.24,0.107-0.543,0.365-0.619c0.104-0.026,0.233-0.059,0.34-0.121c0.361-0.219,0.772-0.072,1,0.241
		c0.227,0.328,0.203,0.76,0.161,1.184c-0.017,0.139-0.201,0.315-0.405,0.254C220.269,134.94,219.727,134.594,219.421,134.186z
		 M241.201,191.947c-1.297,4.227-2.712,8.261-5.547,11.027c-0.942,0.91-1.478,2.087-2.628,2.738
		c-2.106,1.211-4.021,2.776-6.451,3.358l-5.252,0.987c-1.354-0.357-2.65-0.052-3.458,0.303c-0.501,0.22-1.054,0.179-1.333-0.085
		c-0.436-0.476-1.18-0.436-1.621-0.476c-7.62-0.779-12.099-4.653-15.729-9.347c-1.417-1.835-2.54-4.294-3.07-6.883
		c-0.839-3.967-1.008-9.773,0.572-13.278c0.802-1.803,1.549-3.913,3.161-5.025c2.709-4.044,7.005-6.796,12.482-8.182
		c1.839-0.46,4.617-0.559,6.383-0.087c2.659-0.435,4.944,0.131,7.011,0.546c3.77,0.756,6.511,2.596,9.043,4.555
		c0.015,0,0.036,0.083,0.057,0.098l0.105-0.055c2.145,1.824,3.962,4.149,5.088,7.191c0.059,0.216,0.552,0.82,0.538,1.401
		c-0.007,0.229,0.325,0.384,0.36,0.684C241.643,184.835,241.692,188.13,241.201,191.947z M246.476,112.231
		c-0.108,0.175-0.485-0.261-0.714-0.164c-0.187,0.06-0.172,0.246-0.097,0.339c0.163,0.216,0.582,0.329,0.539,0.507
		c-0.165,0.513-0.139,1.215-0.08,1.956c-0.666,0.291-0.789,1.452-0.384,2.119c-0.253,0.819-0.373,1.706-0.487,2.503
		c0.114,0.753-0.136,1.349-0.311,1.831c0.175,0.722,0.022,1.301-0.281,1.929c-0.045,1.161-0.406,2.227-0.81,2.959
		c0,1.458-0.218,2.517-0.535,3.499c-0.167,2.56-0.789,4.682-0.881,7.197c-0.024,0.858-0.282,1.393-0.423,2.011
		c-0.439,1.903-0.545,3.996-0.985,5.929c-0.74,1.021-2.135,1.586-3.816,1.754c-1.873,0.191-3.713,0.141-5.27-0.264
		c-0.24-0.067-0.573,0.232-0.825,0.218c-0.366-0.008-0.772-0.289-1.039-0.082c-0.251,0.203-0.706,0.339-1.127,0.16
		c-0.469,0.108-0.736,0.473-0.959,0.837c-0.207,0.32-0.176-0.373-0.212-0.449c-0.331-0.525-1.226-0.672-1.766-0.188
		c-0.502-0.317-1.388-0.312-1.644,0.044c-1.103-0.322-2.156-0.46-3.067-0.803c-0.31-0.122-0.448-0.428-0.554-0.668
		c-0.112-0.259-0.32-0.558-0.197-0.725c0.377-0.572,0.525-1.547,0.343-2.547c0.652-0.981,0.914-2.958,0.627-4.449l0.682-1.398
		c-0.113-0.802,0.113-1.484,0.268-2.086c0.19-0.693-0.042-1.428-0.213-1.932c0.157-0.542,0.597-0.869,0.662-1.327
		c0.034-0.181-0.149-0.587-0.177-0.722c-0.149,0.032-0.357,0.082-0.496-0.035c-0.103-0.096-0.103-0.305,0.011-0.39
		c0.157-0.166,0.386-0.087,0.469,0.103c0.078,0.168,0.227,0.111,0.307,0.016c0.598-0.686,0.943-1.84,0.661-3.007
		c0.193-0.95,0.491-1.821,0.559-2.75c-0.504-0.646-0.12-1.296,0.168-1.616c1.073-2.773,1.414-6.107,2.146-9.16
		c0.196-0.865,0.322-1.909,0.692-2.667c-0.276-0.978-0.143-2.069,0.217-2.638l0.757-3.72c-0.326-0.691,0.168-1.445,0.526-1.787
		l0.171-1.896l0.79-3.684c0.154-0.685,0.041-1.39-0.144-1.861c0.697-1.028,0.822-2.541,0.905-4.071
		c0.189-0.347,0.373-0.934,0.215-1.374c0.216-0.904,0.092-1.758,0.246-2.679c0.317-0.294,0.772-0.754,0.648-1.606
		c0.177-0.409,0.396-1.003,0.177-1.62c0.257-0.418,0.706-0.776,0.677-1.342c-0.134-2.027,0.263-3.984,1.018-5.1
		c0.698-0.273,1.108-0.76,1.43-1.053c1.146,0.073,2.141-0.333,3.011-0.494c0.582-0.126,1.112,0.161,1.512,0.161
		c0.212,0,0.416-0.275,0.637-0.189c0.501,0.213,1.326,0.201,1.948,0.077c0.339,0.168,0.841,0.26,1.172-0.008
		c0.02-0.021,0.114-0.069,0.143-0.073c0.489-0.238,0.911,0.136,1.261,0.341l6.936-0.25c0.36,0.104,0.889,0.259,1.286,0.595
		c0.296,0.263,0.635,0.525,0.841,0.885c0.163,0.277,0.111,0.637,0,0.919c-0.175,0.38-0.408,0.753-0.505,1.275
		c0.088,0.798-0.14,1.488-0.545,2.028c-0.312,2.116-0.582,4.288-1.394,5.939c0.258,0.71,0.356,1.831,0.074,2.609
		c-0.4,1.141-0.573,2.597-0.789,4.035l-0.556,1.547c0.149,1.12-0.285,1.925-0.528,2.776c-0.198,0.67-0.258,1.382-0.148,2.156
		c-0.123,0.529-0.549,0.94-0.603,1.507c0.351,0.625,0,1.326-0.336,1.679c0.232,0.63-0.01,1.088-0.228,1.438
		c-0.197,0.319-0.317,0.73-0.252,1.185c0.094,0.764-0.182,1.283-0.519,1.653C247.524,109.697,247.173,111.09,246.476,112.231z
		 M279.116,187.242c-1.298,3.236-3.245,6.299-6.832,7.143c-3.778,0.884-7.75,0.765-11.865,0.692c-0.83-0.013-0.83,1.179-0.869,1.972
		c-0.161,3.431-0.404,6.474-0.056,9.534c0.056,0.464-0.173,1.101-0.678,1.289l0.012,0.114l-0.262,0.287h-0.084l-0.088,0.065v0.08
		c0.014,0.285-0.318,0.516-0.618,0.516c-2.726-0.052-5.537-0.354-7.796,0.163c-0.465-0.566-0.975-0.092-1.285-0.163l-0.115-0.097
		c-0.306-0.231-0.589-0.58-0.642-1.062c-0.25-2.468,0.266-4.818,0.336-7.283c-0.409-1.529,0.356-3.48,0.098-5.159
		c-0.219-1.468,0.236-3.156-0.037-4.853c-0.344-2.098,0.495-3.965-0.014-6.02c0-3.143-0.168-6.609,0.075-9.768v-0.059
		c-0.309-2.11-0.192-4.241-0.045-6.137c0.11-1.241,1.435-1.515,2.939-1.448c6.052,0.365,12.045-0.522,18.267,0.276
		c2.297,0.301,3.993,1.445,5.488,2.724c1.038,0.863,1.789,1.938,3.264,2.335c0.256,2.399,1.41,3.43,1.42,5.707
		C279.803,181.245,279.698,184.117,279.116,187.242z M316.149,208.004c-0.403-0.011-0.59,0.35-1.052,0.527
		c-1.195,0.49-2.836,0.128-4.296,0.148c-2.23,0.024-4.681,0.303-6.575-0.693l-7.752-12.567c-0.298-0.441-1.238-1.487-1.468-0.906
		c-0.883,2.209-0.639,5.092-0.53,7.899c0.037,1.027,0.025,2.15,0.17,3.143c0.035,0.229,0.281,0.727,0.324,1.208
		c0.131,1.303-1.224,2.177-2.289,2.33c-0.967-0.311-1.932-0.372-2.867-0.087c-0.014,0.016-0.049,0.038-0.057,0.052l-0.088,0.035
		l-4.582,0.203c-0.264,0.01-0.668-0.474-0.773-0.89l-0.014-0.067h-0.066l-0.074,0.08l-0.088,0.105c-0.36,0-0.555-0.52-0.536-0.809
		c0.196-3.791,0.376-8.485,0.162-12.498c-0.206-3.839,0.034-8.196-0.046-11.768c-0.06-2.083,0.338-4.959-0.213-7.604
		c0.752-0.898,0.795-2.382,0.259-3.497c0.081-0.943-0.753-2.065-0.671-3.071c0.103-0.775,0.705-1.65,1.443-1.677
		c3.055-0.056,5.942,0.391,9.16,0.219c0.146-0.023,0.279,0.133,0.413,0.219l0.049-0.118c1.423-1.018,3.552-0.043,5.133-0.375
		c1.592,0.236,2.801,0.104,4.419,0.201c0.515,0.035,1.431,0.039,1.48,0.721c0.016,0.206,0.252,0.28,0.407,0.423h0.064l0.561,0.359
		c0.138-0.406-1.017-1.215-0.212-0.97c2.843,0.932,4.6,2.739,5.912,5.129c0.148,0.277,0.14,0.78,0.375,1.083
		c0.874,1.053,1.861,2.795,1.282,4.188c0.508,0.043,0.653,0.337,0.631,0.521c-0.059,1.342,0.067,2.521,0.047,3.835
		c-0.78,0.161-0.466,1.1-0.67,1.563c-1.29,3.003-3.248,5.635-6.519,6.749c-0.539,0.176-1.308,0.896-0.891,1.381
		c3.152,3.711,6.513,7.275,9.17,11.458C315.657,205.485,316.575,206.246,316.149,208.004z M321.572,95.771
		c-0.193,1.273-0.485,2.602-0.653,3.802c-0.05,0.47-0.426,0.666-0.449,0.781c-0.201,1.559-0.46,2.829-0.93,3.833
		c0.079,0.648,0.056,1.372,0.056,2.019l-0.965,3.319c0.23,1.07-0.272,1.932-0.737,2.573c-0.105,0.749-0.088,1.567-0.105,2.348
		c-0.702,0.678-1.097,1.808-0.824,3.037c-0.717,2.222-1.151,4.515-1.783,6.826c-0.693,1.315-0.856,3.161-1.139,4.907
		c-0.271,1.661-0.708,3.259-1.23,4.455c-0.011,0.656,0.147,1.13,0.018,1.578c-0.191,0.541-0.755,0.929-0.797,1.517
		c-0.064,0.67,0.02,1.4-0.064,1.977c-0.035,0.251-0.543,0.856-0.518,1.053c0.081,1.149-0.175,2.163-0.501,3.12
		c0,0.971-0.217,1.784-0.702,2.267c-0.263,0.241-0.831-0.019-1.004,0.38c-0.158,0.366-0.946,0.796-1.482,0.357
		c-0.262-0.219-0.613-0.232-0.931-0.122l-1.339,0.498l-3.025-0.404c-0.846,0.18-1.868,0.058-2.6,0.363
		c-0.199,0.079-0.505-0.193-0.643-0.21c-1.187-0.104-2.26-0.015-3.21,0.181c-2.14-0.164-4.196-0.431-5.671-1.425
		c-0.35-0.698-0.666-1.621-1.256-2.233c-0.146-1.974-0.961-3.506-1.549-5.263c0.082-1.004-0.574-1.792-1.174-2.301
		c-0.074-0.567-0.316-1.07-0.316-1.665c0-0.35,0.064-0.671,0.064-1.091c-0.547-0.194-1.043-0.658-0.987-1.448
		c0-0.346,0.271-0.742,0.162-0.888c-0.408-0.565-0.809-0.917-1.205-1.438c0.36-1.307-0.414-2.22-0.854-3.038
		c-0.07-0.752-0.485-1.172-0.752-1.725c-0.273-0.611,0.054-1.264,0.222-1.676c-0.348-0.875-0.77-1.526-1.156-2.182
		c-0.164-0.299,0.178-0.834,0-1.144c-0.213-0.383-0.705-0.685-0.826-1.007c0.064-1.03-0.44-1.51-0.895-1.904
		c-0.193-0.174-0.229-0.494-0.137-0.717c0.271-0.692,0.39-1.878-0.069-2.52c-0.502-0.186-1.222-0.245-1.959-0.146
		c-0.466-0.265-1.269-0.126-1.522,0.382c-0.174,0.313-0.351,0.661-0.372,1.18c-0.033,1.127-0.489,2.02-0.964,2.796
		c-0.142,0.235-0.123,0.6-0.177,0.938c-0.04,0.299,0.306,0.663,0.227,0.927c-0.187,0.608-0.173,1.307-0.213,1.794
		c-0.301,0.759-1.859-9.45-0.722,2.042c0.01,1.229-0.434,2.209-0.588,3.512c0.154,0.993-0.094,2.086-0.447,2.789
		c0.076,1.509-0.229,2.585-0.828,3.672c0.049,0.692-0.251,1.315-0.524,1.857c0.218,0.589,0.074,1.136-0.143,1.567
		c-0.144,0.325-0.229,0.735-0.208,1.108c0.093,1.719-0.158,3.241-0.851,4.27c-0.207,1.146-0.676,1.908-0.692,3.268
		c-0.618,0.402-1.221,0.874-1.958,1.112l-3.308,0.672c-0.311,0.073-0.701-0.19-0.932-0.039c-0.485,0.3-1.216,0.128-1.692-0.058
		c-0.73,0.193-1.314-0.065-1.778-0.203c-0.417,0.138-0.826,0.376-1.305,0.261c-1.276,0.289-2.631-0.008-4.113-0.035
		c-1.236,0.339-2.429-0.107-3.377-0.484c-0.85-0.336-1.577-1.325-1.206-2.644c0.584-2.071,0.825-4.399,1.547-6.303
		c-0.14-0.812,0.055-1.488,0.384-2.002c-0.019-0.868,0.199-1.693,0.546-2.285c-0.293-0.716,0.103-1.324,0.276-1.582
		c-0.094-1.682,0.296-2.914,0.563-4.035c0.152-0.588,0.152-1.165,0.358-1.714c0.111-0.299,0.67-0.384,0.686-0.737
		c0.024-0.83-0.217-1.473-0.179-2.268c0.075-1.054,0.435-1.896,0.807-2.557c0.014-1.178,0.386-2.068,0.765-2.6
		c0.125-1.287,0.336-2.359,0.762-3.421c0.015-2.476,0.81-4.333,1.369-6.288c0.119-0.435-0.019-0.786,0.177-1.08
		c0.289-0.42,0.497-0.947,0.392-1.765c0.425-0.938,0.768-2.235,0.866-3.623c0-0.3,0.379-0.463,0.371-0.787
		c-0.021-1.713,0.358-3.045,0.725-4.554c-0.108-0.861,0.281-1.499,0.426-2.236c0.222-1.228,0.722-2.248,1.103-3.181V88.46
		c0.141-0.347,0.529-0.648,0.529-1.146c0.009-1.008,0.215-1.802-0.11-2.609c0.198-0.55,0.708-0.992,0.733-1.605
		c0.052-0.956,0.419-1.544,0.483-2.553c0.317-0.541,0.573-1.275,0.677-1.94c0.549-1.103,1.873-1.526,3.095-1.3
		c1.284-0.432,3.016-0.339,4.246-0.104l3.066-0.289c0.71,0.31,1.888,0.222,2.585,0c0.819,0.213,1.65,0.141,2.282-0.069
		c1.203,0.188,2.368-0.031,3.664,0.048c0.648,0.36,1.265,0.745,1.993,1.08c0.339,0.362,0.573,0.909,0.691,1.482
		c0.381,1.957,1.142,3.515,1.779,5.161c0.172,1.321,0.594,2.441,1.143,3.525c-0.119,0.705,0.251,1.188,0.537,1.496
		c0.216,0.237,0,0.667,0.021,0.754c0.32,1.392,0.796,2.372,1.289,3.161c0.406,1.667,0.801,3.112,1.266,4.529
		c0.094,0.331-0.604,0.656-0.471,0.966c0.199,0.45,0.625,0.609,0.881,0.862c0.239,0.545,0.516,0.96,0.684,1.325
		c0.174,0.979,0.443,1.866,0.396,2.81c0.71,0.576,1.19,1.463,1.389,2.519c0.201,1.143,0.305,2.363,1.062,3.279l0.716,2.852
		c-0.018-0.018,0,0.35,0,0.478c0.271,0.136,0.495,0.351,0.715,0.585c0.236-0.064,0.35-0.332,0.463-0.552
		c0.454-0.887,0.915-1.822,1.32-2.474c0.059-0.969,0.023-1.829-0.119-2.337c0.84-2.424,1.188-5.106,2.24-7.195
		c0.123-0.218-0.377-0.366-0.366-0.636c0.049-1.034,0.312-1.927,0.608-2.722c0.174-0.467,0.406-0.996,0.455-1.599
		c0.05-0.975,0.163-2.173,0.455-3.098c0.612-1.952,0.886-4.269,1.656-6.051l0.914-4.276c-0.291-1.666-0.101-3.47,0.503-4.644
		c0.411-0.794,1.297-1.082,2.385-1.164c0.765-0.045,1.468-0.23,2.181-0.322c0.464-0.062,0.888-0.128,1.447,0.173
		c1.438-0.127,2.812,0.114,3.975,0.484c0.855-0.041,1.597-0.274,2.367-0.241l5.622,0.047c1.176,0.3,1.774,1.371,1.852,2.755
		c-0.143,0.608-0.009,1.504-0.269,1.993c-0.233,0.473-0.511,1.001-0.511,1.686c0,1.69-0.597,2.828-1.256,3.977
		c0.184,1.159-0.094,2.163-0.474,2.708c-0.103,1.611-0.589,2.703-1.103,3.78L321.572,95.771z M359.198,169.163
		c-0.793,0.844-0.212,2.798-0.811,3.893c-0.229,1.075,0.019,2.171-0.189,3.294c0.765,0.794,0.68,2.07,0.543,3.432
		c-0.184,1.664,0.091,3.414-0.173,5.171c0,0.08,0.226,0.213,0.331,0.359l-0.119,0.082c0.324,2.85,0.235,5.085,0.098,8.386
		c-0.194,3.882-1.792,6.758-3.411,9.319c-2.003,3.209-5.414,5.059-9.565,6.093c-4.066,0.395-8.69,0.772-12.563-0.427
		c-1.746-0.552-3.306-1.236-4.904-2.002c-2.166-2.131-4.465-4.076-5.456-7.468c-0.678-2.35-0.576-4.922-0.817-7.449
		c-0.046-0.581,0.215-1.098,0.005-1.651l-0.079-0.074c-0.01-4.203,0.455-7.768,0.243-11.542c-0.169-2.681,0-5.517-0.243-8.078
		c-0.149-1.562,0.602-2.453,1.642-3.21c2.504,0.63,6.305,1.339,8.996,0.413c0.361-0.123,0.799,0.357,0.819,0.733
		c0,0.065,0.04,0.252,0.04,0.311l-0.09,0.078l-0.067,0.064h-0.074h-0.057l-0.106,0.114c0.481,1.072,0.51,2.654,0.178,3.974
		c0.273-0.056,0.273,0.236,0.208,0.358l-0.081,0.077l0.102,0.007c-0.133,0.345-0.102,0.751-0.081,1.128v0.068
		c0.384,0.888,0.081,2.087-0.325,2.464c0.216,0.017,0.312,0.178,0.394,0.273l0.157,0.119c-0.157,1.371-0.559,3.008-0.166,4.533
		l-0.081,0.079h0.09c0.175,0.042,0.087,0.257,0.057,0.363l-0.057,0.081l0.012,0.072c-0.427,1.975-0.161,3.963,0.131,6.093
		c0.054,0.284,0.015,0.66-0.3,0.849v0.073c-0.095,0.336-0.095,0.604,0,0.94l0.244,0.097c-0.096,2.006-0.075,4.04,0.655,5.465
		c1.324,2.723,5.77,4.649,8.889,2.71c2.215-0.331,3.269-2.492,4.239-4.184c-0.381-1.338,0.117-3.029-0.126-4.583l-0.058-0.081
		c0.338-7.629-0.221-14.988,0.043-23.015c2.557-0.409,4.73,0.058,6.585,1.072c1.642,0.141,3.284,0.141,4.829,0.385
		C359.104,168.472,359.471,168.883,359.198,169.163z M340.258,157.779c0.341-0.119,0.67,0.239,0.649,0.658
		c-0.03,0.756-0.575,1.55-1.275,1.964c-0.213,0.123-0.455-0.078-0.5-0.302C338.934,159.082,339.471,158.048,340.258,157.779z
		 M392.652,199.813c-1.843,4.372-4.845,7.901-9.977,9.037c-4.183,0.92-9.227,0.91-12.731-0.82c-2.233-0.457-4.406-1.407-5.773-2.769
		c-0.282-0.273-0.665-0.55-0.539-0.93c0.713-2.017,1.531-3.839,3.026-5.136c0.037-1.154-0.112-2.148,1.045-2.678l4.751,2.852
		c1.767,0.665,3.919,1.141,5.919,0.771c2.12-0.393,3.601-2.019,3.757-4.341c0.108-2.076-1.532-2.823-2.798-3.505
		c-1.503-0.787-3.714-1.308-5.531-1.456c-2.944-0.241-5.309-1.801-6.828-3.69c-1.442-1.777-2.48-4.521-1.81-7.566
		c-0.384-3.921,1.238-6.936,3.284-8.861c0.205-0.208,0.37-0.581,0.647-0.729l-0.104-0.21c1.394-1.035,3.051-2.046,5.067-2.566
		c2.857-0.742,6.991-1.581,10.612-0.835c2.01,0.415,4.08,0.89,5.766,1.798c0.625,0.323,1.15,0.984,0.994,1.787
		c0.007-0.018-0.027,0.048-0.05,0.078v0.054l-2.394,5.39c-0.627,0.62-1.46,1.744-2.858,1.324c-1.604-1.268-3.998-2.837-6.81-1.774
		c-1.607,0.607-3.174,1.916-3.294,4.104c0.539,2.278,2.952,3.214,5.371,3.442c1.411,0.126,2.487,0.625,3.974,0.826l4.707,2.508
		c1.729,1.557,2.682,3.769,2.98,6.45C393.338,194.896,393.579,197.705,392.652,199.813z M396.184,117.859
		c-0.024,0.449-0.565,0.66-0.588,0.914c-0.129,1.579-0.504,2.914-1.082,3.787c0.054,0.835-0.405,1.29-0.543,1.759
		c-0.353,0.997-1.193,1.518-1.444,2.574c-0.045,0.237-0.099,0.495-0.025,0.736c0.207,0.73-0.119,1.702-0.792,1.771
		c-0.655,0.086-1.062,0.479-1.358,0.901c-0.938,1.268-1.963,2.46-2.901,3.833c0.133,0.873-0.307,1.51-0.96,1.835
		c-0.267,0.422-0.835,0.83-1.646,0.695c-0.543,0.843-1.289,1.347-1.952,2.035c-0.055,0.767-0.347,1.387-0.841,1.841l-1.079-0.642
		c-0.801-0.009-1.107,0.548-1.531,0.884c-1.099,0.436-2.339,0.768-3.228,1.346c-0.947-0.104-1.434,0.385-1.798,0.693
		c-0.697,0.082-1.093,0.391-1.47,0.739c-0.928-0.146-1.392,0.413-1.798,0.736c-0.628,0.027-1.118-0.064-1.588,0.089
		c-0.193,0.389-0.056,0.997-0.533,1.347c-0.04,0.033-0.253-0.055-0.469-0.041c-0.215-0.363-0.72-0.777-1.381-0.632
		c-1.775,0.388-3.675,0.691-5.656,0.881c-0.938-0.303-1.893,0.104-2.704,0.322c-0.673-0.546-1.75-0.771-2.684-0.512
		c-0.797,0.217-1.782,0.282-2.574,0.107c-1.171-0.259-2.579-0.145-3.692,0.006c-0.282,0.04-0.55,0.337-0.866,0.211
		c-0.91-0.369-1.952-0.604-2.822-0.845c-0.45-0.107-1.043-0.156-1.256,0.059c-0.218,0.239-0.909,0.399-1.16-0.068
		c-0.472-0.879-1.796-1.576-3.028-1.023l-3.396-2.048c-0.211-0.646-0.666-1.163-1.358-1.23c-0.458-0.258-0.86-0.501-1.424-0.754
		c-0.476-0.71-1.153-1.528-2.165-1.868c-0.936-1.24-1.938-2.366-2.942-3.317c-0.389-0.986-1.102-1.548-1.622-1.976l-1.473-3.331
		c-0.395-0.216-1.143-0.439-1.329-1.162c0.614-1.212-0.218-2.374-0.746-3.196c-0.232-0.353-0.198-0.826-0.12-1.335
		c0.146-0.91-0.171-1.671-0.567-2.093c0.162-0.49,0.011-0.903-0.049-1.279c-0.342-2.057-0.108-4.44-0.014-6.539
		c0.033-0.473,0.438-0.776,0.507-1.083c-0.488-0.932-0.697-2.215-0.316-3.314c-0.271-1.053,0.198-1.932,0.524-2.769
		c0.243-0.612,0.483-1.5,0.173-2.143c0.743-1.281,0.891-3.043,1.157-4.736c0.633-1.641,0.967-3.527,1.957-4.833
		c0.816-2.315,1.894-4.363,3.362-6.093l0.429-1.085c1.054-0.743,1.622-2.008,2.229-3.133c1.061-0.35,1.723-1.093,2.196-1.927
		c0.302-0.543,0.975-0.598,1.512-0.918c0.343-0.6,0.887-1.052,1.594-1.296c0.729-0.873,1.961-1.256,2.812-1.977
		c1.552-0.851,3.113-1.658,5.053-2.125c0.661-0.401,1.536-0.621,1.942-1.254c0.192,0.096,0.398,0.198,0.618,0.178
		c0.941-0.082,1.76-0.388,2.126-1.106c0.05-0.09,0.213-0.147,0.351-0.164c0.577,0.722,1.849,0.4,2.517,0.055
		c0.742-0.161,1.379-0.346,1.813-0.712c0.016-0.012,0.109-0.037,0.14-0.062c0.181-0.152,0.429-0.029,0.518,0.122
		c0.37,0.573,1.542,0.546,2.08,0.156c0.337-0.228,0.823,0.088,1.138-0.008c0.711-0.245,1.637,0.034,2.19,0.296
		c0.602-0.455,1.773-0.541,2.383-0.214c0.558,0.288,1.33,0.035,1.953-0.169c1.047,0.43,2.541,0.289,3.671,0.574
		c0.456-0.021,0.816-0.291,1.252-0.429l1.612,0.931c0.939,0.175,1.878,0.392,2.892,0.21l1.19,0.478
		c1.376-0.156,1.903,0.702,2.511,1.219c1.134,0.034,1.859,0.423,2.429,0.996c1.963,0.02,2.725,1.325,3.742,2.341
		c0.291,0.287,0.736,0.494,1.359,0.415c0.449,0.321,0.682,0.92,1.146,1.318c0.406,0.091,0.886-0.14,1.266,0.068
		c0.199,0.589,0.091,1.401,0.393,1.774c0.74,0.265,1.101,0.834,1.434,1.39c0.236,0.384,0.672,0.624,1.026,0.868
		c0.655,1.379,1.345,2.699,2.424,3.672c0.37,2.843,1.255,5.361,2.276,7.584c-0.304,1.195-0.003,2.502,0.457,3.213
		c-0.679,0.902-0.472,2.541,0.439,2.833c0.016,0.412-0.461,0.424-0.529,0.773c-0.094,0.432-0.302,0.987-0.134,1.42
		c0.555,0.219,1.063,0.386,1.434,0.724c-0.014,0.535-0.557,0.773-0.898,0.992c-0.44,0.269-0.44,0.789-0.381,1.434
		c0.173,1.494-0.267,2.741-0.85,3.437c0.078,1.005,0.034,1.806-0.189,2.513c0.397,0.657,0.262,1.854-0.216,2.235
		C395.908,117.012,396.204,117.55,396.184,117.859z M398.245,131.151c-0.028,0.146-0.242,0.253-0.36,0.146
		c-0.122-0.091-0.134-0.27-0.01-0.355C397.999,130.85,398.289,130.942,398.245,131.151z M409.648,203.969l-2.887,2.444
		c-0.171,0.162-0.566-0.158-0.87-0.197c-0.154,0.379-0.773,0.68-1.044,0.309c-2.775-3.96-5.378-7.929-8.49-11.68
		c0.043-2.515,1.685-3.918,2.791-5.542c1.905-2.812,3.873-5.553,5.777-8.289c0.193-0.256,0.775-0.643,1.062-0.473
		c1.008,0.578,2.112,1.256,2.938,2.15c0.17,0.185,1.047,0.025,1.238,0.533c0.205,0.49,0.596,1.023,0.183,1.514
		c-2.209,2.605-4.3,5.413-6.03,8.788c-0.318,1.753,1.067,2.617,1.759,3.771c1.158,2.022,2.226,3.904,3.993,5.153
		C410.452,202.72,410.185,203.531,409.648,203.969z M418.05,195.496c0.582,0.905,1.45,1.889,2.378,2.423
		c0.907,1.34,1.785,2.894,2.881,4.055c0.493,0.513,0.347,1.4-0.208,1.852c-1.208,0.985-2.394,2.169-3.801,2.85
		c-1.45-0.08-2.164-1.413-2.339-2.545c-2.484-2.942-4.456-6.369-7.063-9.372c0.016-2.58,1.74-4.336,3.087-5.779
		c1.492-1.608,1.935-3.765,3.327-5.364c0.848-0.96,1.538-2.099,2.18-3.223c1.718,0.062,2.703,1.124,3.83,1.767
		c0.604,0.334,1.619,0.747,1.472,1.494c-0.594,2.637-2.508,4.006-3.711,6.166C418.771,190.927,416.622,193.24,418.05,195.496z"/>
	<path d="M299.153,140.39c-0.173,0.056-0.336,0.162-0.4,0.328c-0.05,0.124-0.05,0.333,0.168,0.297
		c0.232-0.044,0.445-0.205,0.519-0.411C299.524,140.435,299.303,140.347,299.153,140.39z"/>
	<path d="M296.301,135.844c0.248-0.132,0.554-0.319,0.476-0.658c-0.06-0.222-0.292-0.497-0.45-0.431
		c-0.308,0.105-0.51,0.406-0.441,0.696C295.926,135.666,296.148,135.933,296.301,135.844z"/>
	<path d="M299.035,120.334c0.271-0.122,0.331-0.479,0.271-0.751c-0.069-0.231-0.312-0.406-0.55-0.31
		c-0.044,0.018-0.201,0.173-0.222,0.226c-0.043,0.192,0.054,0.376,0.095,0.563C298.685,120.228,298.881,120.399,299.035,120.334z"/>
	<path d="M296.44,134.118c0.113-0.135,0.098-0.354,0-0.52c-0.1-0.165-0.367-0.155-0.459-0.049c-0.096,0.131-0.114,0.307,0.025,0.487
		C296.072,134.125,296.287,134.301,296.44,134.118z"/>
	<path d="M296.34,137.23c0,0-0.068,0.07-0.107,0.094c-0.219,0.233-0.268,0.577-0.348,0.875c-0.043,0.206,0,0.522,0.203,0.552
		c0.352,0.064,0.574-0.491,0.801-0.761c0.16-0.168,0.08-0.37,0.015-0.528C296.83,137.245,296.611,137.139,296.34,137.23z"/>
	<path d="M286.598,91.813c-0.041,0.098,0.177-0.007,0.23,0.033C286.932,91.682,286.676,91.6,286.598,91.813z"/>
	<path d="M292.44,108.211c-0.038,0.017-0.213,0.061-0.296,0.167c-0.367,0.494-0.688,1.295-1.055,1.765
		c-0.16,0.193,0.224,0.195,0.32,0.193c0.68-0.121,1.103-0.578,1.49-0.997c0.124-0.162,0.286-0.429,0.033-0.712
		C292.84,108.521,292.725,108.128,292.44,108.211z"/>
	<path d="M288.773,116.502c0.055,0.082,0.225-0.049,0.133-0.145C288.742,116.23,288.747,116.46,288.773,116.502z"/>
	<path d="M290.991,123.395c-0.094,0.037-0.157,0.219,0,0.27C291.154,123.713,291.09,123.374,290.991,123.395z"/>
	<path d="M307.894,95.171c0.164,0,0.271-0.155,0.178-0.274c-0.053-0.059-0.247-0.059-0.261,0.094
		C307.786,95.078,307.854,95.171,307.894,95.171z"/>
	<path d="M306.307,125.86c-0.015,0-0.04,0.071-0.055,0.092c-0.064,0.104,0.085,0.245,0.213,0.135
		C306.539,126.03,306.435,125.846,306.307,125.86z"/>
	<path d="M299.331,120.998c-0.028,0.02-0.124,0.129-0.138,0.164c-0.021,0.286,0.242,0.59,0.484,0.574
		c0.242-0.014,0.051-0.278,0-0.413C299.644,121.162,299.496,120.959,299.331,120.998z"/>
	<path d="M305.723,111.775c-0.099,0.051-0.162,0.352,0.139,0.159C305.965,111.861,305.965,111.652,305.723,111.775z"/>
</g>
</svg>
