<?xml version="1.0" encoding="utf-8"?>
<svg xmlns="http://www.w3.org/2000/svg" viewBox="0 0 55.92 14.38"><path d="M33.56,6.62c0-.45-.41-.6-.77-.72-.52-.18-1.21-.44-1.21-1.2a1.12,1.12,0,0,1,1.21-1.14,1.82,1.82,0,0,1,1.13.34C34,4,34,4,33.93,4l-.16.26c0,.06-.11,0-.17,0a1.48,1.48,0,0,0-.75-.24c-.39,0-.71.16-.71.66s.42.52.79.66c.59.23,1.19.44,1.19,1.24S33.54,7.8,32.71,7.8a1.49,1.49,0,0,1-1.23-.52s0-.08,0-.13l.25-.23s.08,0,.14,0a1.11,1.11,0,0,0,.8.35C33.2,7.32,33.56,7.08,33.56,6.62Z"/><path d="M36.71,4.72a.65.65,0,0,0-.7-.67.67.67,0,0,0-.72.67V6.64a.71.71,0,0,0,1.42,0ZM36,7.81a1.14,1.14,0,0,1-1.28-1.15v-2a1.28,1.28,0,0,1,2.55,0v2A1.15,1.15,0,0,1,36,7.81Z"/><path d="M40,4.72a.71.71,0,0,0-1.42,0V6.64a.64.64,0,0,0,.7.68A.65.65,0,0,0,40,6.64Zm-.71,3.09a1.14,1.14,0,0,1-1.28-1.15v-2a1.28,1.28,0,0,1,2.55,0v2A1.14,1.14,0,0,1,39.33,7.81Z"/><path d="M44.78,7.77H44.4c-.06,0-.08,0-.08-.07V5.08s0,0,0,0L44,5.86l-.65,1.68a.13.13,0,0,1-.12.1H43a.11.11,0,0,1-.13-.09l-.62-1.63-.29-.82s0,0,0,0V7.69s0,.08-.07.08h-.38a.07.07,0,0,1-.08-.07v-4a.11.11,0,0,1,.12-.12h.26c.12,0,.12,0,.16.1l.9,2.41.26.74s0,0,.06,0l.25-.76.9-2.41a.15.15,0,0,1,.16-.09h.26c.09,0,.12,0,.12.12v4S44.83,7.77,44.78,7.77Z"/><path d="M47.85,7.77H45.67a.07.07,0,0,1-.08-.07v-4a.07.07,0,0,1,.08-.07h2.16a.08.08,0,0,1,.08.07V4a.07.07,0,0,1-.08.08H46.2s-.05,0-.05.05V5.3s0,.06.05.06h1.34c.06,0,.08,0,.08.08v.34a.06.06,0,0,1-.07.07H46.2s-.05,0-.05.06V7.22s0,.06.05.06h1.65s.08,0,.08.07v.34S47.91,7.77,47.85,7.77Z"/><path d="M32.31,14.34h-.42a.08.08,0,0,1-.08-.07v-4a.07.07,0,0,1,.08-.07h.42a.07.07,0,0,1,.08.07v4A.07.07,0,0,1,32.31,14.34Z"/><path d="M33.71,10.18a.19.19,0,0,1,.18.11l1.56,2.89h0V10.26s0-.08.07-.08h.38a.07.07,0,0,1,.08.07V14.2a.12.12,0,0,1-.13.13h-.25c-.1,0-.14,0-.17-.1l-1.56-2.88s0,0,0,0v2.9c0,.06,0,.08-.08.08h-.38s-.08,0-.08-.07V10.34c0-.11,0-.16.14-.16Z"/><path d="M38.64,13.19c0-.45-.41-.6-.77-.72-.52-.18-1.21-.44-1.21-1.2a1.12,1.12,0,0,1,1.21-1.14,1.84,1.84,0,0,1,1.14.34c.08.06,0,.11,0,.14l-.16.26c0,.06-.11,0-.16,0a1.51,1.51,0,0,0-.75-.24c-.39,0-.71.16-.71.66s.41.52.78.66c.6.23,1.2.44,1.2,1.24s-.59,1.18-1.41,1.18a1.49,1.49,0,0,1-1.23-.52s0-.08,0-.13l.24-.23s.09,0,.15,0a1.08,1.08,0,0,0,.79.35C38.29,13.88,38.64,13.65,38.64,13.19Z"/><path d="M42,10.67h-.88s-.06,0-.06.05v3.54c0,.05,0,.08-.07.08h-.41c-.06,0-.08,0-.08-.07V10.73a.05.05,0,0,0-.06-.06h-.86c-.06,0-.08,0-.08-.08v-.33s0-.08.08-.08h2.43a.07.07,0,0,1,.08.07v.34A.09.09,0,0,1,42,10.67Z"/><path d="M43.15,14.34h-.41a.07.07,0,0,1-.08-.07v-4s0-.08.08-.08h.41a.07.07,0,0,1,.08.07v4C43.24,14.31,43.21,14.34,43.15,14.34Z"/><path d="M46.38,10.67h-.89s-.06,0-.06.05v3.54c0,.05,0,.08-.07.08H45c-.06,0-.08,0-.08-.07V10.73a.05.05,0,0,0-.06-.06H44c-.06,0-.08,0-.08-.08v-.33s0-.08.08-.08h2.43a.07.07,0,0,1,.08.07v.34A.07.07,0,0,1,46.38,10.67Z"/><path d="M48.23,14.38A1.15,1.15,0,0,1,47,13.26v-3s0-.08.07-.08h.42a.07.07,0,0,1,.07.07v3a.72.72,0,0,0,1.43,0v-3a.07.07,0,0,1,.08-.08h.4c.06,0,.08,0,.08.07v3A1.16,1.16,0,0,1,48.23,14.38Z"/><path d="M51.56,14.38a1.15,1.15,0,0,1-1.28-1.12v-3s0-.08.07-.08h.42a.07.07,0,0,1,.07.07v3a.72.72,0,0,0,1.43,0v-3a.07.07,0,0,1,.08-.08h.41a.06.06,0,0,1,.07.07v3A1.16,1.16,0,0,1,51.56,14.38Z"/><path d="M55.83,10.67H55s-.06,0-.06.05v3.54c0,.05,0,.08-.07.08h-.41a.07.07,0,0,1-.08-.07V10.73s0-.06,0-.06h-.87s-.08,0-.08-.08v-.33a.07.07,0,0,1,.08-.08h2.43a.07.07,0,0,1,.08.07v.34C55.91,10.64,55.89,10.67,55.83,10.67Z"/><path d="M14.92,2.91V.77l-2,1.07Zm.34,0,2-1.07-2-1.07ZM26.75,12l-1,2.16h2ZM2.42,14.15h2L3.43,12Zm2.89-7,2.13-.76L6,4.86Zm17.43-.76,2.13.76-.71-2.28ZM7.68,6.13l.7-2.29-2.12.77ZM21.79,3.84l.71,2.29,1.42-1.52ZM25,10a1,1,0,0,0,.93.66,1,1,0,0,0,.37-.08,1.1,1.1,0,0,0,.55-1.41,1,1,0,0,0-.93-.66.84.84,0,0,0-.38.08A1.1,1.1,0,0,0,25,10ZM20.48,3.18A1.1,1.1,0,0,0,20,1.77a1,1,0,0,0-.39-.08,1,1,0,0,0-.92.67,1.09,1.09,0,0,0,.54,1.4.84.84,0,0,0,.38.08A1,1,0,0,0,20.48,3.18ZM5.23,10a1.11,1.11,0,0,0-.55-1.41,1,1,0,0,0-.38-.08,1,1,0,0,0-.93.67,1.1,1.1,0,0,0,.54,1.4.9.9,0,0,0,.38.08A1,1,0,0,0,5.23,10ZM11,3.76a1.1,1.1,0,0,0,.54-1.41,1,1,0,0,0-.92-.66.91.91,0,0,0-.39.08,1.08,1.08,0,0,0-.53,1.4,1,1,0,0,0,.92.67A.87.87,0,0,0,11,3.76Zm4.24,6.16,1.81-1L15.24,8Zm-.3,0V8L13.13,9Zm5.17,2.3-.91,1.94H21ZM9.17,14.17H11l-.91-1.94Zm1-2.16,1.92-.68L10.79,10Zm8-.68L20,12l-.64-2Zm-5.82-.23L12.93,9,11,9.73Zm5-2.06.64,2.06,1.28-1.37Zm-2.16,1.71H13.37a3.47,3.47,0,0,1,3.35,3.58h1.71A3.46,3.46,0,0,0,15.09,10.75Zm7.41,3.41h1.9l-1-2Zm0-4.6-.67-2.17L20.44,8.83Zm-2.25-1,1.35-1.44-2-.72ZM17.16,5.38l-1.91-1V6.4Zm-2.23-1L13,5.38l1.91,1ZM10.64,6.43l-2,.72L10,8.59Zm-.9,2.41L8.39,7.4,7.72,9.56ZM7.68,14.16l-.95-2-1,2Zm17.45.17H21.78a6.94,6.94,0,0,0-6.69-7.17,6.94,6.94,0,0,0-6.68,7.17H5.07c0-5.93,4.49-10.75,10-10.75S25.13,8.4,25.13,14.33ZM0,14.33A14.81,14.81,0,0,1,4.2,3.91,12.81,12.81,0,0,1,13.38,0h1.71C7.55,0,1.72,6.62,1.72,14.32H0Z"/></svg>