<?xml version="1.0" encoding="utf-8"?>
<!-- Generator: Adobe Illustrator 24.0.1, SVG Export Plug-In . SVG Version: 6.00 Build 0)  -->
<svg version="1.2" baseProfile="tiny" id="Livello_1"
	 xmlns="http://www.w3.org/2000/svg" xmlns:xlink="http://www.w3.org/1999/xlink" x="0px" y="0px" viewBox="0 0 175.199 42.523"
	 xml:space="preserve">
<g id="Tekstid._Tallinna_sinine">
	<path d="M70.361,10.708h-9.387v26.499h-6.288V10.708h-9.387V5.318h25.062V10.708z"/>
	<path d="M88.67,21.711v15.495h-5.255v-2.38c-1.437,1.976-3.952,3.144-7.411,3.144c-4.716,0-8.219-2.201-8.219-6.557
		c0-4.851,3.818-7.007,9.926-8.084l5.39-0.988v-0.539c0-2.201-1.617-3.503-4.312-3.503c-1.254-0.055-2.498,0.241-3.593,0.853
		c-1.279,0.833-2.468,1.796-3.548,2.874l-3.683-3.369c2.556-3.327,6.54-5.243,10.734-5.165C85.122,13.492,88.67,16.726,88.67,21.711
		z M83.101,27.865v-1.347l-3.862,0.808c-3.908,0.853-5.749,1.707-5.749,3.683c0,1.437,1.302,2.291,3.503,2.291
		C80.361,33.299,83.101,31.592,83.101,27.865L83.101,27.865z"/>
	<path d="M99.924,37.207h-5.839V5.318h5.839V37.207z"/>
	<path d="M111.444,37.207h-5.839V5.318h5.839V37.207z"/>
	<path d="M122.963,10.798h-5.839V5.318h5.839V10.798z M122.963,37.207h-5.839V14.256h5.839V37.207z"/>
	<path d="M149.214,21.487v15.72h-5.839V23.239c0-3.054-1.527-4.716-4.267-4.716c-2.509-0.052-4.584,1.94-4.636,4.449
		c-0.003,0.134,0,0.268,0.01,0.402v13.833h-5.839V14.256h5.434v2.605c1.578-2.232,4.187-3.503,6.917-3.369
		C146.205,13.492,149.214,16.681,149.214,21.487z"/>
	<path d="M175.199,21.487v15.72h-5.839V23.239c0-3.054-1.527-4.716-4.267-4.716c-2.509-0.052-4.584,1.94-4.636,4.449
		c-0.003,0.134,0,0.268,0.01,0.402v13.833h-5.839V14.256h5.435v2.605c1.578-2.232,4.187-3.503,6.917-3.369
		C172.19,13.492,175.199,16.681,175.199,21.487z"/>
</g>
<g id="Logod._Tallinna_sinine">
	<g id="Tallinna_logo-5">
		<path d="M22.548,16.686c-3.582-0.977-5.372-2.197-9.483-2.93c-4.192-0.773-8.099-0.529-13.065,0v4.964
			c5.657-0.854,13.797-2.034,20.024-0.895c5.087,0.936,5.535,2.808,10.175,3.825v-3.865C27.618,17.681,25.054,17.313,22.548,16.686z
			"/>
		<path d="M30.199,24.091c-3.541-2.441-6.838-2.563-10.216-2.523C13.187,21.69,8.059,22.545,0,23.888v3.971
			c-0.003,0.423,0.016,0.846,0.059,1.268c5.876-1.052,10.896-1.781,13.046-2.105c6.146-0.977,12.495-1.953,17.094-1.18
			L30.199,24.091z"/>
		<path d="M1.439,33.366c0.289,0.506,0.615,0.991,0.973,1.45c3.355,4.247,12.373,7.602,12.688,7.707l0,0
			c0.315-0.105,9.332-3.46,12.688-7.707c0.686-0.872,1.243-1.838,1.656-2.867c0.284-0.739,0.494-1.504,0.626-2.284
			c0.034-0.216,0.059-0.419,0.078-0.608C29.266,29.173,2.181,33.256,1.439,33.366z"/>
		<path d="M12.699,8.304C8.873,7.897,6.065,6.961,0,6.066v3.337c3.655-0.147,7.31,0.292,10.826,1.302
			c1.18,0.326,3.5,1.017,4.396,1.261c4.721,1.302,11.111,1.302,14.977,1.75V9.809C24.705,8.833,16.85,8.751,12.699,8.304z"/>
		<path d="M15.1,0.003L15.1,0.003C10.013-0.049,4.94,0.538,0,1.753v1.546l30.199,2.604v-4.15C25.26,0.538,20.187-0.049,15.1,0.003z"
			/>
	</g>
</g>
</svg>
