<?xml version="1.0" encoding="utf-8"?>
<!-- Generator: Adobe Illustrator 26.0.1, SVG Export Plug-In . SVG Version: 6.00 Build 0)  -->
<svg version="1.1" id="Layer_1" xmlns="http://www.w3.org/2000/svg" xmlns:xlink="http://www.w3.org/1999/xlink" x="0px" y="0px"
	 viewBox="0 0 99.2 99.2" style="enable-background:new 0 0 99.2 99.2;" xml:space="preserve">
<style type="text/css">
	.st0{clip-path:url(#SVGID_00000134946989411493626050000015600026362445798544_);}
</style>
<g>
	<defs>
		<rect id="SVGID_1_" y="0" width="99.2" height="99.2"/>
	</defs>
	<clipPath id="SVGID_00000042002322858294476720000009535817630963537540_">
		<use xlink:href="#SVGID_1_"  style="overflow:visible;"/>
	</clipPath>
	<path style="clip-path:url(#SVGID_00000042002322858294476720000009535817630963537540_);" d="M41.4,87.2l-0.2,1l0.1,0
		c0.2-0.6,0.4-0.7,1-0.6l0.3,0.1l-0.5,2.9c-0.1,0.4-0.1,0.6-0.6,0.5l0,0.1l1.7,0.3l0-0.1c-0.5-0.1-0.5-0.2-0.5-0.6l0.5-2.9l0.3,0.1
		c0.6,0.1,0.8,0.2,0.8,0.9l0.1,0l0.1-1L41.4,87.2z"/>
	<path style="clip-path:url(#SVGID_00000042002322858294476720000009535817630963537540_);" d="M48.1,91.2l-1.2-3.4l-0.1,0l-1.4,2.8
		c-0.1,0.2-0.3,0.7-0.5,0.8c-0.1,0.1-0.2,0.1-0.3,0.1l0,0.1l1.2,0.1l0-0.1c-0.1,0-0.4,0-0.4-0.3c0-0.1,0-0.1,0.1-0.2l0.3-0.7
		l1.5,0.1l0.2,0.6c0,0.1,0.1,0.3,0.1,0.4c0,0.2-0.2,0.2-0.4,0.2l0,0.1l1.5,0.1l0-0.1C48.3,91.7,48.2,91.7,48.1,91.2 M45.8,90.2
		l0.8-1.6l0.6,1.6L45.8,90.2z"/>
	<path style="clip-path:url(#SVGID_00000042002322858294476720000009535817630963537540_);" d="M50.3,88.7c0-0.4,0.3-0.6,0.6-0.6
		c0.6,0,1,0.5,1.1,1l0.1,0L52,87.9l-0.1,0c0,0.1,0,0.2-0.2,0.2c-0.1,0-0.5-0.2-0.8-0.2c-0.5,0-1,0.4-1,1c0,0.6,0.4,0.8,1,1.1
		c0.9,0.5,1,0.7,1,1c0,0.3-0.2,0.7-0.7,0.7c-0.8,0-1.1-0.7-1.2-1l-0.1,0l0.2,1.2l0.1,0c0-0.1,0.1-0.2,0.2-0.2c0.2,0,0.5,0.2,0.9,0.2
		c0.8,0,1.2-0.6,1.2-1.1C52.3,89.6,50.3,89.6,50.3,88.7"/>
	<path style="clip-path:url(#SVGID_00000042002322858294476720000009535817630963537540_);" d="M57.1,87.4l0-0.1l-1.3,0.2l0,0.1
		c0.4,0,0.6,0,0.7,0.7l0.2,1.6c0.1,0.5,0,0.7,0,0.8c-0.1,0.3-0.4,0.5-0.9,0.6c-1,0.1-1.1-0.7-1.2-1l-0.3-1.8c-0.1-0.4,0-0.5,0.5-0.6
		l0-0.1l-1.6,0.2l0,0.1c0.4,0,0.5,0,0.6,0.4l0.3,1.8c0,0.3,0.2,1.5,1.6,1.3c1.5-0.2,1.3-1.3,1.3-1.8l-0.2-1.5
		C56.6,87.6,56.7,87.5,57.1,87.4"/>
	<path style="clip-path:url(#SVGID_00000042002322858294476720000009535817630963537540_);" d="M13,26.9c-0.5-0.6-0.5-0.8-0.1-1.4
		l0.2-0.3l2.9,1.9c0.4,0.3,0.5,0.4,0.2,0.9l0.1,0.1l1.1-1.7l-0.1-0.1c-0.3,0.5-0.5,0.5-0.9,0.2l-2.9-2l0.2-0.3
		c0.4-0.6,0.6-0.7,1.3-0.4l0.1-0.1l-1-0.6L12,26.4l0.9,0.7L13,26.9z"/>
	<path style="clip-path:url(#SVGID_00000042002322858294476720000009535817630963537540_);" d="M17.6,25.7c0,0.2,0,0.3-0.1,0.4
		l0.1,0.1l0.9-1L18.4,25c-0.1,0.1-0.3,0.4-0.5,0.2c-0.1-0.1-0.1-0.1-0.2-0.2l-0.4-0.8l1.2-1.4l0.7,0.2c0.1,0,0.3,0.1,0.4,0.2
		c0.2,0.2,0.1,0.3-0.1,0.5l0.1,0.1l1.1-1.4l-0.1-0.1c-0.2,0.2-0.3,0.2-0.9,0.1l-4.1-1.2l-0.1,0.1l1.7,3.3
		C17.3,25,17.6,25.5,17.6,25.7 M16.2,22.1l2,0.6l-1,1.2L16.2,22.1z"/>
	<path style="clip-path:url(#SVGID_00000042002322858294476720000009535817630963537540_);" d="M18.5,19.3l2.1,2.2
		c0.4,0.4,0.4,0.5,0.1,0.9l0.1,0.1l1.4-1.3L22,21c-0.4,0.4-0.6,0.3-0.9,0l-0.9-1l0.3-0.3l2.7,0.4l0.8-0.8l-0.1-0.1
		c-0.2,0.2-0.4,0.2-0.7,0.2l-2.2-0.3c0.2-0.3,0.7-1,0.1-1.7c-0.7-0.8-1.7-0.1-2.1,0.3l-1.4,1.3l0.1,0.1C18,19,18.1,18.9,18.5,19.3
		 M19,18.2c0.2-0.2,0.9-0.8,1.5-0.1c0.7,0.7-0.1,1.4-0.5,1.8l-1.2-1.2C18.7,18.5,18.7,18.4,19,18.2"/>
	<path style="clip-path:url(#SVGID_00000042002322858294476720000009535817630963537540_);" d="M21.6,16.9c-0.3-0.7-0.3-0.9,0.3-1.4
		l0.3-0.2l2.1,2.7c0.3,0.4,0.4,0.5-0.1,0.9l0.1,0.1l1.6-1.2l-0.1-0.1c-0.5,0.3-0.6,0.3-0.9-0.1l-2.2-2.8l0.3-0.2
		c0.6-0.5,0.8-0.5,1.4,0l0.1-0.1l-0.8-0.9l-3.1,2.4l0.7,0.9L21.6,16.9z"/>
	<path style="clip-path:url(#SVGID_00000042002322858294476720000009535817630963537540_);" d="M25.3,13.6l1.1,1.8
		c0.2,0.4,0.9,1.5,2.4,0.6c1.5-0.9,0.8-2,0.5-2.5l-1-1.5c-0.4-0.6-0.3-0.8,0.1-1.1l-0.1-0.1L27,11.6l0.1,0.1c0.4-0.2,0.6-0.2,1,0.4
		l1,1.6c0.3,0.5,0.4,0.7,0.4,0.9c0,0.4-0.2,0.8-0.7,1.1c-1,0.6-1.5-0.2-1.8-0.6l-1.2-1.9c-0.3-0.4-0.2-0.5,0.2-0.9L26,12.3l-1.7,1
		l0.1,0.1C24.9,13.2,25,13.2,25.3,13.6"/>
	<path style="clip-path:url(#SVGID_00000042002322858294476720000009535817630963537540_);" d="M31.5,10.1l1.1,2.8
		c0.2,0.5,0.2,0.6-0.3,0.9l0,0.1l1.8-0.7l0-0.1c-0.5,0.2-0.6,0.1-0.8-0.3l-0.5-1.2l0.1-0.2l1,0.4c0.3,0.1,1.2,0.5,1.3,0.7
		c0.1,0.1-0.1,0.2-0.4,0.3l0.1,0.1l1.9-0.8l0-0.1c-0.4,0.2-0.7,0-1.3-0.3l-2.1-1L34,9c0.3-0.6,0.4-0.7,0.8-0.9l0-0.1l-1.7,0.7l0,0.1
		c0.3-0.1,0.4-0.2,0.5,0c0.1,0.2,0,0.5-0.9,2.4l-0.5-1.3C32,9.4,32,9.2,32.5,9l0-0.1l-1.8,0.7l0,0.1C31.2,9.6,31.3,9.6,31.5,10.1"/>
	<path style="clip-path:url(#SVGID_00000042002322858294476720000009535817630963537540_);" d="M36.3,8.2l0.6,2.1
		c0.1,0.4,0.5,1.7,2.1,1.2c1.7-0.5,1.4-1.7,1.2-2.3l-0.5-1.7c-0.2-0.7-0.1-0.8,0.4-1l0-0.1l-1.5,0.4l0,0.1c0.5-0.1,0.7,0,0.9,0.7
		l0.5,1.8c0.2,0.5,0.1,0.8,0.1,0.9c-0.1,0.4-0.4,0.7-0.9,0.8c-1.2,0.3-1.4-0.6-1.5-1L37,8.1c-0.1-0.5-0.1-0.6,0.4-0.8l0-0.1
		l-1.9,0.5l0,0.1C36,7.7,36.1,7.7,36.3,8.2"/>
	<path style="clip-path:url(#SVGID_00000042002322858294476720000009535817630963537540_);" d="M41.3,7l0.5,3
		c0.1,0.5-0.1,0.6-0.5,0.7l0,0.1l3.7-0.6L45.1,9L45,9c-0.2,1-0.7,1.1-1.7,1.2c-0.6,0.1-0.7,0.1-0.7-0.2L42,6.9
		c-0.1-0.5,0.1-0.6,0.5-0.7l0-0.1l-1.9,0.3l0,0.1C41.1,6.4,41.2,6.4,41.3,7"/>
	<path style="clip-path:url(#SVGID_00000042002322858294476720000009535817630963537540_);" d="M44.7,6.9c0.1-0.8,0.3-0.9,1-1l0.4,0
		l0.2,3.4c0,0.5,0,0.7-0.6,0.7l0,0.1l2-0.1l0-0.1c-0.6,0-0.7-0.1-0.7-0.6l-0.3-3.5l0.4,0c0.8-0.1,1,0.1,1.2,0.8l0.2,0l-0.1-1.2
		l-3.9,0.3l0,1.2L44.7,6.9z"/>
	<path style="clip-path:url(#SVGID_00000042002322858294476720000009535817630963537540_);" d="M49.6,6.2l-0.1,2.2
		c0,0.4-0.1,1.8,1.6,1.8c1.8,0.1,1.8-1.2,1.9-1.8L53,6.6c0-0.7,0.1-0.8,0.7-0.9l0-0.1l-1.6-0.1l0,0.1c0.5,0,0.6,0.2,0.6,0.9
		l-0.1,1.9c0,0.6-0.1,0.8-0.2,0.9c-0.2,0.3-0.6,0.5-1.2,0.5c-1.2,0-1.2-1-1.1-1.4l0.1-2.2c0-0.5,0.1-0.6,0.7-0.6l0-0.1l-2-0.1l0,0.1
		C49.5,5.6,49.6,5.7,49.6,6.2"/>
	<path style="clip-path:url(#SVGID_00000042002322858294476720000009535817630963537540_);" d="M54.8,6.5l-0.3,2.1
		c-0.1,0.4-0.3,1.7,1.4,2c1.8,0.3,2-1,2.1-1.5l0.3-1.8c0.1-0.7,0.2-0.8,0.8-0.8l0-0.1l-1.6-0.3l0,0.1c0.5,0.1,0.6,0.2,0.5,1
		l-0.3,1.8c-0.1,0.6-0.2,0.8-0.3,0.9c-0.2,0.3-0.7,0.4-1.2,0.4c-1.2-0.2-1-1.1-1-1.6l0.4-2.2c0.1-0.5,0.2-0.6,0.7-0.5l0-0.1
		l-1.9-0.3l0,0.1C54.8,5.9,54.9,6,54.8,6.5"/>
	<path style="clip-path:url(#SVGID_00000042002322858294476720000009535817630963537540_);" d="M59.1,10.3c-0.1,0.5-0.2,0.6-0.8,0.5
		l0,0.1l1.8,0.5l0-0.1c-0.5-0.2-0.6-0.3-0.4-0.8l0.4-1.3l0.4,0.1l1,2.5l1.1,0.3l0-0.1c-0.3-0.1-0.4-0.3-0.5-0.5l-0.9-2.1
		c0.4,0,1.3,0.1,1.5-0.8c0.3-1-0.8-1.5-1.4-1.6l-1.8-0.5l0,0.1c0.5,0.2,0.5,0.3,0.4,0.8L59.1,10.3z M60.7,7.4
		c0.1-0.2,0.1-0.2,0.5-0.1c0.3,0.1,1.1,0.3,0.9,1.2c-0.3,0.9-1.3,0.7-1.8,0.5L60.7,7.4z"/>
	<path style="clip-path:url(#SVGID_00000042002322858294476720000009535817630963537540_);" d="M62.7,12.2l1.8,0.7l0-0.1
		c-0.5-0.2-0.5-0.4-0.3-0.8l0.5-1.2l0.2-0.1l0.4,1c0.1,0.3,0.5,1.2,0.4,1.4c-0.1,0.1-0.2,0.1-0.5,0l0,0.1l1.9,0.8v0l1.2,0.7l0.1-0.1
		c-0.1-0.1-0.4-0.2-0.3-0.5c0-0.1,0.1-0.1,0.2-0.2l0.7-0.5l1.6,0.9l-0.1,0.7c0,0.1,0,0.3-0.1,0.4c-0.1,0.2-0.3,0.1-0.5,0l-0.1,0.1
		l1.5,0.9l0.1-0.1C71,16,70.9,15.9,71,15.3l0.4-4.3L71.3,11l-2.9,2.2c-0.3,0.2-0.7,0.5-0.9,0.6c-0.1,0-0.2,0-0.3,0
		c-0.4-0.1-0.5-0.5-0.7-1.1l-0.8-2.2l1.7-0.7c0.6-0.3,0.8-0.2,1.2-0.1l0.1-0.1l-1.7-0.7l0,0.1c0.3,0.1,0.4,0.2,0.4,0.4
		c-0.1,0.2-0.3,0.3-2.3,1l0.5-1.3c0.2-0.5,0.3-0.5,0.8-0.3l0.1-0.1l-1.8-0.8l0,0.1c0.4,0.2,0.5,0.3,0.3,0.8l-1.1,2.8
		c-0.2,0.5-0.3,0.6-0.8,0.4L62.7,12.2z M70.7,11.8l-0.2,2l-1.4-0.8L70.7,11.8z"/>
	<path style="clip-path:url(#SVGID_00000042002322858294476720000009535817630963537540_);" d="M71.2,16.3l1.6,1.1l0.1-0.1
		c-0.4-0.3-0.5-0.5-0.2-0.9l0.7-1c0.1,0.1,0.2,0.2,0.4,0.3c0.6,0.4,1,0.6,1.4,0.5c0.2,0,0.6-0.1,0.9-0.5c0.5-0.7,0-1.5-0.7-2.1
		l-1.5-1.1l-0.1,0.1c0.4,0.3,0.4,0.4,0.1,0.8L72.1,16c-0.3,0.4-0.4,0.5-0.9,0.2L71.2,16.3z M74.6,13.8c0.1-0.2,0.2-0.1,0.4,0
		c0.2,0.2,1.1,0.8,0.5,1.6c-0.6,0.9-1.4,0.3-1.6,0.2c-0.1-0.1-0.2-0.2-0.3-0.3L74.6,13.8z"/>
	<path style="clip-path:url(#SVGID_00000042002322858294476720000009535817630963537540_);" d="M77.1,16l-2,2.4
		c-0.3,0.4-0.5,0.4-0.9,0l-0.1,0.1l1.6,1.3l0.1-0.1c-0.4-0.3-0.5-0.5-0.1-0.9l2-2.4c0.4-0.4,0.5-0.4,0.9,0l0.1-0.1L77.1,15L77,15.1
		C77.4,15.5,77.5,15.6,77.1,16"/>
	<path style="clip-path:url(#SVGID_00000042002322858294476720000009535817630963537540_);" d="M78.3,17.6c0.6-0.4,0.9-0.4,1.4,0.1
		L80,18l-2.4,2.5c-0.4,0.4-0.5,0.5-1,0l-0.1,0.1L78,22l0.1-0.1c-0.4-0.4-0.4-0.6,0-0.9l2.5-2.5l0.3,0.3c0.5,0.5,0.6,0.8,0.2,1.4
		l0.1,0.1l0.8-0.9l-2.8-2.7l-0.9,0.8L78.3,17.6z"/>
	<path style="clip-path:url(#SVGID_00000042002322858294476720000009535817630963537540_);" d="M78.8,22.3c-0.2,0-0.3-0.1-0.3-0.2
		l-0.1,0.1l0.9,1l0.1-0.1c-0.1-0.1-0.3-0.4-0.1-0.5c0.1,0,0.1-0.1,0.2-0.1l0.8-0.3l1.2,1.4l-0.3,0.6c0,0.1-0.2,0.3-0.2,0.4
		c-0.2,0.2-0.3,0-0.5-0.2l-0.1,0.1l1.1,1.3l0.1-0.1c-0.2-0.2-0.2-0.4,0.1-0.9l1.9-3.8L83.3,21l-3.5,1.1C79.5,22.2,79,22.3,78.8,22.3
		 M82.5,21.5l-0.9,1.8l-1-1.2L82.5,21.5z"/>
	<path style="clip-path:url(#SVGID_00000042002322858294476720000009535817630963537540_);" d="M84.9,24.3L82.3,26
		c-0.4,0.3-0.6,0.2-0.9-0.2l-0.1,0.1l2.1,3.1l1.2-0.4l-0.1-0.1c-1,0.2-1.2-0.2-1.8-1c-0.3-0.5-0.4-0.6-0.2-0.7l2.7-1.8
		c0.5-0.3,0.6-0.2,0.9,0.2l0.1-0.1l-1.1-1.6l-0.1,0.1C85.3,23.8,85.3,24,84.9,24.3"/>
	<path style="clip-path:url(#SVGID_00000042002322858294476720000009535817630963537540_);" d="M49.6,0C22.3,0,0,22.3,0,49.6
		C0,77,22.3,99.2,49.6,99.2C77,99.2,99.2,77,99.2,49.6C99.2,22.3,77,0,49.6,0 M49.6,98.5c-27,0-48.9-21.9-48.9-48.9
		c0-27,21.9-48.9,48.9-48.9s48.9,21.9,48.9,48.9C98.5,76.6,76.6,98.5,49.6,98.5"/>
	<path style="clip-path:url(#SVGID_00000042002322858294476720000009535817630963537540_);" d="M49.6,2C23.3,2,2,23.3,2,49.6
		c0,26.3,21.4,47.6,47.6,47.6c26.3,0,47.6-21.4,47.6-47.6C97.2,23.3,75.9,2,49.6,2 M49.6,96.6c-25.9,0-46.9-21.1-46.9-46.9
		c0-25.9,21.1-46.9,46.9-46.9c25.9,0,46.9,21.1,46.9,46.9C96.6,75.5,75.5,96.6,49.6,96.6"/>
	<path style="clip-path:url(#SVGID_00000042002322858294476720000009535817630963537540_);" d="M92.6,59.5
		c-3.7-3.4-6.1-8.9-8.1-12.3c-1.9-3.4-5.2-14-9.6-21.4c-4.4-7.4-8.4-10.2-12.7-11.6c-4.2-1.3-4,1.9-3.6,2.7c0.4,0.9,0.7,1.9,0.7,3.4
		c-4.6-3.2-8.9-3-8.9-3v8.9h-1.8v-8.9c0,0-4.4-0.2-8.9,3c0-1.5,0.3-2.6,0.7-3.4c0.4-0.9,0.7-4.1-3.6-2.7c-4.2,1.3-8.3,4.2-12.7,11.6
		c-4.4,7.4-7.6,18-9.6,21.4c-1.9,3.4-4.4,8.9-8.1,12.3c-1.3,1.6-1.6,1.9-1.3,2.5c0.2,0.6,2.7,1.5,5.8-1.1c0.6-0.5,1.6-0.4,2.3-0.4
		c0.7,0,1.1,0,1.5-0.3c0.4-0.3,1.5-1.2,3.2-1.2c1.7,0,1.9-0.7,2.5-0.7c0.2,0,0.8,0.1,1.5-0.1c3.5,11.2,13.6,19.2,25.2,20.1
		c0,0.6-0.1,1.1-0.2,1.5c-0.5,2.2-0.9,2.5-0.7,2.9c0.6,0.1,2.4,0.9,3,2.3c0,0,0.1,0.2,0.3,0.2c0.2,0,0.2-0.2,0.2-0.2
		c0.7-1.3,2.5-2.2,3-2.3c0.2-0.4-0.3-0.8-0.7-2.9c-0.1-0.4-0.2-0.9-0.2-1.5c11.6-1,21.7-8.9,25.2-20.1c0.7,0.2,1.3,0.1,1.5,0.1
		c0.5,0,0.8,0.7,2.5,0.7c1.7,0,2.8,0.9,3.2,1.2c0.4,0.3,0.8,0.3,1.5,0.3c0.7,0,1.7-0.1,2.3,0.4c3.2,2.6,5.6,1.6,5.8,1.1
		C94.1,61.4,93.9,61.1,92.6,59.5 M60.3,16.5c-0.6-1.4-0.3-2,3-0.7c3.3,1.4,6.6,4,8.2,6.6c1,1.5,2.6,4.3,4.3,7.8
		c0,0.9-0.3,2.7-1.3,2.8c-1.9,0.2-2.9-1-3.2-1.4c0,0-0.2-0.5-0.4-0.4c-0.2,0.1-0.2,0.5-0.2,0.5c-0.1,1.2-0.3,1.5-0.9,1.6
		c-0.6,0.1-2.1,0-3-1.1c0,0-0.3-0.4-0.5-0.2c-0.2,0.2-0.1,0.5-0.1,0.5c0.2,0.8,0.1,1.3-0.4,1.6c-0.4,0.2-1.5,0.3-2.5,0
		c0.2-2.4-1.2-5.8-3.3-7.7c-2.1-2-2.5-2.8-2.2-3.5c0.3-0.7,2.9,0.2,2.9,0.2C61.4,21.2,60.9,17.9,60.3,16.5 M61.6,41.3
		c-1.8-2.9-4.4-4.6-4.4-4.6c1.3-0.6,3.1-2.1,3.5-2.5c1.1,0.4,1.8,0.5,2.3,0.5c0.1,0,0.2,0.1,0.3,0.1C62.5,35.7,61.2,37.8,61.6,41.3
		 M61.5,60.7c0.6-4.8-0.2-7.5-1-9.6c0.1-0.4,0.6-1.9,2.3-1.7c0,0.4,0.1,0.8,0.3,1.2c1,2.1,2.8,12.1-1.2,16c-4,3.9-7.8,0.6-8.7-1.1
		C56.7,67.8,60.8,66,61.5,60.7 M52.5,63.9c-0.2-0.6,0.1-2.5,0.1-2.5c1.2-7.3,7.3-9.8,7.3-9.8s1,3,1.1,5.1c0.1,2.1,0,7.7-3.3,8.7
		C54.5,66.4,52.5,63.9,52.5,63.9 M59.9,50.6c-3.2,0.9-6.6,5.5-6.6,5.5c1.1-9.2,2.5-16.7,2.8-18.7l0.1-0.1c1.1,0.5,2.9,2.1,4.2,4.2
		c2.4,3.9,2.2,5.7,2.3,7.1C61.1,48.6,60.3,49.7,59.9,50.6 M59.3,32.4c0,0,0.6-0.6,1.9-0.2c1.2,0.5,1.1,1.6,1.1,1.6
		C60.7,33.9,59.3,32.4,59.3,32.4 M27.7,22.4c1.7-2.6,5-5.2,8.2-6.6c3.3-1.4,3.6-0.7,3,0.7c-0.6,1.4-1.1,4.7-0.3,6.6
		c0,0,2.6-0.9,2.9-0.2c0.3,0.7-0.1,1.5-2.2,3.5c-2.1,2-3.5,5.3-3.3,7.7c-1,0.3-2.1,0.2-2.5,0c-0.5-0.3-0.7-0.8-0.4-1.6
		c0,0,0.1-0.3-0.1-0.5c-0.2-0.2-0.5,0.2-0.5,0.2c-0.9,1.1-2.4,1.2-3,1.1c-0.6-0.1-0.7-0.4-0.9-1.6c0,0,0-0.5-0.2-0.5
		c-0.2-0.1-0.4,0.4-0.4,0.4c-0.3,0.4-1.3,1.6-3.2,1.4c-1-0.1-1.2-1.9-1.3-2.8C25.2,26.7,26.8,23.9,27.7,22.4 M37.7,60.7
		c0.7,5.3,4.8,7.1,8.2,4.9c-0.9,1.7-4.7,5-8.7,1.1c-4-3.9-2.2-13.9-1.2-16c0.2-0.4,0.3-0.8,0.3-1.2c1.7-0.2,2.2,1.3,2.3,1.7
		C37.9,53.2,37.1,55.9,37.7,60.7 M41.5,65.4c-3.2-1-3.3-6.6-3.3-8.7c0.1-2.1,1.1-5.1,1.1-5.1s6.1,2.5,7.3,9.8c0,0,0.3,2,0.1,2.5
		C46.7,63.9,44.8,66.4,41.5,65.4 M39.3,50.6c-0.3-0.9-1.2-2-2.8-1.9c0-1.4-0.1-3.2,2.3-7.1c1.3-2.1,3.1-3.7,4.2-4.2l0.1,0.1
		c0.4,2,1.7,9.5,2.8,18.7C45.8,56.1,42.5,51.5,39.3,50.6 M37.6,41.3c0.4-3.5-0.9-5.6-1.6-6.5c0.1,0,0.2-0.1,0.3-0.1
		c0.4,0,1.1-0.1,2.3-0.5c0.4,0.5,2.2,1.9,3.5,2.5C42,36.7,39.5,38.4,37.6,41.3 M37,33.9c0,0-0.1-1.1,1.1-1.6
		c1.2-0.5,1.9,0.2,1.9,0.2S38.5,33.9,37,33.9 M8.3,61c-1.8,0.1-0.5-0.2,2.5-4c3-3.9,5.9-10.6,8.7-17.9c1-2.7,2.2-5.3,3.4-7.7
		c0.2,1,0.7,2.2,1.8,2.3c1.2,0.1,2.1-0.2,2.7-0.7c-2.2,5.6-5.8,12.3-5.8,12.4l0,0c-1.8,3.3-3.6,6-5.3,8.2
		C12.8,58.2,10.1,60.9,8.3,61 M16.3,57.6c-2,1.4-3,2-3.8,1.8c3.6-3.8,9-11.1,9.8-13.1c0.4-1,0.4-1.4,0.4-1.6
		c1.1-2.1,3.7-7.3,5.5-11.8c0.2,0.5,0.5,0.9,1.2,1c0.6,0.1,1.6,0,2.5-0.4c-2.5,5.7-7.1,12.9-7.1,12.9l0,0c-0.2,0.3-0.5,0.7-0.6,1
		C23.6,48.3,18.3,56.3,16.3,57.6 M17.9,57.5c1.8-1.9,6.6-8.6,7.5-10.1c0.5-0.9,0.6-1.3,0.6-1.5c1.4-2.2,4.5-7.5,6.5-12
		c0.1,0.4,0.4,0.7,0.7,0.8c0.3,0.2,1,0.3,1.6,0.3c-1.8,4.3-5,9.7-6.5,12.1c-1.2,1.8-2.6,3.8-3.4,4.7C23.3,53.4,19.7,58.9,17.9,57.5
		 M22.3,56.3c1.4-1.5,7-8.1,8.1-10.7c0.1-0.4,0.1-0.7,0.1-0.9c1.6-2.7,3.6-6.4,4.9-9.5c0.8,0.9,2.4,3.4,1.1,8.1l0.1,0
		c-0.2,0.5-0.4,1-0.5,1.6c-0.7-0.1-2.5,0.3-4.4,2.7C29.7,49.9,23.7,57.1,22.3,56.3 M47.3,77.4c-11.2-0.9-21-8.6-24.3-19.5
		c0.7-0.3,1.4-0.7,2.2-1.5c2.3-2.2,6.6-7.2,7.3-8.2c0.8-1,2-2.1,2.7-2c0,1-0.3,4.4-0.9,5.7c-0.6,1.3-1.7,6.6-0.4,11.2
		c1.3,4.6,4.7,7.1,7.5,6.6c2.8-0.5,3.9-1.5,5.1-3.3C47,68,47.5,73.6,47.3,77.4 M49.9,83.1c0,0-0.2,0.1-0.3,0.1
		c-0.1,0-0.2-0.1-0.2-0.1s-0.9-0.8-1.6-1.1c0.4-1.3,1.7-4.8,0.2-19.2c-1.5-14.4-3.6-27.1-4.3-28.9c-0.7-1.8-2-4.4-5.9-2.9
		c0,0,1.3-3.9,3.7-5.9c2.2-1.8,0.4-3.3-0.7-3.5l0.1,0c4-2.6,7.1-2.5,7.1-2.5v8.8h3.6v-8.8c0,0,3-0.1,7.1,2.5l0.1,0
		c-1.1,0.2-2.8,1.7-0.7,3.5c2.4,2,3.7,5.9,3.7,5.9c-3.9-1.6-5.2,1.1-5.9,2.9c-0.7,1.8-2.8,14.5-4.3,28.9
		c-1.5,14.4-0.2,17.9,0.2,19.2C50.7,82.3,49.9,83.1,49.9,83.1 M51.9,77.4c-0.2-3.8,0.3-9.4,0.7-10.9c1.2,1.8,2.3,2.8,5.1,3.3
		c2.8,0.5,6.2-2,7.5-6.6c1.3-4.6,0.2-9.9-0.4-11.2c-0.6-1.3-0.9-4.6-0.9-5.7c0.7-0.1,1.9,1,2.7,2c0.8,1,5,6,7.3,8.2
		c0.8,0.8,1.6,1.2,2.2,1.5C72.9,68.8,63.1,76.5,51.9,77.4 M67.6,47.5c-1.9-2.4-3.7-2.8-4.4-2.7c-0.1-0.5-0.3-1.1-0.5-1.6l0.1,0
		c-1.4-4.7,0.3-7.2,1.1-8.1c1.3,3.1,3.4,6.8,4.9,9.5c0,0.2,0,0.5,0.1,0.9c1.1,2.6,6.7,9.2,8.1,10.7C75.5,57.1,69.5,49.9,67.6,47.5
		 M74.4,51.8c-0.8-0.9-2.3-3-3.4-4.7c-1.5-2.4-4.6-7.8-6.5-12.1c0.7,0,1.3-0.1,1.6-0.3c0.4-0.2,0.6-0.5,0.7-0.8
		c2,4.4,5.1,9.7,6.5,12c0,0.2,0.1,0.6,0.6,1.5c0.8,1.5,5.7,8.2,7.5,10.1C79.5,58.9,75.9,53.4,74.4,51.8 M82.9,57.6
		c-2-1.4-7.3-9.3-7.8-10.1c-0.2-0.3-0.4-0.6-0.6-1l0,0c0-0.1-4.6-7.2-7.1-12.9c0.9,0.5,1.9,0.5,2.5,0.4c0.7-0.1,1-0.5,1.2-1
		c1.7,4.5,4.4,9.7,5.5,11.8c0,0.2,0,0.5,0.4,1.6c0.8,2,6.1,9.3,9.8,13.1C85.9,59.7,84.9,59,82.9,57.6 M90.9,61
		c-1.8-0.1-4.5-2.8-8.1-7.4c-1.7-2.2-3.4-4.9-5.3-8.2l0,0c0-0.1-3.6-6.7-5.8-12.4c0.6,0.4,1.5,0.8,2.7,0.7c1.1-0.1,1.6-1.3,1.8-2.3
		c1.1,2.4,2.3,5,3.4,7.7c2.8,7.3,5.8,14.1,8.7,17.9C91.4,60.8,92.8,61.1,90.9,61"/>
	<path style="clip-path:url(#SVGID_00000042002322858294476720000009535817630963537540_);" d="M33.4,84.3c0,0.1-0.1,0.2-0.3,0.1
		c-0.1-0.1-0.3-0.4-0.6-0.5c-0.5-0.2-1.1-0.2-1.4,0.4c-0.3,0.5,0,0.9,0.3,1.4c0.5,0.8,0.5,1,0.4,1.3c-0.1,0.3-0.5,0.5-0.9,0.3
		c-0.7-0.3-0.6-1.2-0.6-1.5l-0.1-0.1L29.8,87l0.1,0.1c0-0.1,0.1-0.1,0.2-0.1c0.2,0.1,0.3,0.4,0.7,0.6c0.7,0.4,1.4,0,1.6-0.4
		c0.5-1.1-1.2-2-0.8-2.8c0.2-0.3,0.5-0.4,0.8-0.2c0.5,0.3,0.7,0.9,0.5,1.4l0.1,0.1l0.4-1.2L33.4,84.3z"/>
	<path style="clip-path:url(#SVGID_00000042002322858294476720000009535817630963537540_);" d="M36.3,85.6L34.6,85l0,0.1
		c0.4,0.2,0.5,0.3,0.3,0.7l-1,2.4c-0.2,0.4-0.3,0.5-0.7,0.3l0,0.1l1.6,0.6l0-0.1c-0.4-0.2-0.5-0.3-0.3-0.7l1-2.4
		c0.2-0.4,0.3-0.4,0.7-0.3L36.3,85.6z"/>
	<path style="clip-path:url(#SVGID_00000042002322858294476720000009535817630963537540_);" d="M39.1,86.7c0.4,0.2,0.5,0.2,0.3,0.6
		l-0.3,1.1l-1.7-0.5l0.3-1.1c0.1-0.4,0.2-0.5,0.6-0.4l0-0.1l-1.6-0.5l0,0.1c0.4,0.2,0.5,0.2,0.3,0.7l-0.7,2.4
		c-0.1,0.4-0.2,0.5-0.7,0.4l0,0.1l1.6,0.5l0-0.1c-0.4-0.2-0.5-0.3-0.3-0.6l0.3-1.2l1.7,0.5l-0.3,1.1c-0.1,0.4-0.2,0.5-0.7,0.4l0,0.1
		l1.6,0.5l0-0.1c-0.4-0.2-0.5-0.3-0.3-0.6l0.7-2.5c0.1-0.4,0.2-0.5,0.6-0.4l0-0.1l-1.6-0.5L39.1,86.7z"/>
	<path style="clip-path:url(#SVGID_00000042002322858294476720000009535817630963537540_);" d="M61.1,87.3l0.1,0l-0.3-1l-3.2,0.8
		l0.2,1l0.1,0c0-0.6,0.1-0.8,0.7-1l0.3-0.1l0.7,2.8c0.1,0.4,0.1,0.6-0.4,0.7l0,0.1l1.6-0.4l0-0.1c-0.5,0.1-0.6,0-0.7-0.4l-0.8-2.9
		l0.3-0.1C60.7,86.7,60.8,86.7,61.1,87.3"/>
	<path style="clip-path:url(#SVGID_00000042002322858294476720000009535817630963537540_);" d="M65.2,85.7c-0.2-0.6-0.2-0.7,0.2-0.9
		l0-0.1l-1.3,0.5l0,0.1c0.4-0.1,0.6-0.1,0.8,0.5l0.6,1.5c0.2,0.4,0.2,0.6,0.2,0.8c-0.1,0.3-0.3,0.6-0.7,0.8
		c-0.9,0.4-1.2-0.4-1.4-0.7l-0.7-1.7c-0.1-0.4-0.1-0.5,0.3-0.7l0-0.1l-1.5,0.6l0,0.1c0.4-0.1,0.5-0.1,0.7,0.3l0.7,1.7
		c0.1,0.3,0.5,1.4,1.9,0.9c1.4-0.5,1-1.6,0.8-2L65.2,85.7z"/>
	<path style="clip-path:url(#SVGID_00000042002322858294476720000009535817630963537540_);" d="M67,84.6c-0.2-0.3,0-0.6,0.3-0.8
		c0.5-0.3,1.1,0,1.4,0.4l0.1-0.1l-0.7-1L68,83.2c0,0.1,0.1,0.2-0.1,0.3c-0.1,0.1-0.5,0-0.8,0.2c-0.5,0.2-0.8,0.8-0.5,1.4
		c0.3,0.5,0.7,0.6,1.3,0.6c1,0,1.2,0.2,1.3,0.5c0.1,0.3,0.1,0.7-0.3,0.9c-0.7,0.4-1.3-0.2-1.5-0.4l-0.1,0.1l0.7,1l0.1-0.1
		c0-0.1,0-0.2,0.1-0.3c0.2-0.1,0.5,0,0.9-0.2c0.7-0.4,0.8-1.1,0.6-1.5C69.2,84.6,67.4,85.4,67,84.6"/>
</g>
</svg>
