<?xml version="1.0" encoding="utf-8"?>
<svg xmlns="http://www.w3.org/2000/svg" viewBox="0 0 600.09 220.09"><rect x="284.89" y="5.4" width="3.2" height="192.7"/><path d="M331.69,34.8h-6.1c-.4,0-.5.1-.5.5V63c0,.4-.1.5-.5.5h-2.4c-.3,0-.5-.1-.5-.5V35.3c0-.4-.1-.5-.5-.5h-6.1c-.4,0-.5-.1-.5-.5V32.4c0-.4.1-.5.5-.5h16.5c.4,0,.5.1.5.5v1.9c.2.3,0,.5-.4.5"/><path d="M344.09,54.3a.47.47,0,0,0-.5-.5H337a3,3,0,0,0-3,3v.8a3,3,0,0,0,3,3h2c2,0,3.7-1.5,5.1-4.3l.1-1.1v-.9Zm2.9,9.1h-1.9c-.4,0-.5-.1-.5-.5V60.7c0-.3-.2-.6-.4-.6-.5,0-1.4,1.1-3,2.4a4.44,4.44,0,0,1-2.3.9h-2c-3.8,0-6.3-2.5-6.3-5.9v-.3c0-3.4,2.6-5.8,6.3-5.8h6.6c.4,0,.5-.1.5-.5l-.1-2a5.13,5.13,0,0,0-5.3-5.2,5.33,5.33,0,0,0-3.4,1.3c-1.1,1-1.4,1.7-1.8,1.7a.37.37,0,0,1-.3-.1L331,45.5c-.2-.1-.3-.2-.3-.4,0-1.6,3-4.4,7.8-4.4,5.4,0,8.8,3.2,8.8,8.1v14c.2.5.1.6-.3.6"/><path d="M357.49,63.4h-2.4c-.3,0-.5-.1-.5-.5V32.4a.47.47,0,0,1,.5-.5h2.4c.3,0,.5.1.5.5V62.9c0,.4-.1.5-.5.5"/><path d="M368,63.4h-2.4c-.3,0-.5-.1-.5-.5V32.4a.47.47,0,0,1,.5-.5H368c.4,0,.5.1.5.5V62.9c0,.4-.2.5-.5.5"/><path d="M378.49,63.4h-2.4c-.4,0-.5-.1-.5-.5V41.7a.47.47,0,0,1,.5-.5h2.4c.4,0,.5.2.5.5V62.9c0,.4-.2.5-.5.5m-1.3-27.6a2.24,2.24,0,0,1-2.2-2.3,2.22,2.22,0,0,1,2.2-2.2,2.25,2.25,0,1,1,0,4.5"/><path d="M403,63.4h-2.4c-.3,0-.5-.1-.5-.5V49.4a5.36,5.36,0,0,0-5.4-5.3,5.21,5.21,0,0,0-5.3,5.3V62.9c0,.4-.2.5-.5.5h-2.4c-.4,0-.5-.1-.5-.5V41.8c0-.3.1-.5.5-.5h1.9a.47.47,0,0,1,.5.5v2c0,.3.2.6.4.6.4,0,.8-.5,1.5-1.2a5.54,5.54,0,0,1,4.4-1.9,8,8,0,0,1,8.3,8.2V63c0,.3-.1.4-.5.4"/><path d="M427.59,63.4h-2.4c-.3,0-.5-.1-.5-.5V49.4a5.36,5.36,0,0,0-5.4-5.3,5.21,5.21,0,0,0-5.3,5.3V62.9c0,.4-.1.5-.5.5h-2.4c-.4,0-.5-.1-.5-.5V41.8c0-.3.1-.5.5-.5H413c.4,0,.5.2.5.5v2c0,.3.2.6.4.6s.7-.5,1.5-1.2a5.54,5.54,0,0,1,4.4-1.9,8,8,0,0,1,8.3,8.2V63c0,.3-.2.4-.5.4"/><path d="M446.49,54.3a.47.47,0,0,0-.5-.5h-6.6a3,3,0,0,0-3,3v.8a3,3,0,0,0,3,3h2c2,0,3.7-1.5,5.1-4.3l.1-1.1v-.9Zm2.9,9.1h-1.9c-.4,0-.5-.1-.5-.5V60.7c0-.3-.2-.6-.4-.6-.5,0-1.4,1.1-3,2.4a4.14,4.14,0,0,1-2.3.9h-2c-3.8,0-6.3-2.5-6.3-5.9v-.3c0-3.4,2.6-5.8,6.3-5.8h6.6c.4,0,.5-.1.5-.5l-.1-2a5.13,5.13,0,0,0-5.3-5.2,4.87,4.87,0,0,0-3.3,1.3c-1.1,1-1.4,1.7-1.8,1.7a.37.37,0,0,1-.3-.1l-2.1-1.1c-.2-.1-.3-.2-.3-.4,0-1.6,3-4.4,7.8-4.4,5.4,0,8.8,3.2,8.8,8.1v14c.1.5,0,.6-.4.6"/><path d="M334.59,113.6h-16.4c-.4,0-.5-.1-.5-.5V82.6c0-.4.1-.5.5-.5h2.4c.4,0,.5.1.5.5v27.7c0,.4.1.5.5.5h13.1c.4,0,.5.2.5.5v1.9a.57.57,0,0,1-.6.4"/><path d="M342.69,113.6h-2.4c-.4,0-.5-.1-.5-.5V91.9a.47.47,0,0,1,.5-.5h2.4c.4,0,.5.2.5.5v21.2c0,.3-.1.5-.5.5M341.49,86a2.24,2.24,0,0,1-2.2-2.3,2.22,2.22,0,0,1,2.2-2.2,2.18,2.18,0,0,1,2.3,2.2,2.47,2.47,0,0,1-2.3,2.3"/><path d="M366.29,113.6h-2.4c-.3,0-.5-.1-.5-.5V99.6a5.36,5.36,0,0,0-5.4-5.3,5.21,5.21,0,0,0-5.3,5.3v13.5c0,.4-.2.5-.5.5h-2.4c-.4,0-.5-.1-.5-.5V92c0-.4.1-.5.5-.5h1.9c.4,0,.5.2.5.5v2c0,.3.2.6.4.6.4,0,.8-.5,1.5-1.2,1.2-.9,2-1.9,4.4-1.9a8,8,0,0,1,8.3,8.2v13.5a.46.46,0,0,1-.5.4"/><path d="M389.79,113.6h-2.4c-.3,0-.5-.1-.5-.5V99.6a5.36,5.36,0,0,0-5.4-5.3,5.21,5.21,0,0,0-5.3,5.3v13.5c0,.4-.1.5-.5.5h-2.4c-.4,0-.5-.1-.5-.5V92c0-.4.1-.5.5-.5h1.9c.4,0,.5.2.5.5v2c0,.3.2.6.4.6s.7-.5,1.5-1.2c1.1-.9,2-1.9,4.4-1.9a8,8,0,0,1,8.3,8.2v13.5c0,.2-.1.4-.5.4"/><path d="M408.79,104.4a.47.47,0,0,0-.5-.5h-6.6a3,3,0,0,0-3,3v.8a3,3,0,0,0,3,3h2c2,0,3.7-1.5,5.1-4.3v-2Zm2.9,9.2h-1.9c-.3,0-.5-.1-.5-.5v-2.2c0-.3-.2-.6-.4-.6-.5,0-1.4,1.1-3,2.4a4.14,4.14,0,0,1-2.3.9h-2c-3.8,0-6.3-2.5-6.3-5.9v-.3c0-3.4,2.6-5.8,6.3-5.8h6.6c.4,0,.5-.2.5-.5v-2a5.13,5.13,0,0,0-5.3-5.2,4.87,4.87,0,0,0-3.3,1.3c-1.1.9-1.4,1.7-1.8,1.7H398l-2.1-1.1c-.2-.1-.3-.2-.3-.4,0-1.5,3-4.4,7.8-4.4,5.4,0,8.8,3.2,8.8,8.1v14a.47.47,0,0,1-.5.5"/><path d="M426.79,114c-3.8,0-7.5-3.4-7.5-8.2V94.7c0-.4-.1-.5-.5-.5h-2.9c-.4,0-.5-.2-.5-.5v-1l5.7-6,.4-.2h.8a.47.47,0,0,1,.5.5v3.7c0,.4.2.5.5.5H427c.4,0,.5.2.5.5v1.9c0,.3-.1.5-.5.5h-3.7c-.4,0-.5.2-.5.5v11.1a5.68,5.68,0,0,0,1.1,3.3c.5.8,1.7,1.2,3.2,1.9.2.1.4.2.4.5v2c-.1.5-.3.6-.7.6"/><path d="M443.29,95c-.4,0-1-.1-1.9-.1a5.15,5.15,0,0,0-5.3,5.3v13c0,.4-.2.5-.5.5h-2.4c-.3,0-.5-.1-.5-.5V92.1c0-.4.2-.5.5-.5h1.9c.4,0,.5.1.5.5v2.5c0,.4.2.6.4.6.6,0,1.4-1.3,3.2-2.7a5,5,0,0,1,2.3-.9h1.9c.4,0,.5.1.5.5v2.6c-.1.2-.2.3-.6.3"/><path d="M459.19,104.4a.47.47,0,0,0-.5-.5h-6.6a2.93,2.93,0,0,0-2.9,3v.8a3,3,0,0,0,2.9,3h2c2,0,3.7-1.5,5.1-4.3v-2Zm2.9,9.2h-1.9c-.3,0-.5-.1-.5-.5v-2.2c0-.3-.2-.6-.4-.6-.5,0-1.4,1.1-3,2.4a4.14,4.14,0,0,1-2.3.9h-2c-3.8,0-6.3-2.5-6.3-5.9v-.3c0-3.4,2.6-5.8,6.3-5.8h6.6c.4,0,.5-.2.5-.5v-2a5.19,5.19,0,0,0-5.3-5.2,5.13,5.13,0,0,0-3.4,1.3c-1.1.9-1.4,1.7-1.8,1.7h-.2l-2.1-1.1c-.2-.1-.3-.2-.3-.4,0-1.5,3-4.4,7.8-4.4,5.4,0,8.8,3.2,8.8,8.1v14a.47.47,0,0,1-.5.5"/><path d="M485.59,113.6h-2.4c-.3,0-.5-.1-.5-.5V99.6a5.36,5.36,0,0,0-5.4-5.3,5.21,5.21,0,0,0-5.3,5.3v13.5c0,.4-.2.5-.5.5h-2.4c-.4,0-.5-.1-.5-.5V92c0-.4.1-.5.5-.5H471a.47.47,0,0,1,.5.5v2c0,.3.2.6.4.6.4,0,.8-.5,1.5-1.2,1.1-.9,2-1.9,4.4-1.9a8,8,0,0,1,8.3,8.2v13.5c0,.2-.1.4-.5.4"/><path d="M494.29,96.9c0,2.1,1.6,3,5,3.8,5.8,1.3,9,2,9,6.2s-3.1,7.2-8,7.2h-1.5c-4.7,0-7.7-2.8-7.7-4.4,0-.1.1-.2.4-.3l2-1h.2a.76.76,0,0,1,.4.2c1.3,1.5,2.3,2.8,4.8,2.8h1.6c2.8,0,4.6-1.6,4.6-3.7,0-1.9-1.6-3-4.9-3.7-5.8-1.2-9-1.8-9-6.2,0-4.1,3.1-7,7.7-7h1.6c4.6,0,7.7,2.8,7.7,4.3,0,.1-.1.2-.4.4l-1.9,1c-.1.1-.1.1-.2.1s-.2-.1-.4-.3c-1.4-1.5-2.6-2.7-4.8-2.7h-1.7c-2.9,0-4.5,1.2-4.5,3.3"/><path d="M527.49,99.6a5.36,5.36,0,0,0-5.4-5.3,5.21,5.21,0,0,0-5.3,5.3v5.8a5.36,5.36,0,0,0,5.3,5.4,5.44,5.44,0,0,0,5.4-5.4Zm1,11.7a7.41,7.41,0,0,1-5.4,2.3,5,5,0,0,1-2.8-.7c-1.8-1.2-2.6-2.5-3.2-2.5-.2,0-.4.2-.4.6v13.3c0,.4-.2.5-.5.5h-2.4c-.3,0-.5-.1-.5-.5V91.9c0-.4.2-.5.5-.5h1.9c.4,0,.5.2.5.5v2a.46.46,0,0,0,.4.5c.4,0,.8-.5,1.5-1.2a5.54,5.54,0,0,1,4.4-1.9,8,8,0,0,1,8.3,8.2v5.8a8.54,8.54,0,0,1-2.3,6"/><path d="M549.69,99.1a5.36,5.36,0,0,0-5.4-5.3,5.21,5.21,0,0,0-5.3,5.3v6.8a5.36,5.36,0,0,0,5.3,5.4,5.44,5.44,0,0,0,5.4-5.4Zm-5.3,15c-5.3,0-8.7-3.3-8.7-8.2V99.1c0-5,3.4-8.2,8.7-8.2s8.8,3.3,8.8,8.2v6.8c-.1,4.9-3.5,8.2-8.8,8.2"/><path d="M569.29,95c-.4,0-1.1-.1-1.9-.1a5.15,5.15,0,0,0-5.3,5.3v13c0,.4-.1.5-.5.5h-2.4c-.3,0-.5-.1-.5-.5V92.1c0-.4.2-.5.5-.5h1.9c.4,0,.5.1.5.5v2.5c0,.4.2.6.4.6.6,0,1.4-1.3,3.2-2.7a5,5,0,0,1,2.3-.9h1.9c.4,0,.5.1.5.5v2.6a.71.71,0,0,1-.6.3"/><path d="M585.69,99.6a5.36,5.36,0,0,0-5.4-5.3,5.21,5.21,0,0,0-5.3,5.3v5.8a5.36,5.36,0,0,0,5.3,5.4,5.44,5.44,0,0,0,5.4-5.4Zm2.9,14h-1.9a.47.47,0,0,1-.5-.5v-2.2c0-.3-.2-.6-.4-.6-.4,0-.8.6-1.6,1.3a5.8,5.8,0,0,1-4.5,2,8,8,0,0,1-8.2-8.2V99.6a7.91,7.91,0,0,1,7.8-8.2,5.66,5.66,0,0,1,2.7.6c1.8,1.2,2.6,2.5,3.2,2.5a.46.46,0,0,0,.4-.5V82.6c0-.4.2-.5.5-.5h2.4c.3,0,.5.1.5.5v30.5c.1.3-.1.5-.4.5"/><path d="M599,113.6h-2.4c-.4,0-.5-.1-.5-.5V91.9a.47.47,0,0,1,.5-.5H599c.4,0,.5.2.5.5v21.2c0,.3-.1.5-.5.5M597.79,86a2.24,2.24,0,0,1-2.2-2.3,2.22,2.22,0,0,1,2.2-2.2,2.18,2.18,0,0,1,2.3,2.2,2.4,2.4,0,0,1-2.3,2.3"/><path d="M325.49,139.7a17.18,17.18,0,0,0-.5-2h-.2c-.2.8-.4,1.5-.5,2l-3.6,12.9v.2c0,.3.2.4.5.4h7.2c.3,0,.5-.1.5-.4,0-.1-.1-.1-.1-.2Zm10.1,23.5a.47.47,0,0,1-.5.5h-2.6c-.3,0-.4-.1-.5-.4l-2-6.9c0-.2-.2-.3-.5-.3h-9.4c-.3,0-.5,0-.5.3l-2,6.9a.46.46,0,0,1-.5.4h-2.6a.56.56,0,0,1-.6-.5.35.35,0,0,0,.1-.2l9.3-30.5a.46.46,0,0,1,.5-.3h1.9a.55.55,0,0,1,.5.3l9.3,30.5a.35.35,0,0,0,.1.2"/><path d="M358.49,163.3c0,.2-.2.4-.6.4h-3l-.5-.2-6.9-11.3c-.1-.2-.2-.3-.4-.3a.76.76,0,0,0-.4.2l-2.8,2.8v8.4c0,.3-.1.5-.5.5H341c-.4,0-.5-.2-.5-.5V132.7c0-.4.1-.5.5-.5h2.4c.4,0,.5.1.5.5v17.2c0,.4.1.6.4.6a.55.55,0,0,0,.5-.2l7.8-8.6.4-.1h2.8a.46.46,0,0,1,.5.4c0,.1-.1.2-.2.4l-6.1,6.2c-.1.1-.1.2-.1.4v.2l8.5,13.8a1,1,0,0,1,.1.3"/><path d="M371.49,164.1c-3.8,0-7.5-3.4-7.5-8.2V144.8c0-.4-.2-.5-.5-.5h-2.9a.47.47,0,0,1-.5-.5v-1l5.7-6,.4-.2h.8a.47.47,0,0,1,.5.5v3.7c0,.4.2.5.5.5h3.7c.4,0,.5.2.5.5v1.9c0,.4-.1.5-.5.5H368c-.4,0-.5.1-.5.5v11.1a5.68,5.68,0,0,0,1.1,3.3,9.89,9.89,0,0,0,3.2,1.9c.3.1.4.2.4.5v2c-.1.5-.3.6-.7.6"/><path d="M379.79,147c0,2.1,1.6,3,5,3.8,5.8,1.3,9,2,9,6.2s-3.1,7.2-8,7.2h-1.6c-4.7,0-7.7-2.8-7.7-4.4,0-.1.1-.2.4-.3l2-1a.37.37,0,0,1,.3-.1c.1,0,.2.1.4.2,1.3,1.5,2.3,2.8,4.8,2.8H386c2.8,0,4.6-1.6,4.6-3.7,0-1.9-1.6-3-4.9-3.7-5.8-1.2-9-1.8-9-6.2,0-4.1,3.1-7,7.7-7H386c4.6,0,7.7,2.8,7.7,4.3,0,.1-.2.2-.4.4l-1.9,1a.31.31,0,0,1-.2.1c-.2,0-.2-.1-.4-.3-1.4-1.5-2.6-2.7-4.8-2.7h-1.6c-3,.1-4.6,1.3-4.6,3.4"/><path d="M402.69,163.7h-2.4c-.4,0-.5-.1-.5-.5V142.1c0-.4.2-.5.5-.5h2.4c.4,0,.5.2.5.5v21.1a.47.47,0,0,1-.5.5m-1.3-27.6a2.24,2.24,0,0,1-2.2-2.3,2.22,2.22,0,0,1,2.2-2.2,2.24,2.24,0,0,1,2.3,2.2,2.33,2.33,0,0,1-2.3,2.3"/><path d="M420.79,154.6a.47.47,0,0,0-.5-.5h-6.6a2.93,2.93,0,0,0-2.9,3v.8a2.93,2.93,0,0,0,2.9,3h2c2,0,3.7-1.5,5.1-4.3l.1-1v-1Zm2.9,9.1h-1.9c-.4,0-.5-.1-.5-.5V161c0-.3-.2-.6-.4-.6-.5,0-1.4,1.1-3,2.4a4.14,4.14,0,0,1-2.3.9h-2c-3.8,0-6.3-2.5-6.3-5.9v-.3c0-3.4,2.6-5.8,6.3-5.8h6.6c.4,0,.5-.1.5-.5l-.1-2a5.19,5.19,0,0,0-5.3-5.2,5.13,5.13,0,0,0-3.4,1.3c-1.1,1-1.4,1.7-1.8,1.7a.31.31,0,0,1-.2-.1l-2.1-1.1c-.2-.1-.3-.2-.3-.4,0-1.6,3-4.4,7.8-4.4,5.4,0,8.8,3.2,8.8,8.1v14c.1.4,0,.6-.4.6"/><path d="M432.39,147c0,2.1,1.6,3,5,3.8,5.8,1.3,9,2,9,6.2s-3.1,7.2-8,7.2h-1.6c-4.7,0-7.7-2.8-7.7-4.4,0-.1.1-.2.4-.3l2-1a.31.31,0,0,1,.2-.1c.1,0,.2.1.4.2,1.3,1.5,2.3,2.8,4.8,2.8h1.6c2.8,0,4.6-1.6,4.6-3.7,0-1.9-1.6-3-4.9-3.7-5.8-1.2-9-1.8-9-6.2,0-4.1,3.1-7,7.7-7h1.6c4.6,0,7.7,2.8,7.7,4.3,0,.1-.1.2-.4.4l-1.9,1a.31.31,0,0,1-.2.1c-.1,0-.2-.1-.4-.3-1.4-1.5-2.6-2.7-4.8-2.7h-1.6c-2.9.1-4.5,1.3-4.5,3.4"/><path d="M465.09,149.2a5.36,5.36,0,0,0-5.4-5.3,5.21,5.21,0,0,0-5.3,5.3v.7c0,.3.1.5.5.5h9.7c.4,0,.5-.1.5-.5v-.7Zm2.9,3.6h-13.1c-.4,0-.5.1-.5.5V156a5.36,5.36,0,0,0,5.3,5.4A4.71,4.71,0,0,0,463,160c1.1-1,1.5-1.7,1.8-1.7h.3l2.1,1.1c.3.1.3.2.3.4,0,1.6-3.1,4.4-7.8,4.4-5.3,0-8.7-3.3-8.7-8.2v-6.8a8.3,8.3,0,0,1,2.4-5.5,8.17,8.17,0,0,1,6.3-2.7c4.9,0,8.8,3.9,8.8,8.2v3.1c0,.3-.1.5-.5.5"/><path d="M476.59,163.7h-2.4c-.3,0-.5-.1-.5-.5V132.7c0-.4.2-.5.5-.5h2.4a.47.47,0,0,1,.5.5v30.5a.47.47,0,0,1-.5.5"/><path d="M491.89,164.1c-3.8,0-7.5-3.4-7.5-8.2V144.8c0-.4-.1-.5-.5-.5H481a.47.47,0,0,1-.5-.5v-1l5.7-6,.4-.2h.8a.47.47,0,0,1,.5.5v3.7c0,.4.1.5.5.5h3.7c.4,0,.5.2.5.5v1.9c0,.4-.1.5-.5.5h-3.7c-.4,0-.5.1-.5.5v11.1a5.06,5.06,0,0,0,1.1,3.3,9.89,9.89,0,0,0,3.2,1.9c.3.1.4.2.4.5v2c-.1.5-.3.6-.7.6"/><path d="M499.19,147c0,2.1,1.6,3,5,3.8,5.8,1.3,9,2,9,6.2s-3.1,7.2-8,7.2h-1.6c-4.7,0-7.7-2.8-7.7-4.4,0-.1.1-.2.4-.3l2-1a.37.37,0,0,1,.3-.1.76.76,0,0,1,.4.2c1.3,1.5,2.3,2.8,4.8,2.8h1.6c2.8,0,4.6-1.6,4.6-3.7,0-1.9-1.6-3-4.9-3.7-5.8-1.2-9-1.8-9-6.2,0-4.1,3.1-7,7.7-7h1.6c4.6,0,7.7,2.8,7.7,4.3,0,.1-.2.2-.4.4l-1.9,1c-.1.1-.1.1-.2.1s-.2-.1-.4-.3c-1.4-1.5-2.6-2.7-4.8-2.7h-1.6c-3,.1-4.6,1.3-4.6,3.4"/><path d="M27.79,162.9a6.35,6.35,0,0,0-4.2,1.7l-23,22.9c-1,1-.7,1.8.7,1.8h27a2.48,2.48,0,0,1,2.5,2.5v27c0,1.4.8,1.7,1.7.7l23-22.9a6.78,6.78,0,0,0,1.7-4.2v-27a2.48,2.48,0,0,0-2.5-2.5Z"/><path d="M120.29,149.2h-16.2c-1.2,0-1.7-.5-1.7-1.7V48.8a2.27,2.27,0,0,1,1.7-2.4l16.2-5.6a1.53,1.53,0,0,1,1.7,1.7v105c0,1.2-.5,1.7-1.7,1.7"/><path d="M82.49,149.2c-7.4,0-16.9-3.8-22.5-9.3-5.5-5.3-8.3-12.6-8.3-21.2V88.4c0-1.2-.5-1.7-1.7-1.7h-8.9c-1.2,0-1.7-.5-1.7-1.7l.4-9.1,20.3-21.5,1.2-.5h8.4c1.2,0,1.7.5,1.7,1.7V66.9c0,1.2.5,1.7,1.7,1.7h11.4c1.2,0,1.7.5,1.7,1.7V84.9c0,1.2-.5,1.7-1.7,1.7H73c-1.2,0-1.7.5-1.7,1.7v30.4c0,5.3,3.8,10.2,7.9,11,4.8,1,6.9.9,6.9,2.9v14.8c0,1.6-1,1.8-3.6,1.8"/><path d="M176.89,149.2c-7.4,0-16.9-3.8-22.5-9.3-5.5-5.3-8.3-12.6-8.3-21.2V88.4c0-1.2-.5-1.7-1.7-1.7h-9c-1.2,0-1.7-.5-1.7-1.7l.3-9.1,20.3-21.5,1.2-.5h8.4c1.2,0,1.7.5,1.7,1.7V66.9c0,1.2.5,1.7,1.7,1.7h11.3c1.2,0,1.7.5,1.7,1.7V84.9c0,1.2-.5,1.7-1.7,1.7h-11.3c-1.2,0-1.7.5-1.7,1.7v30.4c0,5.3,3.8,10.2,7.9,11,4.8,1,6.9.9,6.9,2.9v14.8c.1,1.6-1,1.8-3.5,1.8"/><path d="M220.09,22.7A22.7,22.7,0,1,1,197.39,0a22.68,22.68,0,0,1,22.7,22.7"/></svg>