<?xml version="1.0" encoding="utf-8"?>
<svg xmlns="http://www.w3.org/2000/svg" viewBox="0 0 56.51 9.09"><path d="M54.7,2.66h-.52L53.59,3.8V2.71h-2.3V8.94h2.3V4.6h.31a.3.3,0,0,1,.31.31v4h2.3V4.44A1.87,1.87,0,0,0,54.7,2.66Zm-6,0h-.52L47.62,3.8V2.71h-2.3V8.94h2.3V4.6h.31a.32.32,0,0,1,.31.31v4h2.3V4.44a1.86,1.86,0,0,0-1.81-1.78Zm-6.54-.54h2.33V.28H42.19Zm0,6.82h2.32V2.74H42.17ZM39,.65V9h2.33V.08h-.11L39,.65ZM30.93.39h-6V2.56h1.84V9h2.4V2.53h1.76Zm5,.26V9h2.33V.05h-.08l-2.25.6Zm-3.72,4a.07.07,0,0,1,.08-.08h.54V7.26h-.31A.31.31,0,0,1,32.22,7ZM30,4.5V7.26A1.76,1.76,0,0,0,31.7,9h.52l.59-1.17V8.94h2.3V2.74H31.7A1.75,1.75,0,0,0,30,4.5ZM0,.85H1L3.62,8.22,6.51.85h1L4.24,9H2.92L0,.85ZM8.35.75,9.09,0l.78.75-.78.77Zm.28,2h.93V9H8.63Zm2.3,6.13.15-.75a7.23,7.23,0,0,0,1.61.26c1,0,1.57-.39,1.57-1,0-1.44-3.15-1-3.15-3.1,0-1.13.93-1.73,2.14-1.73a6.18,6.18,0,0,1,1.53.26l-.16.72a5.11,5.11,0,0,0-1.44-.23c-.8,0-1.17.41-1.17.91,0,1.44,3.13,1,3.13,3.1,0,1.44-1.32,1.8-2.35,1.8a6.73,6.73,0,0,1-1.86-.25ZM16.28.75,17,0l.77.75L17,1.52,16.28.75Zm.31,2h.9V9h-.93V2.71Zm3.07,4.52V3.46h-.93V2.69h.93V1.4h.88V2.69h2v.77h-2V7.21c0,.93.26,1.08,1.19,1.08a3.57,3.57,0,0,0,1-.18l.16.75a3.84,3.84,0,0,1-1.11.21C20.59,9.09,19.66,9.07,19.66,7.23Z"/></svg>